<svg width="59" height="59" viewBox="0 0 59 59" fill="none" xmlns="http://www.w3.org/2000/svg">
<path d="M33.0115 2.89981C33.0115 2.89981 32.9699 3.30818 32.9284 3.47153C33.2608 3.06316 33.7179 2.36894 33.6348 1.51137C33.2193 2.3281 33.1777 1.96057 32.7621 2.94065C32.5128 3.02232 32.3466 2.61396 32.4297 2.28726C32.305 2.49145 32.0557 2.04224 31.8895 2.61396C32.1388 3.34902 32.5544 3.38985 33.0115 2.85898V2.89981Z" fill="#F48E3B"/>
<path d="M36.6268 1.96056C36.6268 1.96056 36.419 2.04224 36.3359 2.12391C36.419 2.12391 36.5021 2.12391 36.5852 2.08307C36.5852 2.04224 36.5852 2.0014 36.6268 1.96056Z" fill="#F48E3B"/>
<path d="M25.0742 0.285416C25.0742 0.285416 25.0742 0.367089 25.0742 0.407926C25.0742 0.326252 25.0742 0.285416 25.0742 0.285416Z" fill="#F48E3B"/>
<path d="M36.7514 2.08314C36.7514 2.08314 36.8761 2.08314 36.9592 2.08314C36.8761 2.0423 36.793 2.0423 36.7514 2.08314Z" fill="#F48E3B"/>
<path d="M12.1086 6.16594C12.3164 6.28845 12.5241 6.41096 12.6904 6.5743C12.3164 6.20677 12.6904 5.59422 12.1086 6.16594Z" fill="#F48E3B"/>
<path d="M36.5437 2.36806C36.5437 2.36806 36.6683 2.12397 36.7514 2.08314C36.7099 2.08314 36.6268 2.08307 36.5852 2.08307C36.5852 2.20558 36.5021 2.28638 36.5437 2.36806Z" fill="#F48E3B"/>
<path d="M50.6313 50.6787L50.008 51.1279C50.008 51.1279 50.4235 50.8829 50.6313 50.6787Z" fill="#F48E3B"/>
<path d="M1.30391 35.691L1.17924 35.5277C1.17924 35.5277 1.17924 35.6502 1.30391 35.691Z" fill="#F48E3B"/>
<path d="M48.3041 52.6388C48.0133 52.5163 47.8055 52.4755 47.6392 52.4755C47.6392 52.5572 47.6392 52.598 47.6808 52.6797H48.3041V52.6388Z" fill="#F48E3B"/>
<path d="M58.1946 35.8546C57.779 35.3646 57.3219 34.8745 57.6543 34.3028C57.8206 34.3845 58.0283 34.3028 57.9868 34.507C58.153 33.4044 56.8648 32.506 57.5297 31.4034C58.6517 31.8526 57.9452 31.0359 58.9841 31.0359C58.901 30.8317 58.8179 30.5867 58.6932 30.3825L58.1946 30.6275C58.1946 30.0558 57.4881 29.5658 57.8206 29.0757L58.2361 29.4841L58.0283 28.4223L57.6543 29.0349C57.1141 28.504 56.3661 29.1165 56.657 28.3815C56.7401 28.504 56.657 27.8506 57.2388 27.5239C56.9063 27.2789 56.5323 27.0339 56.7401 26.6255C57.0725 26.503 57.8621 26.6255 58.0699 26.503C57.1972 26.3397 57.7374 25.2371 56.7401 25.0329C56.9894 25.1146 57.4881 25.0329 57.6128 24.992L56.8648 24.8695C57.031 24.5837 57.1141 24.5428 57.5712 24.502C57.5712 23.7261 56.3245 24.9512 56.6985 23.9711C56.7816 24.012 56.8648 23.9711 56.9894 24.0936C57.031 23.6036 56.8648 23.1952 56.657 22.8277C56.4908 22.4193 56.2414 22.0518 56.283 21.6026C57.1972 21.0717 56.7401 22.256 57.4881 21.7251C57.1972 21.1534 56.7401 20.6225 56.283 20.0916C55.8674 19.5608 55.3687 19.1116 55.2856 18.499V18.744C53.8727 19.1524 55.5765 17.6414 54.7038 17.3964C54.8701 17.4781 55.535 17.2331 55.3687 17.2739C55.2025 16.4572 54.2467 15.9263 53.2494 15.1504L53.6649 15.0687C53.6649 14.497 53.1247 13.9253 52.9585 13.3944C52.5845 13.4761 52.4598 13.1902 52.1273 13.6394C52.252 13.3128 52.2936 13.0677 52.252 12.8227C52.252 12.6185 52.1273 12.4143 52.0442 12.251C51.8364 11.9243 51.4624 11.761 51.0884 11.5568C50.7144 11.3934 50.382 11.1892 50.1326 10.9851C49.8833 10.74 49.7171 10.4134 49.7586 9.88247C49.8833 10.005 50.2989 9.96415 50.1742 9.88247L49.0522 9.26992C48.6782 9.8008 48.8859 9.63745 48.7197 10.1683C48.3457 10.3317 47.9301 10.2908 47.7224 10.1275C48.3873 10.2092 48.4288 9.39243 48.4704 8.98407C48.3873 9.14741 48.1795 9.26992 48.0548 9.39243C48.3457 8.16733 47.1406 10.25 46.9743 9.18825L47.2237 8.98407C46.8912 8.90239 46.3926 9.06574 46.1848 8.77989C46.5172 8.1265 46.6419 8.73905 47.0575 8.28984C46.6419 8.00399 45.4783 8.77988 45.5614 7.96315C45.8523 7.92231 46.1017 8.08566 46.351 8.04482C46.5172 7.06474 46.3094 7.22809 46.1017 6.9014L45.6445 6.16634V6.49303C44.8965 7.10558 44.6056 6.98307 44.3147 6.81972C44.1901 6.73805 44.0654 6.61554 43.8576 6.5747C43.6498 6.5747 43.4421 6.5747 43.1096 6.73805C44.3979 6.08466 43.5667 6.20717 44.0654 5.55379C43.9823 5.26793 43.8576 4.9004 44.0654 4.73705C43.4005 5.10458 43.733 3.96116 42.7772 4.53287C42.8603 4.28785 42.4032 4.32869 42.7772 3.75697C42.2369 3.6753 42.694 4.20618 42.4863 4.49203C41.946 4.69622 41.6551 4.28785 41.2811 3.87948C40.9071 3.47112 40.45 3.06275 39.702 3.43028C38.7046 3.55279 38.2475 4.24701 37.4579 4.49203C37.3748 4.49203 37.2917 4.4512 37.167 4.41036C37.167 4.00199 37.7073 3.71614 37.7073 3.71614C37.3748 3.2261 37.0008 3.14442 36.4606 3.34861C36.6268 3.14442 36.5853 2.94024 36.4606 2.61355C36.0866 2.61355 36.0035 3.51195 35.6295 3.02191C35.7541 2.73606 35.9619 2.32769 36.2113 2.08267C35.7126 2.24602 35.1723 2.61355 34.7152 2.77689C34.7152 2.28685 35.0892 2.16434 35.3386 1.87849C34.7983 1.96016 33.9672 2.001 33.6763 2.73606L33.8841 2.94024C33.8841 2.94024 33.9672 2.36853 34.0919 2.28685C34.6321 1.79681 34.6737 2.65438 34.6321 2.94024L34.2997 3.06275C34.2997 4.65538 35.5464 3.06275 36.1697 3.30777L35.7541 4.1245C34.2581 3.79781 32.7205 3.55279 31.1414 3.47112C31.1414 3.47112 31.1414 3.47112 31.0998 3.47112C31.1414 3.06275 31.2245 2.65438 31.266 2.24602C31.266 2.32769 31.3492 2.36853 31.4323 2.36853L31.6816 1.51096L31.266 1.71514C31.266 1.18426 31.0583 0.694223 30.6011 0.285857L29.8531 1.06175L29.6038 0.449203H30.2271C29.8531 -0.163347 29.6453 0.326693 29.396 0.694223C29.3129 0.36753 29.2298 0.163347 29.0636 0.0408367C28.8142 0.449203 28.6064 0.85757 28.3571 1.2251C28.2324 0.73506 28.648 0.24502 28.1493 0C27.8169 0.571713 28.5233 1.06175 27.9831 1.47012C27.6091 0.939244 27.6506 0.449203 27.2766 0.98008C27.1935 0.653387 27.2766 0.449203 27.4013 0.285857C27.0689 0.694223 26.404 0.530877 26.3208 1.2251C26.1131 0.898407 25.7806 0.98008 25.5313 0.98008C25.2819 0.98008 25.0326 0.98008 24.9495 0.36753C24.8664 0.653387 24.4508 1.42928 24.1184 1.51096C24.4508 0 22.8301 1.6743 22.6639 0.163347C22.4977 1.47012 21.1263 1.18426 20.5445 2.08267C20.5445 1.96016 20.5445 1.75598 20.6692 1.79681C20.1705 1.79681 19.9212 1.51096 19.5472 1.38845C19.838 2.40936 19.2563 2.8994 19.1731 3.63446C18.2589 2.8994 19.0069 2.36853 18.4667 1.51096C18.7991 2.28685 17.8849 2.69522 18.342 3.26693C17.6771 2.85857 17.8849 3.14442 17.3031 2.40936C17.8018 3.63446 17.0122 2.77689 17.0538 3.6753C16.2226 3.38944 16.3473 2.65438 15.8902 3.34861C15.3915 3.14442 15.724 2.4502 15.724 2.4502C15.0591 2.77689 15.8902 3.47112 16.0149 4.04283C15.4331 4.69622 15.3084 3.59363 14.8097 3.26693C14.6435 3.51195 14.5604 3.87948 14.5188 4.20618C14.4773 4.53287 14.4357 4.81873 14.2279 4.94124C14.1033 4.81873 14.0202 4.81873 13.9786 4.57371C13.9786 5.55379 12.6072 5.51295 12.6904 6.69721C12.6072 6.65638 12.5241 6.61554 12.4826 6.53387C12.8566 6.86056 13.189 7.26893 13.3968 7.55478C13.189 7.75897 13.3968 8.41235 12.8566 7.96315C13.0228 7.88148 12.8566 7.63646 12.815 7.43227L12.7319 7.84064C11.9423 7.26893 12.8566 7.30976 12.441 6.77889C12.1086 7.43227 12.067 8.45319 11.5268 8.53486C10.8203 7.92231 12.1917 7.59562 11.1528 7.39144L11.9839 7.18725C10.6125 6.41136 12.3995 6.98307 11.0281 6.08466C10.0723 6.53387 10.4048 7.14642 9.49052 7.63646C9.6983 8.16733 10.0723 8.1265 10.2385 8.65737C9.90608 10.25 7.78671 7.7998 7.91138 9.39243C8.16071 10.005 8.99184 10.8626 8.0776 10.9851L7.45426 10.1275C6.7478 10.8217 8.24383 11.5159 7.08025 11.8426C6.87247 11.4751 7.28803 11.0667 7.08025 11.0667C5.99978 11.0667 7.24647 11.8018 6.91402 12.1693L6.12445 11.6793C5.87511 12.1693 5.75044 12.7002 5.58422 13.2719C5.45955 13.8436 5.29332 14.4153 5.08554 14.9462C4.87776 14.742 4.71154 14.4562 4.33753 14.5379C4.1713 15.2729 3.7973 15.9263 3.29862 16.5389C2.8415 17.1514 2.30127 17.764 1.76104 18.2948L2.30127 19.0707C2.30127 19.0707 1.8857 19.1524 1.76104 18.9891C1.30392 19.3974 2.21816 19.1932 2.46749 19.5608C2.46749 19.8466 1.8857 19.8058 1.71948 19.5608C1.8857 20.1325 2.05193 20.8675 2.01037 21.5618C2.01037 21.8885 1.92726 22.256 1.84415 22.5418C1.76104 22.8277 1.55325 23.1136 1.30392 23.3177L1.09613 23.0727C0.597458 23.7669 2.55061 24.2161 1.63637 24.7879L1.5117 24.6245C1.2208 25.4004 1.2208 26.2988 1.13769 27.1155C1.13769 27.3197 1.09613 27.5239 1.05458 27.7281C1.05458 27.9323 1.01302 28.1365 0.929908 28.2998C0.805239 28.6673 0.639014 29.0349 0.348119 29.3616C0.929908 29.4841 0.805239 29.8924 0.722127 30.3008C0.639014 30.7092 0.722126 31.0767 1.5117 31.0767C0.805239 32.0568 0.472788 31.8118 0.0987812 33.2819C0.0572249 33.6494 1.17925 33.6903 1.42858 34.0986L0.597457 34.262L1.59481 34.7112L0.68057 35.2421L0.971465 35.6096C0.971465 35.6096 1.26236 35.1604 1.5117 35.1604C1.76104 35.4462 1.71948 35.8546 1.5117 36.2221C1.34547 36.5897 1.09613 36.9164 0.888352 36.9572L2.05193 38.264C1.80259 38.3048 1.63637 38.2231 1.47014 38.1006C2.09349 38.509 0.555901 38.4273 1.47014 38.9173C1.63637 38.754 1.96882 38.7948 2.13504 38.754C1.76104 39.2849 2.13504 40.1016 2.55061 40.6325L1.96882 40.755C2.25971 41.9393 3.29862 42.9193 3.92197 44.0628C3.92197 43.4911 4.87776 43.1235 5.1271 43.4094L4.42064 43.9811C5.00243 43.8994 4.50375 43.4502 5.33488 43.5727C5.50111 44.0219 4.62842 44.3486 4.25442 44.267L4.83621 44.5936C4.83621 44.5936 4.42064 44.7162 4.12975 44.8795C4.75309 44.7978 3.96352 46.2271 4.96087 46.0229L4.75309 46.1863C4.96087 46.4721 5.1271 46.6763 5.29333 46.8805C5.45955 47.0847 5.66733 47.248 5.83356 47.3705C6.20756 47.6564 6.54002 47.9422 6.91402 48.3506C7.49581 47.8606 7.66204 48.3098 8.32694 48.1464C8.70095 48.8407 8.86717 49.9024 9.61519 50.515C10.3632 50.6783 10.197 50.1883 10.7372 50.0249C10.2801 50.5558 11.0697 51.1275 10.3632 51.1683C10.8619 51.495 11.1528 51.6992 11.5268 51.8626C11.693 51.9442 11.9008 52.0259 12.1501 52.1484C12.3995 52.2301 12.6904 52.3118 13.1059 52.3935C13.1059 52.0668 13.1059 51.9034 13.2721 51.7401C13.563 51.7809 13.563 52.3118 13.3553 52.5568H13.2721C14.2279 52.5568 14.6851 53.5369 15.2668 54.3128C15.5577 54.7211 15.8486 55.1295 16.1811 55.3745C16.3473 55.497 16.5135 55.5787 16.7213 55.6195C16.9291 55.6195 17.1369 55.6195 17.3447 55.497H17.2616L18.7991 55.3745C19.2978 55.7012 18.2589 55.7012 18.5082 56.2729C18.9654 56.1504 19.2978 56.1504 19.5887 56.2321C19.8796 56.2729 20.1289 56.3954 20.3783 56.518C20.877 56.763 21.3341 57.0488 21.999 56.8446C22.1652 57.9881 23.0379 58.0697 23.9106 58.1514C24.3677 58.1514 24.8248 58.1514 25.1988 58.2739C25.6144 58.3148 25.9884 58.4781 26.2793 58.8456V58.3556C26.6533 57.9064 26.6117 58.6823 26.8611 58.8048C26.8611 58.4373 26.5702 58.3556 26.778 58.1106C28.1493 58.0289 29.5207 58.1106 30.9752 58.4373C31.6816 58.5598 32.4296 58.6415 33.1776 58.764C33.5516 58.8048 33.9257 58.8456 34.2997 58.8865C34.6737 58.8865 35.0477 58.8865 35.4217 58.8865C36.5021 58.8048 35.5048 56.3546 37.0008 57.2122L36.8346 58.1514C37.7488 57.3755 38.7462 57.0488 39.7851 56.8038C40.7825 56.4363 41.7798 56.1096 42.5278 55.252C42.5278 55.497 42.6109 55.7421 42.4447 55.8237C43.1096 56.2321 43.8992 55.1295 43.6498 54.6395C43.9407 54.5578 43.9407 55.007 44.2316 55.1703C44.8134 55.2929 44.7719 53.9452 45.3121 54.3944C45.3536 54.4353 45.3536 54.517 45.3121 54.5986C45.5199 54.2311 46.351 54.0269 45.7692 53.5777C46.6003 53.4552 46.8081 52.516 47.5561 52.516C47.3484 51.6176 48.8444 52.0259 48.1795 51.0458C48.9275 52.0259 49.8833 50.9642 49.8002 50.1883C49.9249 50.5558 50.382 50.1883 50.5898 50.6783C50.9638 50.2699 51.1715 49.7799 50.6729 49.4124C51.5455 49.5757 51.7118 49.004 51.8364 48.514C51.9611 48.0239 52.0442 47.6156 52.9585 47.9831C53.0831 47.5747 53.2494 47.1664 53.374 46.7988C53.4987 46.3905 53.5818 46.0229 53.7065 45.6554C53.8311 45.2879 53.9558 44.9203 54.0805 44.5936L54.2883 44.0628L54.4545 43.5319C54.9532 43.8586 54.8285 44.2261 54.6207 44.5528C54.4545 44.8795 54.2467 45.2062 54.8285 45.5329C54.9116 45.1654 54.9532 44.8387 54.9947 44.512C54.9947 44.1853 54.9947 43.8586 54.9947 43.5727C54.9947 42.9602 55.0778 42.4293 55.535 41.8984C55.8674 41.6534 55.909 42.3068 56.0336 42.511C56.1583 41.8168 56.4076 41.2042 56.6985 40.6325C56.9479 40.0608 57.2388 39.4891 57.0725 38.7948C57.1972 38.7948 57.2388 38.999 57.3219 39.1624C57.3219 38.9173 57.6543 38.6723 57.1141 38.5498L57.1972 38.8357C56.3245 38.9173 55.8674 37.4064 55.4518 37.2839C56.8648 38.1415 56.1999 36.3038 57.9452 37.4881C57.9037 37.3247 57.6959 37.0389 57.3219 36.998C57.4881 36.7938 57.7374 36.7938 58.0699 37.1205C58.0699 36.6713 57.8621 36.4671 57.6959 36.3038C57.5297 36.1405 57.405 35.9771 57.4881 35.6096C57.7374 35.6913 57.8206 35.8546 58.1115 35.9771L58.1946 35.8546ZM50.2573 11.9651C50.2573 11.9651 49.9664 12.251 49.8002 12.3735C49.7171 12.251 49.634 12.1693 49.5093 12.0468C49.7171 11.8835 49.9664 11.8426 50.2573 11.9243V11.9651ZM39.8682 4.69622C39.8682 4.9004 39.8267 5.10458 39.7851 5.3496C39.6189 5.30877 39.4942 5.22709 39.328 5.18626C39.4526 5.02291 39.5773 4.85956 39.8682 4.73705V4.69622ZM36.7099 3.55279C36.7099 3.55279 36.7099 4.04283 36.6268 4.28785C36.419 4.24701 36.2528 4.20618 36.045 4.16534C36.2528 3.96116 36.4606 3.75697 36.7099 3.59363V3.55279ZM5.62578 14.8645C5.62578 14.8645 5.58422 15.0279 5.50111 15.1912C5.54266 15.0687 5.58422 14.9462 5.62578 14.8645ZM5.21021 15.8446C5.45955 15.9263 5.66733 16.0896 5.62578 16.2122C5.50111 16.0488 5.21021 16.253 4.91932 16.3347C5.04399 16.2122 5.1271 16.0488 5.21021 15.8446Z" fill="#F82A8B"/>
<path d="M1.63641 38.0599C1.63641 38.0599 1.51174 37.9783 1.42862 37.9374C1.51174 37.9374 1.55329 38.0191 1.63641 38.0599Z" fill="#F48E3B"/>
<path d="M34.1335 3.10345L34.0504 3.02178C34.0504 3.02178 34.0504 3.10345 34.1335 3.10345Z" fill="#F48E3B"/>
<path d="M45.4368 54.5577C45.4368 54.5577 45.4368 54.6394 45.3953 54.6802C45.3953 54.6802 45.3953 54.5985 45.4368 54.5577Z" fill="#F48E3B"/>
<path d="M0.597457 34.262L0.805283 34.2215L0.597501 34.1399L0.597457 34.262Z" fill="#F48E3B"/>
<path d="M48.5535 9.06551C48.5535 9.06551 48.595 8.943 48.595 8.86132C48.595 8.86132 48.5535 8.98383 48.5535 9.06551Z" fill="#F48E3B"/>
<path d="M46.2263 6.98314L46.0185 6.53393C46.1017 6.77895 46.1432 6.90146 46.2263 6.98314Z" fill="#F48E3B"/>
<path d="M44.3979 5.34917C44.3979 5.34917 44.2317 5.51251 44.1901 5.59419L44.3979 5.34917Z" fill="#F48E3B"/>
<path d="M57.3634 39.0398C57.3634 39.0398 57.3634 39.1215 57.3634 39.1623C57.4466 39.4074 57.4466 39.244 57.3634 39.0398Z" fill="#F48E3B"/>
<path d="M57.2388 27.5643C57.2388 27.5643 57.5297 27.7685 57.6544 27.891C57.6544 27.6868 57.6544 27.5235 57.2388 27.5643Z" fill="#F48E3B"/>
<path d="M50.6728 50.6375C50.6728 50.6375 50.6729 50.6379 50.6313 50.6787L50.7144 50.6784L50.6728 50.6375Z" fill="#F48E3B"/>
<path d="M57.6128 28.4222C57.6128 28.4222 57.7374 28.0547 57.6128 27.8913C57.5712 28.0547 57.4881 28.2589 57.6128 28.4222Z" fill="#F48E3B"/>
<path d="M34.3828 1.38877C34.3828 1.38877 34.3828 1.47044 34.3828 1.51128L34.5491 1.42961H34.4244L34.3828 1.38877Z" fill="#F48E3B"/>
<path d="M34.3412 1.51137L34.175 1.59304C34.175 1.59304 34.2997 1.59304 34.3412 1.51137Z" fill="#F48E3B"/>
<path d="M33.8841 1.75563L34.175 1.59304C34.175 1.59304 33.9672 1.55144 33.8841 1.75563Z" fill="#F48E3B"/>
<path d="M37.6242 2.491L37.7489 2.24598C37.7489 2.24598 37.6658 2.36849 37.6242 2.491Z" fill="#F48E3B"/>
<path d="M38.58 2.69499C38.58 2.69499 38.1644 1.95993 37.832 2.0416L37.7489 2.24598C37.9982 1.91929 38.2475 3.10336 38.6215 2.73583L38.58 2.69499Z" fill="#F48E3B"/>
<path d="M57.1972 22.6642C57.1972 22.6642 57.4466 22.3783 57.5297 22.2558H56.8648C56.8648 22.2558 57.1141 22.5417 57.1972 22.6642Z" fill="#F48E3B"/>
<path d="M22.3613 38.8759L37.3063 30.397L22.3613 20.73V16.5176L41.0327 29.2089V31.9092L22.3613 43.0883V38.8759Z" fill="#F5F5F5"/>
</svg>
