<svg width="59" height="59" viewBox="0 0 59 59" fill="none" xmlns="http://www.w3.org/2000/svg">
<g opacity="0.2">
<path d="M25.9729 2.89981C25.9729 2.89981 26.0144 3.30818 26.056 3.47153C25.7236 3.06316 25.2664 2.36894 25.3495 1.51137C25.7651 2.3281 25.8067 1.96057 26.2222 2.94065C26.4716 3.02232 26.6378 2.61396 26.5547 2.28726C26.6793 2.49145 26.9287 2.04224 27.0949 2.61396C26.8456 3.34902 26.43 3.38985 25.9729 2.85898V2.89981Z" fill="#F48E3B"/>
<path d="M22.3576 1.96056C22.3576 1.96056 22.5654 2.04224 22.6485 2.12391C22.5654 2.12391 22.4823 2.12391 22.3992 2.08307C22.3992 2.04224 22.3992 2.0014 22.3576 1.96056Z" fill="#F48E3B"/>
<path d="M33.9102 0.285416C33.9102 0.285416 33.9102 0.367089 33.9102 0.407926C33.9102 0.326252 33.9102 0.285416 33.9102 0.285416Z" fill="#F48E3B"/>
<path d="M22.2329 2.08314C22.2329 2.08314 22.1083 2.08314 22.0252 2.08314C22.1083 2.0423 22.1914 2.0423 22.2329 2.08314Z" fill="#F48E3B"/>
<path d="M46.8758 6.16594C46.668 6.28845 46.4602 6.41096 46.294 6.5743C46.668 6.20677 46.294 5.59422 46.8758 6.16594Z" fill="#F48E3B"/>
<path d="M22.4407 2.36806C22.4407 2.36806 22.316 2.12397 22.2329 2.08314C22.2745 2.08314 22.3576 2.08307 22.3992 2.08307C22.3992 2.20558 22.4823 2.28638 22.4407 2.36806Z" fill="#F48E3B"/>
<path d="M8.35305 50.6787L8.97639 51.1279C8.97639 51.1279 8.56084 50.8829 8.35305 50.6787Z" fill="#F48E3B"/>
<path d="M57.6805 35.691L57.8051 35.5277C57.8051 35.5277 57.8051 35.6502 57.6805 35.691Z" fill="#F48E3B"/>
<path d="M10.6802 52.6388C10.9711 52.5163 11.1789 52.4755 11.3451 52.4755C11.3451 52.5572 11.3451 52.598 11.3036 52.6797H10.6802V52.6388Z" fill="#F48E3B"/>
<path d="M0.78981 35.8546C1.20538 35.3646 1.66249 34.8745 1.33004 34.3028C1.16382 34.3845 0.956036 34.3028 0.997593 34.507C0.831367 33.4044 2.11961 32.506 1.45471 31.4034C0.332691 31.8526 1.03915 31.0359 0.000240326 31.0359C0.0833549 30.8317 0.166466 30.5867 0.291138 30.3825L0.78981 30.6275C0.78981 30.0558 1.49627 29.5658 1.16382 29.0757L0.748257 29.4841L0.956036 28.4223L1.33004 29.0349C1.87027 28.504 2.61829 29.1165 2.32739 28.3815C2.24428 28.504 2.3274 27.8506 1.74561 27.5239C2.07806 27.2789 2.45206 27.0339 2.24428 26.6255C1.91183 26.503 1.12226 26.6255 0.914482 26.503C1.78717 26.3397 1.24693 25.2371 2.24428 25.0329C1.99495 25.1146 1.49627 25.0329 1.3716 24.992L2.11962 24.8695C1.95339 24.5837 1.87028 24.5428 1.41316 24.502C1.41316 23.7261 2.65985 24.9512 2.28584 23.9711C2.20273 24.012 2.11961 23.9711 1.99494 24.0936C1.95339 23.6036 2.11961 23.1952 2.32739 22.8277C2.49362 22.4193 2.74296 22.0518 2.7014 21.6026C1.78716 21.0717 2.24428 22.256 1.49627 21.7251C1.78716 21.1534 2.24428 20.6225 2.7014 20.0916C3.11697 19.5608 3.61565 19.1116 3.69876 18.499V18.744C5.11168 19.1524 3.40786 17.6414 4.28054 17.3964C4.11432 17.4781 3.44942 17.2331 3.61564 17.2739C3.78187 16.4572 4.73767 15.9263 5.73502 15.1504L5.31945 15.0687C5.31945 14.497 5.85969 13.9253 6.02591 13.3944C6.39992 13.4761 6.52459 13.1902 6.85704 13.6394C6.73237 13.3128 6.69081 13.0677 6.73237 12.8227C6.73237 12.6185 6.85704 12.4143 6.94015 12.251C7.14793 11.9243 7.52194 11.761 7.89595 11.5568C8.26995 11.3934 8.60241 11.1892 8.85175 10.9851C9.10108 10.74 9.26731 10.4134 9.22575 9.88247C9.10109 10.005 8.68552 9.96415 8.81019 9.88247L9.93221 9.26992C10.3062 9.8008 10.0984 9.63745 10.2647 10.1683C10.6387 10.3317 11.0542 10.2908 11.262 10.1275C10.5971 10.2092 10.5556 9.39243 10.514 8.98407C10.5971 9.14741 10.8049 9.26992 10.9296 9.39243C10.6387 8.16733 11.8438 10.25 12.01 9.18825L11.7607 8.98407C12.0931 8.90239 12.5918 9.06574 12.7996 8.77989C12.4671 8.1265 12.3425 8.73905 11.9269 8.28984C12.3425 8.00399 13.5061 8.77988 13.4229 7.96315C13.132 7.92231 12.8827 8.08566 12.6334 8.04482C12.4671 7.06474 12.6749 7.22809 12.8827 6.9014L13.3398 6.16634V6.49303C14.0878 7.10558 14.3787 6.98307 14.6696 6.81972C14.7943 6.73805 14.919 6.61554 15.1268 6.5747C15.3345 6.5747 15.5423 6.5747 15.8748 6.73805C14.5865 6.08466 15.4177 6.20717 14.919 5.55379C15.0021 5.26793 15.1268 4.9004 14.919 4.73705C15.5839 5.10458 15.2514 3.96116 16.2072 4.53287C16.1241 4.28785 16.5812 4.32869 16.2072 3.75697C16.7474 3.6753 16.2903 4.20618 16.4981 4.49203C17.0383 4.69622 17.3292 4.28785 17.7032 3.87948C18.0773 3.47112 18.5344 3.06275 19.2824 3.43028C20.2797 3.55279 20.7369 4.24701 21.5264 4.49203C21.6095 4.49203 21.6927 4.4512 21.8173 4.41036C21.8173 4.00199 21.2771 3.71614 21.2771 3.71614C21.6095 3.2261 21.9836 3.14442 22.5238 3.34861C22.3576 3.14442 22.3991 2.94024 22.5238 2.61355C22.8978 2.61355 22.9809 3.51195 23.3549 3.02191C23.2302 2.73606 23.0225 2.32769 22.7731 2.08267C23.2718 2.24602 23.812 2.61355 24.2692 2.77689C24.2692 2.28685 23.8951 2.16434 23.6458 1.87849C24.186 1.96016 25.0172 2.001 25.3081 2.73606L25.1003 2.94024C25.1003 2.94024 25.0172 2.36853 24.8925 2.28685C24.3523 1.79681 24.3107 2.65438 24.3523 2.94024L24.6847 3.06275C24.6847 4.65538 23.438 3.06275 22.8147 3.30777L23.2302 4.1245C24.7263 3.79781 26.2639 3.55279 27.843 3.47112C27.843 3.47112 27.843 3.47112 27.8846 3.47112C27.843 3.06275 27.7599 2.65438 27.7183 2.24602C27.7183 2.32769 27.6352 2.36853 27.5521 2.36853L27.3028 1.51096L27.7183 1.71514C27.7183 1.18426 27.9261 0.694223 28.3832 0.285857L29.1312 1.06175L29.3806 0.449203H28.7572C29.1312 -0.163347 29.339 0.326693 29.5884 0.694223C29.6715 0.36753 29.7546 0.163347 29.9208 0.0408367C30.1702 0.449203 30.3779 0.85757 30.6273 1.2251C30.7519 0.73506 30.3364 0.24502 30.8351 0C31.1675 0.571713 30.4611 1.06175 31.0013 1.47012C31.3753 0.939244 31.3337 0.449203 31.7077 0.98008C31.7909 0.653387 31.7077 0.449203 31.5831 0.285857C31.9155 0.694223 32.5804 0.530877 32.6635 1.2251C32.8713 0.898407 33.2038 0.98008 33.4531 0.98008C33.7024 0.98008 33.9518 0.98008 34.0349 0.36753C34.118 0.653387 34.5336 1.42928 34.866 1.51096C34.5336 0 36.1543 1.6743 36.3205 0.163347C36.4867 1.47012 37.8581 1.18426 38.4399 2.08267C38.4399 1.96016 38.4399 1.75598 38.3152 1.79681C38.8139 1.79681 39.0632 1.51096 39.4372 1.38845C39.1463 2.40936 39.7281 2.8994 39.8112 3.63446C40.7255 2.8994 39.9775 2.36853 40.5177 1.51096C40.1852 2.28685 41.0995 2.69522 40.6424 3.26693C41.3073 2.85857 41.0995 3.14442 41.6813 2.40936C41.1826 3.63446 41.9722 2.77689 41.9306 3.6753C42.7617 3.38944 42.6371 2.65438 43.0942 3.34861C43.5929 3.14442 43.2604 2.4502 43.2604 2.4502C43.9253 2.77689 43.0942 3.47112 42.9695 4.04283C43.5513 4.69622 43.676 3.59363 44.1746 3.26693C44.3409 3.51195 44.424 3.87948 44.4655 4.20618C44.5071 4.53287 44.5487 4.81873 44.7564 4.94124C44.8811 4.81873 44.9642 4.81873 45.0058 4.57371C45.0058 5.55379 46.3771 5.51295 46.294 6.69721C46.3771 6.65638 46.4602 6.61554 46.5018 6.53387C46.1278 6.86056 45.7953 7.26893 45.5876 7.55478C45.7953 7.75897 45.5876 8.41235 46.1278 7.96315C45.9616 7.88148 46.1278 7.63646 46.1693 7.43227L46.2525 7.84064C47.042 7.26893 46.1278 7.30976 46.5434 6.77889C46.8758 7.43227 46.9174 8.45319 47.4576 8.53486C48.1641 7.92231 46.7927 7.59562 47.8316 7.39144L47.0005 7.18725C48.3718 6.41136 46.5849 6.98307 47.9563 6.08466C48.9121 6.53387 48.5796 7.14642 49.4939 7.63646C49.2861 8.16733 48.9121 8.1265 48.7458 8.65737C49.0783 10.25 51.1977 7.7998 51.073 9.39243C50.8237 10.005 49.9925 10.8626 50.9068 10.9851L51.5301 10.1275C52.2366 10.8217 50.7405 11.5159 51.9041 11.8426C52.1119 11.4751 51.6963 11.0667 51.9041 11.0667C52.9846 11.0667 51.7379 11.8018 52.0704 12.1693L52.8599 11.6793C53.1093 12.1693 53.2339 12.7002 53.4002 13.2719C53.5248 13.8436 53.6911 14.4153 53.8988 14.9462C54.1066 14.742 54.2728 14.4562 54.6468 14.5379C54.8131 15.2729 55.1871 15.9263 55.6858 16.5389C56.1429 17.1514 56.6831 17.764 57.2233 18.2948L56.6831 19.0707C56.6831 19.0707 57.0987 19.1524 57.2233 18.9891C57.6805 19.3974 56.7662 19.1932 56.5169 19.5608C56.5169 19.8466 57.0987 19.8058 57.2649 19.5608C57.0987 20.1325 56.9324 20.8675 56.974 21.5618C56.974 21.8885 57.0571 22.256 57.1402 22.5418C57.2233 22.8277 57.4311 23.1136 57.6805 23.3177L57.8882 23.0727C58.3869 23.7669 56.4338 24.2161 57.348 24.7879L57.4727 24.6245C57.7636 25.4004 57.7636 26.2988 57.8467 27.1155C57.8467 27.3197 57.8882 27.5239 57.9298 27.7281C57.9298 27.9323 57.9714 28.1365 58.0545 28.2998C58.1791 28.6673 58.3454 29.0349 58.6363 29.3616C58.0545 29.4841 58.1791 29.8924 58.2622 30.3008C58.3454 30.7092 58.2622 31.0767 57.4727 31.0767C58.1791 32.0568 58.5116 31.8118 58.8856 33.2819C58.9272 33.6494 57.8051 33.6903 57.5558 34.0986L58.3869 34.262L57.3896 34.7112L58.3038 35.2421L58.0129 35.6096C58.0129 35.6096 57.722 35.1604 57.4727 35.1604C57.2233 35.4462 57.2649 35.8546 57.4727 36.2221C57.6389 36.5897 57.8882 36.9164 58.096 36.9572L56.9324 38.264C57.1818 38.3048 57.348 38.2231 57.5142 38.1006C56.8909 38.509 58.4285 38.4273 57.5142 38.9173C57.348 38.754 57.0156 38.7948 56.8493 38.754C57.2233 39.2849 56.8493 40.1016 56.4338 40.6325L57.0156 40.755C56.7247 41.9393 55.6858 42.9193 55.0624 44.0628C55.0624 43.4911 54.1066 43.1235 53.8573 43.4094L54.5637 43.9811C53.9819 43.8994 54.4806 43.4502 53.6495 43.5727C53.4833 44.0219 54.356 44.3486 54.73 44.267L54.1482 44.5936C54.1482 44.5936 54.5637 44.7162 54.8546 44.8795C54.2313 44.7978 55.0209 46.2271 54.0235 46.0229L54.2313 46.1863C54.0235 46.4721 53.8573 46.6763 53.691 46.8805C53.5248 47.0847 53.317 47.248 53.1508 47.3705C52.7768 47.6564 52.4444 47.9422 52.0704 48.3506C51.4886 47.8606 51.3223 48.3098 50.6574 48.1464C50.2834 48.8407 50.1172 49.9024 49.3692 50.515C48.6212 50.6783 48.7874 50.1883 48.2472 50.0249C48.7043 50.5558 47.9147 51.1275 48.6212 51.1683C48.1225 51.495 47.8316 51.6992 47.4576 51.8626C47.2914 51.9442 47.0836 52.0259 46.8343 52.1484C46.5849 52.2301 46.294 52.3118 45.8785 52.3935C45.8785 52.0668 45.8785 51.9034 45.7122 51.7401C45.4213 51.7809 45.4213 52.3118 45.6291 52.5568H45.7122C44.7564 52.5568 44.2993 53.5369 43.7175 54.3128C43.4266 54.7211 43.1357 55.1295 42.8033 55.3745C42.6371 55.497 42.4708 55.5787 42.2631 55.6195C42.0553 55.6195 41.8475 55.6195 41.6397 55.497H41.7228L40.1852 55.3745C39.6866 55.7012 40.7255 55.7012 40.4761 56.2729C40.019 56.1504 39.6866 56.1504 39.3957 56.2321C39.1048 56.2729 38.8554 56.3954 38.6061 56.518C38.1074 56.763 37.6503 57.0488 36.9854 56.8446C36.8192 57.9881 35.9465 58.0697 35.0738 58.1514C34.6167 58.1514 34.1596 58.1514 33.7856 58.2739C33.37 58.3148 32.996 58.4781 32.7051 58.8456V58.3556C32.3311 57.9064 32.3726 58.6823 32.1233 58.8048C32.1233 58.4373 32.4142 58.3556 32.2064 58.1106C30.8351 58.0289 29.4637 58.1106 28.0092 58.4373C27.3028 58.5598 26.5548 58.6415 25.8067 58.764C25.4327 58.8048 25.0587 58.8456 24.6847 58.8865C24.3107 58.8865 23.9367 58.8865 23.5627 58.8865C22.4822 58.8048 23.4796 56.3546 21.9836 57.2122L22.1498 58.1514C21.2355 57.3755 20.2382 57.0488 19.1993 56.8038C18.2019 56.4363 17.2046 56.1096 16.4566 55.252C16.4566 55.497 16.3734 55.7421 16.5397 55.8237C15.8748 56.2321 15.0852 55.1295 15.3345 54.6395C15.0436 54.5578 15.0436 55.007 14.7528 55.1703C14.171 55.2929 14.2125 53.9452 13.6723 54.3944C13.6307 54.4353 13.6307 54.517 13.6723 54.5986C13.4645 54.2311 12.6334 54.0269 13.2152 53.5777C12.384 53.4552 12.1763 52.516 11.4282 52.516C11.636 51.6176 10.14 52.0259 10.8049 51.0458C10.0569 52.0259 9.10108 50.9642 9.1842 50.1883C9.05952 50.5558 8.60241 50.1883 8.39462 50.6783C8.02062 50.2699 7.81284 49.7799 8.31151 49.4124C7.43883 49.5757 7.27261 49.004 7.14794 48.514C7.02327 48.0239 6.94015 47.6156 6.02591 47.9831C5.90124 47.5747 5.73502 47.1664 5.61035 46.7988C5.48568 46.3905 5.40257 46.0229 5.2779 45.6554C5.15323 45.2879 5.02856 44.9203 4.90389 44.5936L4.69611 44.0628L4.52988 43.5319C4.03121 43.8586 4.15588 44.2261 4.36366 44.5528C4.52988 44.8795 4.73767 45.2062 4.15588 45.5329C4.07277 45.1654 4.03121 44.8387 3.98965 44.512C3.98965 44.1853 3.98965 43.8586 3.98965 43.5727C3.98965 42.9602 3.90654 42.4293 3.44942 41.8984C3.11697 41.6534 3.07541 42.3068 2.95074 42.511C2.82607 41.8168 2.57674 41.2042 2.28584 40.6325C2.0365 40.0608 1.74561 39.4891 1.91183 38.7948C1.78716 38.7948 1.74561 38.999 1.66249 39.1624C1.66249 38.9173 1.33004 38.6723 1.87028 38.5498L1.78717 38.8357C2.65985 38.9173 3.11697 37.4064 3.53253 37.2839C2.11961 38.1415 2.78452 36.3038 1.03915 37.4881C1.08071 37.3247 1.28849 37.0389 1.66249 36.998C1.49627 36.7938 1.24693 36.7938 0.914482 37.1205C0.914482 36.6713 1.12226 36.4671 1.28849 36.3038C1.45471 36.1405 1.57938 35.9771 1.49627 35.6096C1.24693 35.6913 1.16382 35.8546 0.872925 35.9771L0.78981 35.8546ZM8.72707 11.9651C8.72707 11.9651 9.01797 12.251 9.1842 12.3735C9.26731 12.251 9.35042 12.1693 9.47509 12.0468C9.26731 11.8835 9.01797 11.8426 8.72707 11.9243V11.9651ZM19.1162 4.69622C19.1162 4.9004 19.1577 5.10458 19.1993 5.3496C19.3655 5.30877 19.4902 5.22709 19.6564 5.18626C19.5317 5.02291 19.4071 4.85956 19.1162 4.73705V4.69622ZM22.2744 3.55279C22.2744 3.55279 22.2744 4.04283 22.3576 4.28785C22.5653 4.24701 22.7316 4.20618 22.9393 4.16534C22.7316 3.96116 22.5238 3.75697 22.2744 3.59363V3.55279ZM53.3586 14.8645C53.3586 14.8645 53.4002 15.0279 53.4833 15.1912C53.4417 15.0687 53.4002 14.9462 53.3586 14.8645ZM53.7742 15.8446C53.5248 15.9263 53.317 16.0896 53.3586 16.2122C53.4833 16.0488 53.7742 16.253 54.0651 16.3347C53.9404 16.2122 53.8573 16.0488 53.7742 15.8446Z" fill="#F82A8B"/>
<path d="M57.348 38.0599C57.348 38.0599 57.4726 37.9783 57.5558 37.9374C57.4726 37.9374 57.4311 38.0191 57.348 38.0599Z" fill="#F48E3B"/>
<path d="M24.8509 3.10345L24.934 3.02178C24.934 3.02178 24.934 3.10345 24.8509 3.10345Z" fill="#F48E3B"/>
<path d="M13.5476 54.5577C13.5476 54.5577 13.5476 54.6394 13.5891 54.6802C13.5891 54.6802 13.5891 54.5985 13.5476 54.5577Z" fill="#F48E3B"/>
<path d="M58.3869 34.262L58.1791 34.2215L58.3869 34.1399L58.3869 34.262Z" fill="#F48E3B"/>
<path d="M10.4309 9.06551C10.4309 9.06551 10.3894 8.943 10.3894 8.86132C10.3894 8.86132 10.4309 8.98383 10.4309 9.06551Z" fill="#F48E3B"/>
<path d="M12.758 6.98314L12.9658 6.53393C12.8827 6.77895 12.8412 6.90146 12.758 6.98314Z" fill="#F48E3B"/>
<path d="M14.5865 5.34917C14.5865 5.34917 14.7527 5.51251 14.7943 5.59419L14.5865 5.34917Z" fill="#F48E3B"/>
<path d="M1.62093 39.0398C1.62093 39.0398 1.62093 39.1215 1.62093 39.1623C1.53782 39.4074 1.53782 39.244 1.62093 39.0398Z" fill="#F48E3B"/>
<path d="M1.74556 27.5643C1.74556 27.5643 1.45467 27.7685 1.33 27.891C1.33 27.6868 1.33 27.5235 1.74556 27.5643Z" fill="#F48E3B"/>
<path d="M8.31156 50.6375C8.31156 50.6375 8.3115 50.6379 8.35305 50.6787L8.27 50.6784L8.31156 50.6375Z" fill="#F48E3B"/>
<path d="M1.3716 28.4222C1.3716 28.4222 1.24693 28.0547 1.3716 27.8913C1.41315 28.0547 1.49627 28.2589 1.3716 28.4222Z" fill="#F48E3B"/>
<path d="M24.6015 1.38877C24.6015 1.38877 24.6015 1.47044 24.6015 1.51128L24.4353 1.42961H24.56L24.6015 1.38877Z" fill="#F48E3B"/>
<path d="M24.6432 1.51137L24.8094 1.59304C24.8094 1.59304 24.6847 1.59304 24.6432 1.51137Z" fill="#F48E3B"/>
<path d="M25.1003 1.75563L24.8094 1.59304C24.8094 1.59304 25.0172 1.55144 25.1003 1.75563Z" fill="#F48E3B"/>
<path d="M21.3601 2.491L21.2355 2.24598C21.2355 2.24598 21.3186 2.36849 21.3601 2.491Z" fill="#F48E3B"/>
<path d="M20.4044 2.69499C20.4044 2.69499 20.82 1.95993 21.1524 2.0416L21.2355 2.24598C20.9861 1.91929 20.7368 3.10336 20.3628 2.73583L20.4044 2.69499Z" fill="#F48E3B"/>
<path d="M1.78713 22.6642C1.78713 22.6642 1.53779 22.3783 1.45467 22.2558H2.11958C2.11958 22.2558 1.87024 22.5417 1.78713 22.6642Z" fill="#F48E3B"/>
<path d="M36.623 38.8759L21.6781 30.397L36.623 20.73V16.5176L17.9517 29.2089V31.9092L36.623 43.0883V38.8759Z" fill="#F5F5F5"/>
</g>
</svg>
