<svg width="57" height="54" viewBox="0 0 57 54" fill="none" xmlns="http://www.w3.org/2000/svg">
<path d="M28.5 0C12.762 0 0 12.0903 0 27C0 41.9097 12.762 54 28.5 54C44.238 54 57 41.9097 57 27C57 12.0903 44.2112 0 28.5 0ZM38.2056 15.5193H35.3368C32.5216 15.5193 31.6369 17.1703 31.6369 18.8721V22.9106H37.9374L36.9186 29.1336H31.6369V44.1703H24.532V29.1336H18.7676V22.9106H24.532V18.1609C24.532 12.7761 27.937 9.77893 33.1115 9.77893C35.6049 9.77893 38.2056 10.2107 38.2056 10.2107V15.5193Z" fill="#FF3696"/>
</svg>
