<svg width="40" height="40" viewBox="0 0 40 40" fill="none" xmlns="http://www.w3.org/2000/svg">
<path d="M20 0.319336C8.95579 0.319336 0 9.05123 0 19.8193C0 30.5874 8.95579 39.3193 20 39.3193C31.0442 39.3193 40 30.5874 40 19.8193C40 9.05123 31.0254 0.319336 20 0.319336ZM26.8109 11.5277H24.7977C22.8222 11.5277 22.2013 12.7201 22.2013 13.9492V16.8659H26.6228L25.9078 21.3603H22.2013V32.2201H17.2154V21.3603H13.1703V16.8659H17.2154V13.4355C17.2154 9.54652 19.6049 7.38189 23.2361 7.38189C24.9859 7.38189 26.8109 7.69375 26.8109 7.69375V11.5277Z" fill="white"/>
</svg>
