<svg width="38" height="30" viewBox="0 0 38 30" fill="none" xmlns="http://www.w3.org/2000/svg">
<path d="M20.2686 21.335C21.122 21.3373 21.9502 21.6249 22.6211 22.1523C23.24 22.639 23.6888 23.3049 23.915 24.0557H37.71V26.3154H23.8945C23.6551 27.0482 23.2017 27.6939 22.5869 28.1641C21.9209 28.6733 21.106 28.9492 20.2676 28.9492C19.429 28.9492 18.6134 28.6734 17.9473 28.1641C17.3325 27.6939 16.879 27.0482 16.6396 26.3154H0.25V24.0557H16.6201C16.8464 23.3049 17.2952 22.639 17.9141 22.1523C18.585 21.6249 19.4131 21.3373 20.2666 21.335H20.2686ZM20.2676 23.5947C19.8597 23.604 19.4713 23.7721 19.1855 24.0635C18.8986 24.3561 18.7383 24.7503 18.7383 25.1602C18.7384 25.5698 18.8987 25.9633 19.1855 26.2559C19.4713 26.5473 19.8597 26.7143 20.2676 26.7236C20.6754 26.7143 21.0639 26.5473 21.3496 26.2559C21.6364 25.9633 21.7968 25.5698 21.7969 25.1602C21.7969 24.7503 21.6365 24.3561 21.3496 24.0635C21.0639 23.7721 20.6754 23.6041 20.2676 23.5947ZM9.70801 10.7744C10.5616 10.7767 11.3896 11.0652 12.0605 11.5928C12.6793 12.0793 13.1282 12.7446 13.3545 13.4951H37.71V15.7559H13.335C13.0956 16.4885 12.642 17.1344 12.0273 17.6045C11.3613 18.1138 10.5455 18.3896 9.70703 18.3896C8.86872 18.3896 8.05366 18.1137 7.3877 17.6045C6.77303 17.1344 6.31949 16.4885 6.08008 15.7559H0.25V13.4951H6.05957C6.2858 12.7447 6.73493 12.0793 7.35352 11.5928C8.02451 11.0652 8.85347 10.7767 9.70703 10.7744H9.70801ZM9.70703 13.0352C9.29935 13.0446 8.91162 13.2127 8.62598 13.5039C8.33908 13.7965 8.17777 14.1898 8.17773 14.5996C8.17772 15.0092 8.33834 15.4027 8.625 15.6953C8.91066 15.9867 9.29924 16.1546 9.70703 16.1641C10.1151 16.1549 10.5032 15.9869 10.7891 15.6953C11.076 15.4027 11.2373 15.0094 11.2373 14.5996C11.2373 14.1899 11.0759 13.7965 10.7891 13.5039C10.5032 13.2124 10.1151 13.0444 9.70703 13.0352ZM26.4922 0.25C27.3307 0.25 28.1464 0.525843 28.8125 1.03516C29.4272 1.50524 29.8807 2.15108 30.1201 2.88379H37.71V5.14355H30.1387C29.9065 5.88804 29.4545 6.54638 28.8359 7.02637C28.1656 7.54646 27.3406 7.8291 26.4922 7.8291C25.6439 7.829 24.8196 7.54637 24.1494 7.02637C23.5308 6.54639 23.0789 5.88805 22.8467 5.14355H0.25V2.88379H22.8652C23.1046 2.15108 23.5581 1.50523 24.1729 1.03516C24.8388 0.52595 25.6539 0.250103 26.4922 0.25ZM26.4922 2.47461C26.0847 2.48407 25.6967 2.6523 25.4111 2.94336C25.1242 3.23597 24.9629 3.63022 24.9629 4.04004C24.963 4.44974 25.1243 4.84319 25.4111 5.13574C25.6967 5.42693 26.0846 5.59404 26.4922 5.60352C26.9002 5.59435 27.2883 5.42718 27.5742 5.13574C27.8611 4.84318 28.0224 4.44979 28.0225 4.04004C28.0225 3.63042 27.8618 3.23693 27.5752 2.94434C27.2893 2.65271 26.9004 2.48379 26.4922 2.47461Z" fill="#534741" stroke="#534741" stroke-width="0.5"/>
</svg>
