<svg width="40" height="40" viewBox="0 0 40 40" fill="none" xmlns="http://www.w3.org/2000/svg">
<path d="M20 0C8.9555 0 0 8.9555 0 20C0 31.0445 8.9555 40 20 40C31.0445 40 40 31.0445 40 20C40 8.9555 31.0476 0 20 0ZM27.8605 25.1812C27.8605 26.0682 27.1387 26.79 26.2517 26.79C25.3647 26.79 24.6429 26.0713 24.6429 25.1812V17.6296L14.883 27.3895C14.568 27.7045 14.1581 27.8605 13.7452 27.8605C13.3323 27.8605 12.9225 27.7045 12.6074 27.3895C11.9804 26.7625 11.9804 25.744 12.6074 25.117L22.3673 15.3571H14.8157C13.9287 15.3571 13.2069 14.6383 13.2069 13.7483C13.2069 12.8582 13.9257 12.1395 14.8157 12.1395H26.2487C26.4536 12.1395 26.6524 12.1823 26.8359 12.2526C26.842 12.2526 26.8512 12.2557 26.8604 12.2588C27.2549 12.4209 27.573 12.739 27.7351 13.1335C27.7382 13.1427 27.7382 13.1519 27.7443 13.158C27.8147 13.3415 27.8575 13.5372 27.8605 13.7452V25.1782V25.1812Z" fill="#F3F2E3"/>
</svg>
