<svg width="53" height="68" viewBox="0 0 53 68" fill="none" xmlns="http://www.w3.org/2000/svg">
<path d="M28.6876 22.3827C24.5929 19.6478 17.4691 14.7137 12.7037 14.6779C2.14539 14.5971 -2.81574 29.3782 5.44281 35.1835C10.9993 39.0879 28.2848 42.2575 35.4111 42.6633C39.2486 42.8821 46.0231 43.5847 45.2683 37.7129C44.8192 34.1917 32.0084 24.6036 28.6876 22.3827Z" fill="#FF3696"/>
<path d="M10.7368 60.3584C11.9325 64.5055 16.0966 66.5943 20.2072 65.4117C23.6187 64.4275 35.9252 55.842 37.808 52.9769C42.4008 45.9806 26.4427 48.7924 23.411 49.3995C17.9074 50.4962 8.5032 52.6226 10.7364 60.3624L10.7368 60.3584Z" fill="#FF3696"/>
<path d="M32.8525 10.3277C33.7474 13.799 40.5882 23.6408 43.2233 26.3584C44.9561 28.1452 48.0216 30.5342 49.3595 27.0121C50.5023 24.0046 48.1731 8.16378 46.665 5.02215C42.6902 -3.24257 30.5777 1.47129 32.8525 10.3277Z" fill="#FF3696"/>
</svg>
