<svg width="61" height="75" viewBox="0 0 61 75" fill="none" xmlns="http://www.w3.org/2000/svg">
<path d="M29.2236 25.321C33.6492 23.1625 41.3726 19.2326 46.0994 19.8389C56.5724 21.1807 59.4978 36.4953 50.5327 41.1356C44.5011 44.2561 26.9462 45.069 19.8302 44.5115C15.9982 44.2115 9.19071 43.9955 10.7294 38.2787C11.6486 34.8501 25.6339 27.0746 29.2236 25.321Z" fill="#FF3696"/>
<path d="M41.8968 65.3683C40.1535 69.3166 35.746 70.8255 31.8321 69.1002C28.5842 67.6655 17.546 57.501 16.0662 54.4084C12.4574 46.8573 27.8914 51.7925 30.8138 52.8023C36.1196 54.6302 45.1518 58.0036 41.8966 65.3722L41.8968 65.3683Z" fill="#FF3696"/>
<path d="M26.7208 12.815C25.3666 16.1343 17.2628 24.9652 14.2857 27.3031C12.3281 28.8403 8.96874 30.7947 8.11736 27.1246C7.39001 23.9906 11.8312 8.60769 13.7486 5.69777C18.8002 -1.95639 30.1676 4.34567 26.7208 12.815Z" fill="#FF3696"/>
</svg>
