<svg width="13" height="13" viewBox="0 0 13 13" fill="none" xmlns="http://www.w3.org/2000/svg">
<g clip-path="url(#clip0_2023_2612)">
<path d="M6.49805 0.487305C2.91391 0.487305 -0.00195312 3.17918 -0.00195312 6.4873C-0.00195312 9.79543 2.91391 12.4873 6.49805 12.4873C10.0822 12.4873 12.998 9.79543 12.998 6.4873C12.998 3.17918 10.0818 0.487305 6.49805 0.487305ZM6.49805 11.4873C3.51143 11.4873 1.08138 9.24418 1.08138 6.4873C1.08138 3.73043 3.51143 1.4873 6.49805 1.4873C9.48466 1.4873 11.9147 3.73043 11.9147 6.4873C11.9147 9.24418 9.48466 11.4873 6.49805 11.4873Z" fill="#534741"/>
<path d="M7.04036 2.86963H5.95703V7.36963H8.39453V6.36963H7.04036V2.86963Z" fill="#534741"/>
</g>
<defs>
<clipPath id="clip0_2023_2612">
<rect width="13" height="12" fill="white" transform="translate(-0.00195312 0.487305)"/>
</clipPath>
</defs>
</svg>
