<svg width="41" height="41" viewBox="0 0 41 41" fill="none" xmlns="http://www.w3.org/2000/svg">
<path d="M15.0121 31.8446H25.8473C28.927 31.8446 31.4434 29.3254 31.4434 26.2421V15.3944C31.4434 12.3112 28.927 9.79199 25.8473 9.79199H15.0121C11.9324 9.79199 9.41602 12.3112 9.41602 15.3944V26.2421C9.41602 29.3254 11.9324 31.8446 15.0121 31.8446ZM27.6125 12.0856C28.4951 12.0856 29.2087 12.8 29.2087 13.6836C29.2087 14.5672 28.4951 15.2816 27.6125 15.2816C26.7299 15.2816 26.0164 14.5672 26.0164 13.6836C26.0164 12.8 26.7299 12.0856 27.6125 12.0856ZM20.5518 13.74C24.4577 13.74 27.6313 16.9173 27.6313 20.8277C27.6313 24.7381 24.4577 27.9153 20.5518 27.9153C16.6458 27.9153 13.4722 24.7381 13.4722 20.8277C13.4722 16.9173 16.6458 13.74 20.5518 13.74Z" fill="white"/>
<path d="M20.4383 40.7941C31.4614 40.7941 40.4 31.8452 40.4 20.8095C40.4 9.77383 31.4614 0.84375 20.4383 0.84375C9.41521 0.84375 0.476562 9.79263 0.476562 20.8283C0.476562 31.864 9.41521 40.8129 20.4383 40.8129V40.7941ZM6.9552 15.4327C6.9552 10.9582 10.5795 7.32981 15.0488 7.32981H25.809C30.2783 7.32981 33.9026 10.9582 33.9026 15.4327V26.2052C33.9026 30.6796 30.2783 34.308 25.809 34.308H15.0488C10.5795 34.308 6.9552 30.6796 6.9552 26.2052V15.4327Z" fill="white"/>
<path d="M20.5333 25.0206C22.8431 25.0206 24.721 23.1406 24.721 20.8282C24.721 18.5158 22.8431 16.6357 20.5333 16.6357C18.2236 16.6357 16.3457 18.5158 16.3457 20.8282C16.3457 23.1406 18.2236 25.0206 20.5333 25.0206Z" fill="white"/>
</svg>
