<svg width="57" height="57" viewBox="0 0 57 57" fill="none" xmlns="http://www.w3.org/2000/svg">
<path d="M20.5957 43.9398H35.9534C40.3184 43.9398 43.885 40.3691 43.885 35.9991V20.6239C43.885 16.2538 40.3184 12.6831 35.9534 12.6831H20.5957C16.2306 12.6831 12.6641 16.2538 12.6641 20.6239V35.9991C12.6641 40.3691 16.2306 43.9398 20.5957 43.9398ZM38.4553 15.934C39.7063 15.934 40.7177 16.9466 40.7177 18.199C40.7177 19.4514 39.7063 20.464 38.4553 20.464C37.2043 20.464 36.1929 19.4514 36.1929 18.199C36.1929 16.9466 37.2043 15.934 38.4553 15.934ZM28.4475 18.2789C33.9837 18.2789 38.4819 22.7822 38.4819 28.3248C38.4819 33.8673 33.9837 38.3706 28.4475 38.3706C22.9114 38.3706 18.4132 33.8673 18.4132 28.3248C18.4132 22.7822 22.9114 18.2789 28.4475 18.2789Z" fill="#FF3696"/>
<path d="M28.2932 56.6245C43.9169 56.6245 56.5863 43.9406 56.5863 28.2989C56.5863 12.6572 43.9169 0 28.2932 0C12.6694 0 0 12.6839 0 28.3256C0 43.9672 12.6694 56.6511 28.2932 56.6511V56.6245ZM9.18264 20.6779C9.18264 14.336 14.3196 9.19315 20.6543 9.19315H35.9054C42.2401 9.19315 47.3771 14.336 47.3771 20.6779V35.9465C47.3771 42.2885 42.2401 47.4313 35.9054 47.4313H20.6543C14.3196 47.4313 9.18264 42.2885 9.18264 35.9465V20.6779Z" fill="#FF3696"/>
<path d="M28.4198 34.2678C31.6936 34.2678 34.3553 31.6031 34.3553 28.3255C34.3553 25.048 31.6936 22.3833 28.4198 22.3833C25.146 22.3833 22.4844 25.048 22.4844 28.3255C22.4844 31.6031 25.146 34.2678 28.4198 34.2678Z" fill="#FF3696"/>
</svg>
