<svg width="344" height="92" viewBox="0 0 344 92" fill="none" xmlns="http://www.w3.org/2000/svg">
<path d="M94.4665 12.5035V49.426H82.1158V12.5035H67.1387V1.56055H109.379V12.5035H94.4665Z" fill="#FFF7EF"/>
<path d="M140.53 49.4265L137.202 41.8166H118.833L115.505 49.4265H101.936L122.802 1.55566H133.238L154.099 49.4211H140.53V49.4265ZM133.044 32.3406L127.985 20.6911L122.996 32.3406H133.044Z" fill="#FFF7EF"/>
<path d="M190.062 16.4034L177.453 17.0398C177.453 13.7769 175.468 11.5332 171.757 11.5332C168.683 11.5332 166.698 13.1351 166.698 15.7562C166.698 18.1886 168.43 19.1486 174.637 20.5616C184.113 23.1234 190.763 26.3864 190.763 34.9563C190.763 45.5811 182.571 50.1222 172.782 50.1222C161.132 50.1222 152.945 44.4269 153.01 33.9316L165.62 33.2952C165.555 36.941 168.564 39.4381 172.787 39.4381C176.05 39.4381 178.164 38.3487 178.164 35.5981C178.164 33.2304 175.538 31.8228 170.037 30.4098C161.332 28.1715 154.105 25.5504 154.105 16.1391C154.105 7.88739 159.8 0.84375 171.509 0.84375C182.582 0.84375 189.938 6.6685 190.067 16.3926" fill="#FFF7EF"/>
<path d="M219.304 12.5035V49.426H206.959V12.5035H191.977V1.56055H234.217V12.5035H219.304Z" fill="#FFF7EF"/>
<path d="M249.509 12.5035V19.6658H265.764V30.3553H249.509V38.483H268.574V49.426H237.158V1.56055H268.515V12.5035H249.509Z" fill="#FFF7EF"/>
<path d="M130.21 77.1107C129.546 78.1516 128.651 79.4352 127.524 80.9669C126.386 82.4986 125.129 83.9764 123.738 85.3948C122.341 86.8132 120.847 88.0267 119.24 89.0407C117.633 90.0546 116.031 90.5616 114.424 90.5616C113.48 90.5616 112.585 90.4214 111.738 90.1355C110.886 89.8497 110.131 89.4236 109.467 88.8573C108.804 88.291 108.286 87.5629 107.914 86.6676C107.536 85.7723 107.369 84.7045 107.423 83.4802C107.461 82.2991 107.633 81.1233 107.914 79.9422C108.2 78.7611 108.572 77.499 109.047 76.1561C109.516 74.8132 110.071 73.3354 110.713 71.7336C111.349 70.1318 112.088 68.3358 112.94 66.3511C113.318 65.4073 113.647 64.5066 113.933 63.6598C114.219 62.8131 114.359 62.058 114.359 61.3947C114.359 60.9255 114.057 60.8014 113.469 61.0387C112.881 61.276 111.9 61.961 110.53 63.0936C108.885 64.6037 107.342 66.0868 105.929 67.5538C104.511 69.0208 103.119 70.6442 101.749 72.4347C101 74.0419 100.282 75.7894 99.6298 77.677C99.015 79.5647 98.4703 81.5602 97.9957 83.6582C97.5265 85.7616 97.219 87.8973 97.0788 90.0654C97.0788 90.5346 96.7229 90.7234 96.0163 90.6317C95.3098 90.5346 94.5386 90.3135 93.7134 89.9575C92.8882 89.607 92.1224 89.1593 91.4105 88.6146C90.7039 88.0699 90.3264 87.5629 90.2779 87.0937C90.4181 83.793 91.0222 80.4761 92.0846 77.1431C93.1471 73.8154 94.3606 70.4069 95.7305 66.9174C96.437 65.1214 96.9602 63.6383 97.2838 62.4518C97.6181 61.276 97.6613 60.5695 97.424 60.3322C96.8577 60.4293 95.5148 61.3515 93.3898 63.0936C91.7341 64.5605 90.2293 66.0275 88.8594 67.5214C87.4895 69.01 86.0711 70.6442 84.6095 72.4347C83.3799 75.2231 82.3443 78.0761 81.4922 81.0047C80.6455 83.9278 80.0954 86.9481 79.8634 90.0654C79.8149 90.4915 79.4374 90.6533 78.7308 90.5616C78.0243 90.4645 77.2639 90.2434 76.4657 89.8874C75.6621 89.5315 74.907 89.1 74.1951 88.5769C73.4886 88.0591 73.1164 87.5629 73.0625 87.0883C73.2567 83.5503 73.9254 80.0447 75.0796 76.5714C76.2391 73.1035 77.4742 69.5979 78.801 66.0599C79.4589 64.4095 80.1061 62.7106 80.7425 60.9632C81.3789 59.2158 81.983 57.3119 82.5493 55.2301C83.1156 54.9497 83.8922 54.9335 84.8846 55.1924C85.877 55.4567 86.8154 55.8665 87.7107 56.4328C88.6114 56.9991 89.3394 57.6841 89.9057 58.4877C90.4774 59.2913 90.6123 60.0949 90.3318 60.8931H90.4073C90.4073 60.9902 90.3857 61.0603 90.3318 61.1088C92.0792 59.4531 93.9453 58.0508 95.9247 56.8967C97.9094 55.7425 99.9858 55.0899 102.154 54.9551C102.726 54.9551 103.346 55.1546 104.036 55.5537C104.716 55.9582 105.341 56.4544 105.908 57.0423C106.474 57.6302 106.9 58.2612 107.18 58.9191C107.466 59.5825 107.515 60.1704 107.321 60.6881C107.224 60.8284 107.17 60.9686 107.143 61.1142C107.121 61.2544 107.062 61.3731 106.965 61.4648C108.755 59.7659 110.697 58.2935 112.773 57.0423C114.85 55.791 117.023 55.0953 119.283 54.9551C119.806 54.9551 120.389 55.1546 121.052 55.5537C121.71 55.9582 122.314 56.4544 122.859 57.0423C123.403 57.6302 123.824 58.2612 124.132 58.9191C124.439 59.5825 124.493 60.1704 124.31 60.6881C123.501 62.9587 122.702 65.0297 121.899 66.9174C121.095 68.805 120.389 70.4284 119.779 71.7983C119.213 72.9795 118.717 74.0905 118.291 75.1314C117.865 76.1669 117.487 77.2078 117.153 78.2433C116.824 79.2788 116.543 80.3413 116.306 81.4307C116.069 82.5094 115.907 83.6959 115.81 84.9687C115.761 85.206 115.81 85.4649 115.95 85.7508C116.09 86.0312 116.419 86.0582 116.942 85.8209C118.269 85.206 119.822 84.0842 121.618 82.4555C123.409 80.8267 125.275 78.5993 127.211 75.7624C127.637 75.153 128.085 74.4303 128.554 73.6051C129.029 72.7799 129.519 71.9008 130.043 70.9516L130.819 69.7489C131.105 69.3713 131.483 69.134 131.957 69.0424C132.426 68.9507 132.863 68.9615 133.268 69.0801C133.662 69.1988 133.947 69.4199 134.109 69.7543C134.276 70.0887 134.217 70.4878 133.931 70.957C133.322 71.9925 132.691 73.0226 132.06 74.0311C131.423 75.0505 130.792 76.0752 130.183 77.1161" fill="#FFF7EF"/>
<path d="M156.188 64.4352C154.155 68.1189 151.442 71.193 148.049 73.674C144.652 76.1495 140.828 78.0048 136.583 79.229V79.8007C136.583 81.3109 136.88 82.7832 137.473 84.2178C138.061 85.6578 138.994 86.5909 140.267 87.0169C141.162 87.2057 142.252 87.1248 143.524 86.7689C144.797 86.4183 146.146 85.7765 147.559 84.8596C148.977 83.9374 150.439 82.7347 151.949 81.2515C153.459 79.763 154.92 77.9832 156.339 75.9068C157.089 74.8227 157.779 73.7602 158.394 72.7193C159.009 71.6838 159.575 70.6915 160.093 69.7476C160.378 69.3701 160.756 69.1328 161.225 69.0411C161.694 68.944 162.137 68.9548 162.53 69.0735C162.935 69.1921 163.215 69.4186 163.383 69.7476C163.544 70.0766 163.49 70.4757 163.205 70.9503L161.862 73.1454C160.729 74.9845 159.332 77.0502 157.687 79.3369C156.031 81.6291 154.025 83.8834 151.663 86.1001C150.347 87.2327 149.02 88.1064 147.699 88.7212C146.377 89.3361 145.115 89.7945 143.913 90.1019C142.705 90.4093 141.61 90.5819 140.623 90.6358C139.625 90.679 138.854 90.706 138.288 90.706C134.787 90.706 132.08 89.8592 130.144 88.1549C128.207 86.4614 127.172 84.1423 127.026 81.2192C126.935 78.5279 127.431 75.8744 128.515 73.2533C129.599 70.6321 131.346 67.7198 133.757 64.5107C134.507 63.5184 135.537 62.4343 136.831 61.2532C138.131 60.0721 139.598 58.9988 141.227 58.0334C142.856 57.068 144.592 56.2752 146.431 55.6604C148.271 55.0509 150.11 54.7651 151.949 54.8136C153.745 54.8622 155.179 55.3314 156.269 56.232C157.353 57.1273 157.898 58.3085 157.898 59.77C157.898 61.1399 157.331 62.6932 156.193 64.4406M151.938 58.4163C150.099 58.7939 148.341 59.6838 146.663 61.0752C144.986 62.4667 143.503 64.0793 142.203 65.9238C140.903 67.7629 139.798 69.6721 138.881 71.6569C137.959 73.6416 137.311 75.3836 136.928 76.8991C140.326 75.718 143.406 73.9598 146.167 71.6245C148.934 69.2892 151.21 66.42 153 63.0222C153.378 62.1701 153.567 61.3179 153.567 60.4712C153.567 59.7647 153.437 59.2199 153.178 58.8424C152.92 58.4649 152.504 58.3246 151.938 58.4163ZM162.417 38.1699C162.606 37.9812 162.924 38.1106 163.372 38.5582C163.819 39.0059 164.245 39.5506 164.645 40.1816C165.044 40.818 165.373 41.4598 165.637 42.0962C165.896 42.7326 165.934 43.1479 165.745 43.3367C163.949 44.658 162.347 45.7313 160.929 46.5565C159.51 47.3817 158.07 48.1745 156.614 48.9295H156.684L153.853 50.4882H153.923C153.308 50.8657 152.682 50.9844 152.046 50.8388C151.409 50.6985 151.237 50.3695 151.517 49.8464L162.417 38.1645V38.1699Z" fill="#FFF7EF"/>
<path d="M194.833 75.8305C194.498 76.3483 194.159 76.8822 193.808 77.4215C193.457 77.9663 193.112 78.5002 192.783 79.0179C191.937 80.3824 191.036 81.7685 190.097 83.1546C189.148 84.5515 188.123 85.7973 187.012 86.9083C185.901 88.014 184.699 88.9146 183.404 89.5942C182.105 90.2791 180.681 90.5704 179.122 90.4841C178.27 90.4355 177.477 90.1389 176.749 89.5942C176.016 89.0549 175.331 88.343 174.694 87.4692C174.052 86.6009 173.464 85.5762 172.925 84.3897C172.375 83.2139 171.868 81.9411 171.404 80.5712C168.195 82.8849 164.938 84.9721 161.632 86.8328C158.331 88.6989 155.052 90.1982 151.794 91.3308H152.005C151.584 91.6113 151.109 91.7785 150.592 91.8216C150.074 91.8702 149.626 91.8378 149.249 91.7191C148.871 91.6005 148.612 91.4225 148.467 91.1852C148.326 90.9533 148.423 90.6675 148.752 90.3385C152.199 88.8283 155.737 86.9299 159.372 84.6432C163.007 82.351 166.642 79.7946 170.277 76.9631C169.662 74.7411 169.128 72.5136 168.681 70.27C168.233 68.0318 167.845 66.0093 167.51 64.2188C166.804 65.4916 165.979 66.8129 165.035 68.1828L162.273 72.5676C162.085 72.8049 161.766 72.9451 161.319 72.9936C160.866 73.0422 160.456 73.0206 160.078 72.9235C159.701 72.8265 159.393 72.6701 159.156 72.4597C158.919 72.2494 158.919 72.0013 159.156 71.7208H159.081C159.604 70.6368 160.299 69.3855 161.173 67.9725C162.047 66.5594 162.953 65.0493 163.897 63.4421L167.861 56.7167C168.147 56.2475 168.627 55.7837 169.317 55.336C169.997 54.8884 170.768 54.6619 171.615 54.6619C172.796 54.6619 173.691 55.1796 174.306 56.2205C175.298 62.3041 176.215 67.4062 177.067 71.5105C180.276 68.7761 183.318 65.977 186.198 63.1239C189.078 60.2655 191.726 57.4718 194.126 54.7374H194.202C194.531 54.4084 194.876 54.3275 195.226 54.4947C195.582 54.6565 195.884 54.9423 196.149 55.3414C196.408 55.7405 196.575 56.2043 196.639 56.7221C196.715 57.2398 196.677 57.6659 196.532 57.9949C193.981 60.6862 191.138 63.5392 187.999 66.5648C184.861 69.5797 181.522 72.5568 177.984 75.4799C179.446 81.8063 180.864 84.9883 182.229 85.0369C182.606 85.0854 183.059 84.929 183.577 84.5784C184.095 84.2225 184.65 83.7533 185.243 83.16C185.831 82.5721 186.446 81.9088 187.083 81.1753C187.719 80.4472 188.328 79.6759 188.889 78.8723C189.17 78.5002 189.466 78.0849 189.774 77.6319C190.081 77.1842 190.448 76.6179 190.874 75.9384C191.3 75.2534 191.829 74.4175 192.465 73.4251C193.101 72.4273 193.873 71.2031 194.763 69.7415C194.908 69.5042 195.178 69.3747 195.582 69.3532C195.981 69.3262 196.37 69.3855 196.753 69.5312C197.125 69.6714 197.438 69.8601 197.67 70.0974C197.907 70.3294 197.955 70.6152 197.81 70.9442L194.838 75.8251L194.833 75.8305Z" fill="#FFF7EF"/>
<path d="M201.559 54.8847C202.077 54.6474 202.751 54.6474 203.576 54.8847C204.407 55.1166 205.194 55.5103 205.949 56.0496C206.699 56.5944 207.325 57.2523 207.826 58.0344C208.317 58.811 208.5 59.5769 208.355 60.3373L205.804 65.0079C205.097 66.2376 204.315 67.6021 203.468 69.1122C202.616 70.6223 201.791 72.1486 200.987 73.6803C200.184 75.212 199.429 76.7113 198.722 78.1783C198.016 79.6399 197.46 80.9451 197.056 82.1046C196.651 83.2642 196.441 84.1918 196.419 84.9037C196.392 85.6103 196.667 85.9608 197.228 85.9608H197.8C199.116 85.4916 200.432 84.7473 201.732 83.728C203.026 82.7141 204.283 81.5491 205.48 80.2278C206.683 78.9064 207.837 77.5311 208.948 76.0857C210.054 74.6457 211.084 73.265 212.028 71.9491L213.085 70.4605C213.273 70.2286 213.581 70.0938 214.007 70.0722C214.433 70.0506 214.821 70.0992 215.177 70.2124C215.533 70.3311 215.803 70.5252 215.992 70.7787C216.18 71.043 216.132 71.3396 215.851 71.6686H215.927C214.039 74.5918 212.006 77.3747 209.832 80.0228C207.664 82.6655 205.113 85.1518 202.19 87.4817C201.813 87.7676 201.338 88.102 200.772 88.4849C200.205 88.8678 199.569 89.213 198.862 89.5258C198.151 89.8386 197.385 90.1029 196.56 90.3186C195.734 90.529 194.893 90.6422 194.046 90.6422C192.347 90.5937 191.096 90.0543 190.293 89.0242C189.494 87.9941 189.09 86.7429 189.09 85.2597C189.09 84.084 189.327 82.7626 189.796 81.2956H189.726C189.958 80.4004 190.309 79.3487 190.783 78.146C191.258 76.9433 191.786 75.6543 192.374 74.2844C192.962 72.9199 193.604 71.5068 194.284 70.0345C194.969 68.5729 195.664 67.1113 196.376 65.6443C197.32 63.6164 198.215 61.6802 199.062 59.8411C199.909 58.002 200.594 56.3517 201.117 54.8901H201.543L201.559 54.8847ZM208.57 35.4095C209.083 35.3178 209.762 35.5282 210.587 36.0459C211.413 36.5637 212.216 37.1893 212.993 37.9174C213.77 38.6509 214.438 39.3844 214.978 40.1125C215.517 40.846 215.792 41.3529 215.792 41.6334C215.603 42.3884 215.263 43.2622 214.767 44.2545C214.271 45.2469 213.764 46.2393 213.246 47.2262C212.777 48.1701 212.324 49.1031 211.903 50.0253C211.477 50.9476 211.1 51.9723 210.765 53.1049C210.253 53.0132 209.671 52.7651 209.034 52.366C208.398 51.9615 207.805 51.5031 207.265 50.9853C206.726 50.4622 206.262 49.9498 205.885 49.4267C205.507 48.9089 205.318 48.4829 205.318 48.1539C205.367 47.3557 205.496 46.4712 205.707 45.5004C205.917 44.535 206.165 43.5049 206.445 42.4262C206.78 41.2451 207.071 40.0531 207.33 38.8504C207.594 37.6477 207.767 36.5044 207.864 35.4149H208.57V35.4095ZM208.214 60.8982L208.355 60.402C208.732 59.7441 208.926 59.3773 208.959 59.3072C208.98 59.2371 208.732 59.7656 208.214 60.8982Z" fill="#FFF7EF"/>
<path d="M244.316 73.1466C243.184 74.9858 241.792 77.0514 240.137 79.3435C238.486 81.6357 236.48 83.8847 234.123 86.1013C232.802 87.2393 231.48 88.1076 230.159 88.7225C228.838 89.3373 227.576 89.7957 226.373 90.1031C225.17 90.4106 224.07 90.5832 223.078 90.6317C222.085 90.6802 221.309 90.7072 220.742 90.7072C217.247 90.7072 214.535 89.8551 212.604 88.1562C210.668 86.4573 209.632 84.1436 209.487 81.215C209.389 78.5292 209.886 75.8703 210.975 73.2491C212.059 70.6334 213.807 67.721 216.212 64.5066C216.967 63.5142 217.992 62.4302 219.292 61.2544C220.586 60.0733 222.053 59 223.682 58.0346C225.31 57.0693 227.047 56.2764 228.886 55.6616C230.725 55.0522 232.57 54.7663 234.404 54.8149C236.199 54.8634 237.613 55.3326 238.653 56.2279C239.689 57.1286 240.207 58.2827 240.207 59.6958C240.207 60.9255 239.759 62.2684 238.864 63.73C238.486 64.156 238.076 64.4581 237.623 64.6522C237.176 64.841 236.755 64.9219 236.351 64.9003C235.951 64.8733 235.644 64.7385 235.428 64.4742C235.218 64.21 235.153 63.8486 235.256 63.374C235.536 62.8563 235.736 62.3331 235.854 61.8153C235.973 61.303 236.027 60.823 236.027 60.4023C236.027 59.7389 235.897 59.2212 235.639 58.8436C235.38 58.4715 234.964 58.3313 234.398 58.4176C232.559 58.7951 230.801 59.6796 229.129 61.0711C227.452 62.4625 225.968 64.0805 224.663 65.9196C223.369 67.7641 222.258 69.6734 221.336 71.6581C220.419 73.6428 219.766 75.3849 219.394 76.895C219.151 77.8388 219.038 78.8096 219.038 79.7966C219.038 81.3067 219.329 82.7791 219.923 84.2245C220.51 85.6645 221.443 86.5975 222.716 87.0182C223.617 87.207 224.701 87.1261 225.974 86.7701C227.247 86.4141 228.595 85.7777 230.008 84.8609C231.426 83.9386 232.888 82.7359 234.393 81.2474C235.903 79.7588 237.364 77.979 238.788 75.9026C239.538 74.824 240.228 73.7561 240.838 72.7152C241.453 71.6797 242.019 70.6873 242.542 69.7435C242.822 69.366 243.2 69.134 243.675 69.037C244.144 68.9453 244.581 68.9561 244.98 69.0747C245.379 69.1934 245.665 69.4199 245.832 69.7489C245.994 70.0833 245.934 70.4824 245.659 70.9516L244.311 73.1466H244.316Z" fill="#FFF7EF"/>
<path d="M263.15 54.6697C264.326 54.8099 265.339 55.0957 266.192 55.5218C267.038 55.9479 267.734 56.4656 268.279 57.0805C268.818 57.6899 269.223 58.3749 269.481 59.1299C269.74 59.885 269.918 60.64 270.015 61.4005C270.911 62.3929 271.477 63.7574 271.714 65.4994C271.757 65.8338 271.795 66.1628 271.822 66.4971C271.844 66.8261 271.86 67.1821 271.86 67.5542C271.86 69.3017 271.612 71.0707 271.121 72.8666C270.625 74.6572 269.929 76.4046 269.034 78.1035C268.133 79.8024 267.071 81.3934 265.846 82.882C264.617 84.3705 263.285 85.6811 261.845 86.8137C260.405 87.9463 258.9 88.8308 257.314 89.4672C255.729 90.1036 254.116 90.4218 252.466 90.4218C249.586 90.3732 247.04 89.4887 244.818 87.7629C242.596 86.0424 241.091 83.5993 240.288 80.4388C240.056 79.3979 239.932 78.4055 239.932 77.4617C239.932 74.8675 240.595 72.1763 241.916 69.3933C243.238 66.605 244.996 64.081 247.191 61.8212C249.386 59.556 251.862 57.7384 254.623 56.3739C257.379 55.004 260.227 54.4377 263.155 54.6697M261.586 68.8972C261.3 68.8001 261.079 68.579 260.912 68.223C260.75 67.867 260.631 67.4571 260.556 66.9825C260.485 66.5133 260.448 66.0387 260.448 65.5641V64.2913C260.496 63.9138 260.707 63.5254 261.084 63.1263C261.462 62.7272 261.877 62.3605 262.325 62.0261C262.772 61.6971 263.22 61.4005 263.668 61.1416C264.115 60.8773 264.406 60.7048 264.552 60.6077C264.978 60.3704 265.377 60.2301 265.755 60.1816C265.706 59.5182 265.496 58.9519 265.118 58.4827C264.741 58.0135 264.013 57.8247 262.929 57.9164C261.985 58.0135 260.841 58.4072 259.493 59.1191C258.15 59.831 256.883 60.7749 255.707 61.9506H255.777C254.688 63.04 253.711 64.2751 252.838 65.672C251.964 67.0634 251.225 68.5034 250.61 69.9866C249.996 71.4751 249.51 72.9691 249.16 74.4792C248.804 75.9893 248.626 77.4078 248.626 78.7291C248.626 80.7139 249.014 82.3912 249.796 83.7557C250.573 85.1202 251.835 85.8537 253.582 85.9454C255.329 86.0424 257.05 85.406 258.749 84.0361C260.448 82.6662 261.969 80.9458 263.312 78.8693C264.66 76.7929 265.744 74.5655 266.564 72.1817C267.394 69.7978 267.777 67.6136 267.734 65.6288C267.734 64.6904 267.637 64.1187 267.454 63.9353C267.028 63.9353 266.553 64.1079 266.041 64.4639C265.523 64.8198 265.021 65.2405 264.552 65.7367C264.083 66.2329 263.668 66.7668 263.312 67.3331C262.956 67.8994 262.751 68.4172 262.713 68.8864H261.575L261.586 68.8972Z" fill="#FFF7EF"/>
<path d="M4.75391 31.5908C4.75391 31.5908 12.9625 30.3988 23.3823 34.9993C29.1046 37.5234 35.2638 42.9598 41.6224 48.5634C59.5713 64.3766 65.8599 56.0709 65.8599 56.0709C65.8599 56.0709 59.9596 58.3523 50.3164 52.1284C40.6732 45.8992 31.8552 36.3746 23.9864 32.815C16.1176 29.2555 4.7593 31.5961 4.7593 31.5961" fill="#FFF7EF"/>
<path d="M60.053 60.4713C60.1879 60.7032 60.4845 60.7787 60.7164 60.6439C60.9483 60.5091 61.0184 60.2124 60.889 59.9805C60.7542 59.7486 60.4575 59.6731 60.2256 59.8079C59.9937 59.9428 59.9182 60.2394 60.053 60.4713Z" fill="#FFF7EF"/>
<path d="M58.6195 54.4152C58.7543 54.6471 59.0509 54.7226 59.2828 54.5878C59.5147 54.453 59.5848 54.1564 59.4554 53.9298C59.3206 53.6979 59.0239 53.617 58.792 53.7519C58.5601 53.8921 58.4846 54.1833 58.6195 54.4152Z" fill="#FFF7EF"/>
<path d="M63.1981 59.0948C63.3059 59.2836 63.5486 59.3429 63.7374 59.235C63.9262 59.1272 63.9855 58.8899 63.8776 58.6957C63.7698 58.5069 63.5271 58.4476 63.3383 58.5555C63.1495 58.6634 63.0902 58.9061 63.1981 59.0948Z" fill="#FFF7EF"/>
<path d="M62.3211 54.8897C62.429 55.0785 62.6717 55.1378 62.8604 55.03C63.0492 54.9221 63.1085 54.6848 63.0007 54.4906C62.8928 54.3019 62.6501 54.2425 62.4613 54.3504C62.2726 54.4583 62.2132 54.701 62.3211 54.8897Z" fill="#FFF7EF"/>
<path d="M55.606 60.2989C55.7948 60.6224 56.2101 60.7303 56.5283 60.5362C56.8519 60.3474 56.9543 59.9375 56.771 59.6139C56.5822 59.2903 56.1669 59.1824 55.8433 59.3712C55.5197 59.56 55.4173 59.9753 55.606 60.2935" fill="#FFF7EF"/>
<path d="M54.6534 53.0225C54.8422 53.3461 55.2575 53.4539 55.5757 53.2598C55.8993 53.071 56.0018 52.6611 55.8184 52.3375C55.6296 52.0139 55.2143 51.9061 54.8961 52.0948C54.5725 52.2836 54.4647 52.6989 54.6534 53.0171" fill="#FFF7EF"/>
<path d="M51.1822 58.8155C51.4034 59.1822 51.8726 59.3063 52.2393 59.0906C52.6061 58.8748 52.7301 58.4002 52.5144 58.0335C52.2987 57.6667 51.824 57.5427 51.4573 57.7584C51.0906 57.9741 50.9665 58.4434 51.1822 58.8155Z" fill="#FFF7EF"/>
<path d="M50.4381 50.3272C50.6538 50.694 51.1284 50.818 51.4952 50.6023C51.8619 50.3865 51.986 49.9119 51.7702 49.5452C51.5491 49.1784 51.0799 49.0544 50.7132 49.2701C50.3464 49.4859 50.2224 49.9551 50.4381 50.3272Z" fill="#FFF7EF"/>
<path d="M46.6439 56.8039C46.8974 57.2408 47.4637 57.3864 47.9005 57.1275C48.3374 56.874 48.483 56.3077 48.2241 55.8763C47.9706 55.4394 47.4043 55.2938 46.9675 55.5473C46.5306 55.8062 46.385 56.3671 46.6439 56.8039Z" fill="#FFF7EF"/>
<path d="M46.0618 47.4573C46.3153 47.8941 46.8816 48.0397 47.3185 47.7809C47.7553 47.5274 47.9009 46.9611 47.6421 46.5296C47.3886 46.0928 46.8223 45.9471 46.3854 46.2006C45.9486 46.4595 45.803 47.0204 46.0618 47.4573Z" fill="#FFF7EF"/>
<path d="M42.7161 53.9475C42.9696 54.3843 43.5359 54.53 43.9728 54.2711C44.4096 54.0176 44.5552 53.4513 44.2964 53.0198C44.0429 52.583 43.4766 52.4374 43.0397 52.6909C42.6029 52.9497 42.4573 53.5106 42.7161 53.9475Z" fill="#FFF7EF"/>
<path d="M38.8314 50.5158C39.0849 50.9527 39.6512 51.0983 40.088 50.8394C40.5249 50.586 40.6705 50.0197 40.4116 49.5882C40.1581 49.1513 39.5918 49.0057 39.155 49.2592C38.7181 49.5181 38.5725 50.079 38.8314 50.5158Z" fill="#FFF7EF"/>
<path d="M34.0677 46.0178C34.3212 46.4547 34.8875 46.6003 35.3243 46.3414C35.7612 46.0879 35.9068 45.5216 35.6479 45.0902C35.3944 44.6533 34.8282 44.5077 34.3913 44.7612C33.9544 45.0147 33.8088 45.5809 34.0677 46.0178Z" fill="#FFF7EF"/>
<path d="M23.0549 40.9208C21.3883 40.608 19.6733 40.279 17.9366 40.3815C16.8472 40.4516 13.1204 41.8377 11.2436 46.4651C11.1141 46.7779 10.9793 47.6031 11.4917 48.0346C11.7667 48.2611 12.5703 47.8512 12.9047 47.5977C13.9618 46.8103 15.6553 44.955 21.5717 43.6337C27.9196 42.2152 31.8729 43.1698 32.5417 43.008C32.8976 42.7653 32.8437 42.5011 32.6441 42.3015C32.3799 42.0372 27.116 38.6988 26.129 38.564C25.0234 38.1379 21.1996 38.6557 22.7313 40.5972L23.0549 40.9262V40.9208Z" fill="#FFF7EF"/>
<path d="M33.0083 32.3674C32.3126 30.9112 31.5791 29.4118 31.2501 27.7885C31.0398 26.7637 31.4011 23.0046 35.1872 20.13C35.4515 19.9304 36.1742 19.6014 36.6973 19.9682C36.9724 20.1677 36.7944 21.0037 36.6488 21.3758C36.1796 22.5408 34.896 24.5579 35.1387 30.3287C35.3975 36.5256 37.2528 39.918 37.269 40.5759C37.1288 40.9643 36.8753 40.9804 36.6488 40.8402C36.336 40.6622 31.9674 36.6496 31.6007 35.7705C30.9319 34.8591 30.4681 31.2132 32.6308 32.1462L33.0137 32.3674H33.0083Z" fill="#FFF7EF"/>
<path d="M25.1305 28.3609C24.3215 27.2931 23.4855 26.2036 22.9408 24.9416C22.6064 24.1434 22.2721 21.0368 24.8662 18.0813C25.0442 17.8764 25.5781 17.4934 26.0581 17.7038C26.3224 17.817 26.3116 18.5236 26.2523 18.8526C26.0689 19.8719 25.3624 21.7218 26.5166 26.36C27.757 31.3326 29.8227 33.7758 29.9413 34.3097C29.8928 34.6441 29.6878 34.698 29.4829 34.6333C29.2024 34.5362 24.9957 32.0068 24.5534 31.3596C23.8577 30.734 22.8815 27.8594 24.7853 28.2531L25.1305 28.3663V28.3609Z" fill="#FFF7EF"/>
<path d="M16.9974 27.1306C16.2261 26.6075 15.4279 26.0735 14.7915 25.3616C14.3924 24.914 13.4755 22.9346 14.5326 20.3998C14.6081 20.2218 14.867 19.8497 15.2337 19.8874C15.4333 19.9036 15.5843 20.3782 15.6167 20.6047C15.7245 21.322 15.6652 22.6973 17.4666 25.5019C19.392 28.5113 21.3066 29.6655 21.5007 29.9891C21.5439 30.221 21.4198 30.3019 21.2688 30.3019C21.0585 30.3019 17.7201 29.5684 17.2832 29.2394C16.6899 28.9805 15.3902 27.2978 16.7439 27.136H16.9974V27.1306Z" fill="#FFF7EF"/>
<path d="M8.93998 27.493C8.08784 27.1263 7.20334 26.7541 6.43749 26.1717C5.95749 25.8103 4.69007 24.0413 5.24558 21.3555C5.28333 21.1667 5.47749 20.7514 5.83884 20.7137C6.033 20.6921 6.27569 21.1289 6.3512 21.3447C6.5885 22.0296 6.79884 23.3887 9.09099 25.8049C11.5503 28.3991 13.6483 29.1649 13.9018 29.4508C13.9881 29.6719 13.8856 29.7744 13.7346 29.8067C13.5351 29.8445 10.1157 29.7582 9.61953 29.5155C8.98313 29.3753 7.3975 27.9676 8.68649 27.5524L8.93998 27.5038V27.493Z" fill="#FFF7EF"/>
<path d="M13.6639 37.1404C12.0944 37.2321 10.4765 37.3184 8.93936 37.7984C7.97396 38.1004 4.94294 40.1768 4.28495 44.7504C4.23641 45.0686 4.29574 45.8398 4.85664 46.1095C5.15867 46.2497 5.78429 45.7104 6.03238 45.4029C6.79823 44.4591 7.90925 42.4151 12.9358 39.9126C18.3183 37.2159 22.0828 37.1997 22.6491 36.8977C22.9134 36.5957 22.8055 36.38 22.5844 36.2451C22.2824 36.0672 16.819 34.2388 15.8967 34.3413C14.8073 34.2011 11.4904 35.5224 13.3025 36.9247L13.6693 37.1458L13.6639 37.1404Z" fill="#FFF7EF"/>
<path d="M5.82475 34.8923C4.7461 35.1026 3.62429 35.3076 2.60496 35.7822C1.95776 36.0788 0.037753 37.7993 0 41.0406C0 41.2618 0.107866 41.7957 0.517756 41.9305C0.738881 42.006 1.1272 41.5638 1.26742 41.3319C1.71507 40.6038 2.30293 39.0883 5.56588 36.8824C9.06612 34.5255 11.6765 34.1642 12.0432 33.8999C12.1996 33.668 12.1025 33.5224 11.9354 33.4523C11.7088 33.3552 7.74476 32.5893 7.11375 32.7404C6.33712 32.7404 4.15283 33.9646 5.5443 34.7736L5.81936 34.8923H5.82475Z" fill="#FFF7EF"/>
<path d="M54.582 46.5586C54.582 46.5586 48.013 40.448 49.7927 31.247C51.7074 21.3341 50.3914 17.9256 49.5177 15.0078C49.5177 15.0078 49.8413 18.8317 49.3073 23.8366C49.0377 26.3661 48.1748 29.8501 47.9105 31.9859C46.9559 39.7846 50.03 43.7756 54.5766 46.5586" fill="#FFF7EF"/>
<path d="M49.0182 13.8738C47.9827 12.9138 46.7692 11.6302 45.5449 10.8967C44.8168 10.4598 40.9552 9.6023 40.6424 10.4706C40.2595 11.5493 43.5278 13.2536 44.1804 13.4855C46.6128 14.3646 48.0258 14.3268 48.7809 14.4239C48.7809 14.0841 49.0182 13.8684 49.0182 13.8684" fill="#FFF7EF"/>
<path d="M49.9355 14.9454C51.2461 15.4631 52.8479 16.229 54.2502 16.4663C55.0807 16.6065 58.9963 16.0133 58.9747 15.0856C58.9423 13.9476 55.2749 13.5431 54.5792 13.5539C52.0012 13.6186 50.6906 14.1634 49.9625 14.3467C50.0812 14.6649 49.9355 14.9508 49.9355 14.9508" fill="#FFF7EF"/>
<path d="M49.9215 14.3197C51.739 13.953 54.9102 11.9521 56.0482 10.8626C56.9813 9.97274 57.677 7.77767 57.3318 7.37317C56.8249 6.77991 54.1336 8.40869 53.7345 8.69453C52.6019 9.51431 50.4824 12.9498 49.668 14.0069L49.9161 14.3143L49.9215 14.3197Z" fill="#FFF7EF"/>
<path d="M49.6844 13.9429C50.8548 12.5082 52.0683 9.00261 52.2732 7.4817C52.4458 6.23046 51.6368 4.17022 51.1245 4.09471C50.3748 3.98685 49.3069 6.90462 49.1721 7.36844C48.7999 8.70058 49.28 12.5784 49.3069 13.8674L49.6844 13.9375V13.9429Z" fill="#FFF7EF"/>
<path d="M49.2434 13.8471C49.3944 12.0026 48.4129 8.4322 47.7225 7.05691C47.1562 5.92432 45.3171 4.68926 44.8533 4.91578C44.1683 5.25016 44.9396 8.26501 45.1014 8.72344C45.5436 10.0286 48.1378 12.9518 48.8982 14.0035L49.2434 13.8471Z" fill="#FFF7EF"/>
<path d="M48.7511 14.4732C46.9821 13.9123 43.2823 14.0795 41.7884 14.4409C40.5587 14.7429 38.9461 16.2584 39.0648 16.76C39.2374 17.4989 42.3493 17.418 42.8293 17.3694C44.1992 17.2238 47.6293 15.3523 48.8266 14.8508L48.7511 14.4732Z" fill="#FFF7EF"/>
<path d="M48.8937 14.7158C47.114 15.2174 44.1099 17.3909 43.0636 18.5127C42.2007 19.4403 41.6883 21.5923 42.0604 21.9428C42.6106 22.4714 45.167 20.6916 45.5391 20.3896C46.6016 19.5158 48.4407 16.0641 49.1634 14.9855L48.8937 14.7158Z" fill="#FFF7EF"/>
<path d="M49.2162 15.1157C47.8949 16.4155 46.3146 19.7648 45.9371 21.2533C45.6297 22.483 46.2122 24.6133 46.7137 24.7428C47.4472 24.9315 48.8333 22.1486 49.0113 21.6956C49.5236 20.4173 49.4697 16.5072 49.583 15.2182L49.2162 15.1104V15.1157Z" fill="#FFF7EF"/>
<path d="M49.6289 15.1694C49.8392 17.0085 51.5004 20.32 52.4388 21.5388C53.2154 22.542 55.2541 23.3941 55.664 23.0813C56.268 22.6229 54.9305 19.813 54.6878 19.3923C53.9975 18.2004 50.8855 15.8327 49.9417 14.9482L49.6289 15.1694Z" fill="#FFF7EF"/>
<path d="M49.7691 14.0943C49.2189 13.4795 48.4585 14.1698 48.9115 14.7847C49.4455 15.5128 50.454 14.8656 49.7691 14.0943Z" fill="#FFF7EF"/>
<path d="M49.4692 40.3497C49.0809 39.6701 46.9074 36.5528 46.9182 36.6175C46.929 36.6876 47.5114 35.253 47.0746 34.1797C46.7186 33.3114 46.1254 32.826 45.4458 32.7775C45.2732 32.5456 45.0683 31.2404 44.7015 30.7927C44.3402 30.3613 43.5636 29.7842 43.0188 29.8112C42.2692 27.1307 38.0085 25.4102 37.879 22.3037C36.9028 23.3176 38.5909 26.6615 39.2381 27.7078C40.1981 29.2503 40.813 30.2049 41.9348 31.6287C43.035 33.031 44.5559 33.9424 45.586 35.5496C46.066 36.2993 46.3249 36.6606 46.7132 37.3348C47.0746 37.9658 49.0647 40.9375 49.1941 40.9267C49.1941 40.9267 49.8575 41.0238 49.4692 40.3497Z" fill="#FFF7EF"/>
<path d="M37.881 22.1919C36.3223 23.8584 37.2985 25.9133 37.9295 27.5475C38.2639 28.3996 38.2531 28.5776 38.8464 29.2625C39.4343 29.9367 39.65 30.0715 39.7579 30.5461C39.8064 30.7241 39.5421 31.8405 40.0761 32.7897C40.2379 33.0702 40.3727 33.3938 40.6909 33.7443C41.09 34.1866 41.6887 34.4617 41.9853 34.9201C42.2064 35.2545 42.1147 35.8639 42.4653 36.2954C43.5224 37.6005 44.8168 38.0428 46.2028 37.5412C46.2514 37.525 46.548 37.277 46.5426 37.1907C45.7876 35.1142 42.3628 32.2396 41.4621 31.0801C36.0203 24.0472 37.8756 22.1865 37.8756 22.1865" fill="#FFF7EF"/>
<path d="M50.0877 65.1329C49.4243 65.5374 46.3555 67.7972 46.4256 67.781C46.4903 67.7649 45.0449 67.2148 43.9771 67.684C43.1195 68.0615 42.6503 68.6709 42.618 69.3505C42.3915 69.5285 41.0917 69.7658 40.6548 70.1433C40.2341 70.5101 39.6732 71.3029 39.7164 71.8476C37.0575 72.6674 35.4449 76.9712 32.3438 77.1816C33.3793 78.1308 36.6746 76.3564 37.7101 75.6822C39.2202 74.6845 40.164 74.0427 41.5609 72.8885C42.9362 71.7505 43.8099 70.208 45.3847 69.1402C46.1236 68.6332 46.4742 68.3689 47.1429 67.9644C47.7632 67.5923 50.6809 65.5213 50.6702 65.3918C50.6702 65.3918 50.751 64.7231 50.0877 65.1329Z" fill="#FFF7EF"/>
<path d="M32.232 77.1794C33.9416 78.6895 35.9695 77.6648 37.5767 76.9906C38.4288 76.6347 38.6014 76.6455 39.2756 76.0306C39.9282 75.4266 40.063 75.2054 40.5376 75.0814C40.7156 75.0329 41.832 75.2702 42.7704 74.7093C43.0455 74.5475 43.3691 74.3964 43.7143 74.0728C44.1457 73.6576 44.41 73.0589 44.8523 72.7461C45.1812 72.525 45.7907 72.5951 46.2168 72.2337C47.495 71.1443 47.9049 69.8445 47.3655 68.4638C47.3493 68.4153 47.0905 68.1294 47.0042 68.1348C44.9493 68.9438 42.1664 72.4387 41.023 73.3717C34.1358 78.9915 32.2266 77.1848 32.2266 77.1848" fill="#FFF7EF"/>
<path d="M26.8112 62.2365C25.0961 62.161 22.9388 62.215 21.2615 61.7889C20.2583 61.53 16.2026 58.9251 16.6934 57.9057C17.2974 56.6491 21.5743 58.019 22.3401 58.3803C25.1824 59.7341 26.3635 60.9907 27.0862 61.557C26.795 61.8482 26.8112 62.2365 26.8112 62.2365Z" fill="#FFF7EF"/>
<path d="M28.5367 62.106C30.1116 62.7963 32.1394 63.5244 33.5471 64.533C34.3885 65.137 37.2307 69.031 36.4055 69.8022C35.3916 70.7568 31.8914 67.9307 31.3143 67.3105C29.1516 65.0238 28.499 63.4273 28.0352 62.6399C28.4127 62.4727 28.5367 62.1006 28.5367 62.1006" fill="#FFF7EF"/>
<path d="M27.9704 62.6279C29.2109 64.521 30.1978 68.9812 30.241 70.8904C30.2734 72.4599 28.9682 74.9462 28.3264 74.9947C27.3825 75.0595 26.4819 71.3327 26.3848 70.7448C26.1205 69.0621 27.2747 64.2837 27.5012 62.6765L27.9758 62.6279H27.9704Z" fill="#FFF7EF"/>
<path d="M27.444 62.7531C27.2067 64.9967 25.2166 69.047 24.0786 70.5356C23.1456 71.7599 20.6647 72.8169 20.1631 72.4394C19.4242 71.8839 21.0314 68.4538 21.3226 67.9468C22.1532 66.4852 25.9231 63.5728 27.0665 62.4834L27.444 62.7531Z" fill="#FFF7EF"/>
<path d="M26.9871 62.452C25.5202 64.167 21.5831 66.3729 19.8033 66.9554C18.3363 67.4354 15.6936 66.9068 15.4994 66.3082C15.2028 65.4291 18.4765 63.5198 18.9997 63.261C20.5152 62.5329 25.2667 62.2632 26.8253 62.0205L26.9871 62.4574V62.452Z" fill="#FFF7EF"/>
<path d="M27.1082 61.4925C25.1073 60.4462 22.0816 57.1024 21.1108 55.4952C20.318 54.1792 20.2479 51.4826 20.7818 51.1536C21.5693 50.6736 24.1634 53.4295 24.5302 53.888C25.5819 55.1931 26.9032 59.772 27.4911 61.2336L27.1028 61.4871L27.1082 61.4925Z" fill="#FFF7EF"/>
<path d="M27.4335 61.4006C26.3387 59.4266 25.643 54.9664 25.7185 53.1003C25.7778 51.5578 27.1962 49.2657 27.8273 49.2873C28.7495 49.3196 29.4075 53.0518 29.4614 53.6396C29.6178 55.3062 28.2102 59.8581 27.8974 61.406H27.4282L27.4335 61.4006Z" fill="#FFF7EF"/>
<path d="M28.0567 61.347C28.0513 59.0873 29.5883 54.8481 30.5591 53.2463C31.3573 51.9304 33.7034 50.6036 34.2428 50.9218C35.0356 51.3964 33.8059 54.9776 33.5794 55.5223C32.916 57.0648 29.4859 60.3655 28.4665 61.5682L28.0567 61.347Z" fill="#FFF7EF"/>
<path d="M28.4492 61.6485C30.2182 60.2516 34.5059 58.844 36.3666 58.6175C37.8983 58.4287 40.39 59.4588 40.4655 60.0898C40.5841 61.0067 37.0084 62.2525 36.4421 62.4036C34.8187 62.8296 30.0996 62.1716 28.5301 62.1123L28.4546 61.6539L28.4492 61.6485Z" fill="#FFF7EF"/>
<path d="M27.6535 62.6934C26.6503 62.7419 26.591 61.5015 27.5132 61.3612C28.6027 61.1941 28.9101 62.6233 27.6535 62.6934Z" fill="#FFF7EF"/>
<path d="M338.801 31.5908C338.801 31.5908 330.593 30.3988 320.173 34.9993C314.451 37.5234 308.291 42.9598 301.933 48.5634C283.984 64.3766 277.695 56.0709 277.695 56.0709C277.695 56.0709 283.596 58.3523 293.244 52.1284C302.887 45.8992 311.705 36.3746 319.574 32.815C327.443 29.2555 338.801 31.5961 338.801 31.5961" fill="#FFF7EF"/>
<path d="M283.496 60.4713C283.361 60.7032 283.065 60.7787 282.833 60.6439C282.601 60.5091 282.531 60.2124 282.66 59.9805C282.795 59.7486 283.092 59.6731 283.323 59.8079C283.555 59.9428 283.631 60.2394 283.496 60.4713Z" fill="#FFF7EF"/>
<path d="M284.937 54.4152C284.803 54.6471 284.506 54.7226 284.274 54.5878C284.042 54.453 283.972 54.1564 284.101 53.9298C284.236 53.6979 284.533 53.617 284.765 53.7519C284.997 53.8921 285.072 54.1833 284.937 54.4152Z" fill="#FFF7EF"/>
<path d="M280.348 59.0948C280.24 59.2836 280.003 59.3429 279.809 59.235C279.62 59.1272 279.561 58.8899 279.669 58.6957C279.777 58.5069 280.019 58.4476 280.208 58.5555C280.397 58.6634 280.456 58.9061 280.348 59.0948Z" fill="#FFF7EF"/>
<path d="M281.229 54.8897C281.121 55.0785 280.884 55.1378 280.69 55.03C280.501 54.9221 280.442 54.6848 280.55 54.4906C280.657 54.3019 280.9 54.2425 281.089 54.3504C281.278 54.4583 281.337 54.701 281.229 54.8897Z" fill="#FFF7EF"/>
<path d="M287.947 60.2989C287.758 60.6224 287.343 60.7303 287.025 60.5362C286.701 60.3474 286.599 59.9375 286.782 59.6139C286.971 59.2903 287.386 59.1824 287.71 59.3712C288.033 59.56 288.136 59.9753 287.947 60.2935" fill="#FFF7EF"/>
<path d="M288.892 53.0225C288.703 53.3461 288.288 53.4539 287.97 53.2598C287.646 53.071 287.544 52.6611 287.727 52.3375C287.916 52.0139 288.331 51.9061 288.649 52.0948C288.973 52.2836 289.081 52.6989 288.892 53.0171" fill="#FFF7EF"/>
<path d="M292.376 58.8155C292.155 59.1822 291.685 59.3063 291.319 59.0906C290.952 58.8748 290.828 58.4002 291.044 58.0335C291.259 57.6667 291.734 57.5427 292.101 57.7584C292.467 57.9741 292.591 58.4434 292.376 58.8155Z" fill="#FFF7EF"/>
<path d="M293.116 50.3272C292.9 50.694 292.426 50.818 292.059 50.6023C291.692 50.3865 291.568 49.9119 291.784 49.5452C292.005 49.1784 292.474 49.0544 292.841 49.2701C293.208 49.4859 293.332 49.9551 293.116 50.3272Z" fill="#FFF7EF"/>
<path d="M296.914 56.8039C296.66 57.2408 296.094 57.3864 295.657 57.1275C295.22 56.874 295.074 56.3077 295.333 55.8763C295.587 55.4394 296.153 55.2938 296.59 55.5473C297.027 55.8062 297.172 56.3671 296.914 56.8039Z" fill="#FFF7EF"/>
<path d="M297.494 47.4573C297.24 47.8941 296.674 48.0397 296.237 47.7809C295.8 47.5274 295.655 46.9611 295.913 46.5296C296.167 46.0928 296.733 45.9471 297.17 46.2006C297.607 46.4595 297.753 47.0204 297.494 47.4573Z" fill="#FFF7EF"/>
<path d="M300.847 53.9475C300.594 54.3843 300.027 54.53 299.591 54.2711C299.154 54.0176 299.008 53.4513 299.267 53.0198C299.52 52.583 300.087 52.4374 300.524 52.6909C300.96 52.9497 301.106 53.5106 300.847 53.9475Z" fill="#FFF7EF"/>
<path d="M304.72 50.5158C304.467 50.9527 303.9 51.0983 303.464 50.8394C303.027 50.586 302.881 50.0197 303.14 49.5882C303.393 49.1513 303.96 49.0057 304.397 49.2592C304.833 49.5181 304.979 50.079 304.72 50.5158Z" fill="#FFF7EF"/>
<path d="M309.488 46.0178C309.234 46.4547 308.668 46.6003 308.231 46.3414C307.794 46.0879 307.649 45.5216 307.908 45.0902C308.161 44.6533 308.727 44.5077 309.164 44.7612C309.601 45.0147 309.747 45.5809 309.488 46.0178Z" fill="#FFF7EF"/>
<path d="M320.493 40.9208C322.159 40.608 323.874 40.279 325.611 40.3815C326.701 40.4516 330.427 41.8377 332.304 46.4651C332.434 46.7779 332.568 47.6031 332.061 48.0346C331.786 48.2611 330.983 47.8512 330.648 47.5977C329.591 46.8103 327.892 44.955 321.976 43.6337C315.628 42.2152 311.675 43.1698 311.006 43.008C310.65 42.7653 310.704 42.5011 310.904 42.3015C311.168 42.0372 316.432 38.6988 317.419 38.564C318.524 38.1379 322.348 38.6557 320.816 40.5972L320.493 40.9262V40.9208Z" fill="#FFF7EF"/>
<path d="M310.55 32.3674C311.245 30.9112 311.979 29.4118 312.308 27.7885C312.518 26.7637 312.157 23.0046 308.371 20.13C308.107 19.9304 307.384 19.6014 306.861 19.9682C306.586 20.1677 306.764 21.0037 306.909 21.3758C307.378 22.5408 308.662 24.5579 308.419 30.3287C308.161 36.5256 306.305 39.918 306.289 40.5759C306.429 40.9643 306.683 40.9804 306.909 40.8402C307.222 40.6622 311.591 36.6496 311.957 35.7705C312.626 34.8591 313.09 31.2132 310.927 32.1462L310.544 32.3674H310.55Z" fill="#FFF7EF"/>
<path d="M318.426 28.3609C319.235 27.2931 320.071 26.2036 320.616 24.9416C320.95 24.1434 321.285 21.0368 318.69 18.0813C318.512 17.8764 317.978 17.4934 317.498 17.7038C317.234 17.817 317.245 18.5236 317.304 18.8526C317.488 19.8719 318.194 21.7218 317.04 26.36C315.8 31.3326 313.734 33.7758 313.615 34.3097C313.664 34.6441 313.869 34.698 314.079 34.6333C314.354 34.5362 318.561 32.0068 319.009 31.3596C319.704 30.734 320.686 27.8594 318.777 28.2531L318.431 28.3663L318.426 28.3609Z" fill="#FFF7EF"/>
<path d="M326.559 27.1306C327.325 26.6075 328.128 26.0735 328.765 25.3616C329.164 24.914 330.081 22.9346 329.024 20.3998C328.948 20.2218 328.689 19.8497 328.323 19.8874C328.123 19.9036 327.972 20.3782 327.934 20.6047C327.832 21.322 327.88 22.6973 326.09 25.5019C324.164 28.5113 322.25 29.6655 322.056 29.9891C322.007 30.221 322.131 30.3019 322.287 30.3019C322.487 30.3019 325.831 29.5684 326.273 29.2394C326.866 28.9805 328.161 27.2978 326.812 27.136H326.559V27.1306Z" fill="#FFF7EF"/>
<path d="M334.616 27.493C335.469 27.1263 336.353 26.7541 337.113 26.1717C337.593 25.8103 338.861 24.0413 338.311 21.3555C338.268 21.1667 338.079 20.7514 337.718 20.7137C337.518 20.6921 337.281 21.1289 337.205 21.3447C336.962 22.0296 336.758 23.3887 334.465 25.8049C332.006 28.3991 329.908 29.1649 329.655 29.4508C329.568 29.6719 329.671 29.7744 329.822 29.8067C330.021 29.8445 333.441 29.7582 333.937 29.5155C334.573 29.3753 336.159 27.9676 334.87 27.5524L334.616 27.5038V27.493Z" fill="#FFF7EF"/>
<path d="M329.887 37.1404C331.456 37.2321 333.074 37.3184 334.611 37.7984C335.576 38.1004 338.608 40.1768 339.265 44.7504C339.314 45.0686 339.255 45.8398 338.694 46.1095C338.392 46.2497 337.766 45.7104 337.518 45.4029C336.747 44.4591 335.636 42.4151 330.615 39.9126C325.232 37.2159 321.462 37.1997 320.901 36.8977C320.637 36.5957 320.745 36.38 320.966 36.2451C321.268 36.0672 326.731 34.2388 327.654 34.3413C328.738 34.2011 332.06 35.5224 330.248 36.9247L329.881 37.1458L329.887 37.1404Z" fill="#FFF7EF"/>
<path d="M337.728 34.8923C338.807 35.1026 339.929 35.3076 340.948 35.7822C341.595 36.0842 343.51 37.7993 343.559 41.0406C343.559 41.2618 343.445 41.7957 343.035 41.9305C342.814 42.006 342.426 41.5638 342.28 41.3319C341.833 40.6038 341.245 39.0883 337.987 36.8824C334.487 34.5255 331.877 34.1642 331.51 33.8999C331.354 33.668 331.445 33.5224 331.618 33.4523C331.844 33.3552 335.808 32.5893 336.439 32.7404C337.216 32.7404 339.4 33.9646 338.009 34.7736L337.734 34.8923H337.728Z" fill="#FFF7EF"/>
<path d="M288.973 46.5586C288.973 46.5586 295.542 40.448 293.762 31.247C291.842 21.3341 293.158 17.9256 294.032 15.0078C294.032 15.0078 293.708 18.8317 294.242 23.8366C294.512 26.3661 295.374 29.8501 295.639 31.9859C296.593 39.7846 293.519 43.7756 288.973 46.5586Z" fill="#FFF7EF"/>
<path d="M294.539 13.8738C295.569 12.9138 296.788 11.6302 298.012 10.8967C298.74 10.4598 302.602 9.6023 302.915 10.4706C303.298 11.5493 300.029 13.2536 299.371 13.4855C296.939 14.3646 295.526 14.3268 294.776 14.4239C294.776 14.0841 294.539 13.8684 294.539 13.8684" fill="#FFF7EF"/>
<path d="M293.619 14.9454C292.309 15.4631 290.707 16.229 289.305 16.4663C288.474 16.6065 284.559 16.0133 284.58 15.0856C284.613 13.9476 288.28 13.5431 288.976 13.5539C291.554 13.6186 292.864 14.1634 293.592 14.3467C293.474 14.6649 293.619 14.9508 293.619 14.9508" fill="#FFF7EF"/>
<path d="M293.633 14.3197C291.816 13.953 288.644 11.9521 287.506 10.8626C286.573 9.97274 285.878 7.77767 286.223 7.37317C286.73 6.77991 289.421 8.40869 289.82 8.69453C290.958 9.51431 293.072 12.9498 293.887 14.0069L293.639 14.3143L293.633 14.3197Z" fill="#FFF7EF"/>
<path d="M293.868 13.9429C292.698 12.5082 291.485 9.00261 291.28 7.4817C291.107 6.23046 291.916 4.17022 292.428 4.09471C293.178 3.98685 294.251 6.90462 294.381 7.36844C294.753 8.70058 294.273 12.5784 294.251 13.8674L293.874 13.9375L293.868 13.9429Z" fill="#FFF7EF"/>
<path d="M294.31 13.8471C294.159 12.0026 295.141 8.4322 295.831 7.05691C296.398 5.92432 298.237 4.68926 298.701 4.91578C299.386 5.25016 298.614 8.26501 298.458 8.72344C298.01 10.0286 295.416 12.9518 294.661 14.0035L294.316 13.8471H294.31Z" fill="#FFF7EF"/>
<path d="M294.804 14.4732C296.573 13.9123 300.273 14.0795 301.767 14.4409C302.996 14.7429 304.609 16.2584 304.49 16.76C304.318 17.4989 301.206 17.418 300.726 17.3694C299.356 17.2238 295.926 15.3523 294.729 14.8508L294.804 14.4732Z" fill="#FFF7EF"/>
<path d="M294.66 14.7158C296.44 15.2174 299.444 17.3909 300.49 18.5127C301.353 19.4403 301.866 21.5923 301.494 21.9428C300.943 22.4714 298.387 20.6916 298.015 20.3896C296.947 19.5158 295.113 16.0641 294.391 14.9855L294.66 14.7158Z" fill="#FFF7EF"/>
<path d="M294.337 15.1157C295.659 16.4155 297.239 19.7648 297.617 21.2533C297.924 22.483 297.342 24.6133 296.84 24.7428C296.106 24.9315 294.72 22.1486 294.542 21.6956C294.03 20.4173 294.084 16.5072 293.971 15.2182L294.337 15.1104V15.1157Z" fill="#FFF7EF"/>
<path d="M293.929 15.1694C293.718 17.0085 292.057 20.32 291.119 21.5388C290.342 22.542 288.303 23.3941 287.893 23.0813C287.289 22.6229 288.627 19.813 288.87 19.3923C289.56 18.2004 292.672 15.8327 293.616 14.9482L293.929 15.1694Z" fill="#FFF7EF"/>
<path d="M293.783 14.0943C294.333 13.4795 295.094 14.1698 294.641 14.7847C294.107 15.5128 293.098 14.8656 293.783 14.0943Z" fill="#FFF7EF"/>
<path d="M294.093 40.3497C294.481 39.6701 296.654 36.5528 296.644 36.6175C296.633 36.6876 296.045 35.253 296.482 34.1797C296.838 33.3114 297.436 32.826 298.116 32.7775C298.289 32.5456 298.494 31.2404 298.86 30.7927C299.222 30.3613 299.993 29.7842 300.543 29.8112C301.293 27.1307 305.559 25.4102 305.683 22.3037C306.654 23.3176 304.965 26.6615 304.318 27.7078C303.364 29.2503 302.743 30.2049 301.627 31.6287C300.521 33.031 299.006 33.9424 297.976 35.5496C297.496 36.2993 297.237 36.6606 296.849 37.3348C296.493 37.9658 294.502 40.9375 294.368 40.9267C294.368 40.9267 293.704 41.0238 294.093 40.3497Z" fill="#FFF7EF"/>
<path d="M305.671 22.1919C307.23 23.8584 306.254 25.9133 305.623 27.5475C305.289 28.3996 305.305 28.5776 304.706 29.2625C304.118 29.9367 303.902 30.0715 303.795 30.5461C303.746 30.7241 304.01 31.8405 303.476 32.7897C303.315 33.0702 303.18 33.3938 302.862 33.7443C302.462 34.1866 301.864 34.4617 301.567 34.9201C301.346 35.2545 301.438 35.8639 301.087 36.2954C300.03 37.6005 298.736 38.0428 297.35 37.5412C297.301 37.525 297.004 37.277 297.01 37.1907C297.765 35.1142 301.19 32.2396 302.09 31.0801C307.532 24.0472 305.677 22.1865 305.677 22.1865" fill="#FFF7EF"/>
<path d="M293.466 65.1329C294.13 65.5374 297.199 67.7972 297.128 67.781C297.064 67.7649 298.509 67.2148 299.577 67.684C300.435 68.0615 300.904 68.6709 300.936 69.3505C301.163 69.5285 302.462 69.7658 302.899 70.1433C303.32 70.5101 303.881 71.3029 303.838 71.8476C306.502 72.6674 308.109 76.9712 311.21 77.1816C310.175 78.1308 306.88 76.3564 305.844 75.6822C304.334 74.6845 303.39 74.0427 301.993 72.8885C300.618 71.7505 299.744 70.208 298.169 69.1402C297.431 68.6332 297.08 68.3689 296.411 67.9644C295.791 67.5923 292.873 65.5213 292.884 65.3918C292.884 65.3918 292.803 64.7231 293.466 65.1329Z" fill="#FFF7EF"/>
<path d="M311.33 77.1794C309.62 78.6895 307.593 77.6648 305.985 76.9906C305.133 76.6347 304.961 76.6455 304.287 76.0306C303.634 75.4266 303.499 75.2054 303.024 75.0814C302.847 75.0329 301.73 75.2702 300.792 74.7093C300.517 74.5475 300.198 74.3964 299.848 74.0728C299.416 73.6576 299.152 73.0589 298.71 72.7461C298.381 72.525 297.771 72.5951 297.345 72.2337C296.067 71.1443 295.657 69.8445 296.191 68.4638C296.213 68.4153 296.466 68.1294 296.558 68.1348C298.613 68.9438 301.396 72.4387 302.539 73.3717C309.426 78.9915 311.336 77.1848 311.336 77.1848" fill="#FFF7EF"/>
<path d="M316.742 62.2365C318.457 62.161 320.614 62.215 322.292 61.7889C323.295 61.53 327.345 58.9251 326.86 57.9057C326.256 56.6491 321.979 58.019 321.213 58.3803C318.371 59.7341 317.189 60.9907 316.467 61.557C316.758 61.8482 316.742 62.2365 316.742 62.2365Z" fill="#FFF7EF"/>
<path d="M315.021 62.106C313.452 62.7963 311.419 63.5244 310.011 64.533C309.17 65.137 306.327 69.031 307.153 69.8022C308.166 70.7568 311.661 67.9307 312.244 67.3105C314.406 65.0238 315.054 63.4273 315.528 62.6399C315.151 62.4727 315.027 62.1006 315.027 62.1006" fill="#FFF7EF"/>
<path d="M315.582 62.6279C314.341 64.521 313.354 68.9812 313.311 70.8904C313.279 72.4599 314.584 74.9462 315.226 74.9947C316.17 75.0595 317.07 71.3327 317.167 70.7448C317.432 69.0621 316.277 64.2837 316.051 62.6765L315.576 62.6279H315.582Z" fill="#FFF7EF"/>
<path d="M316.111 62.7531C316.349 64.9967 318.339 69.047 319.477 70.5356C320.41 71.7599 322.891 72.8169 323.392 72.4394C324.131 71.8839 322.524 68.4538 322.233 67.9468C321.402 66.4852 317.632 63.5728 316.489 62.4834L316.111 62.7531Z" fill="#FFF7EF"/>
<path d="M316.572 62.452C318.039 64.167 321.976 66.3729 323.756 66.9554C325.223 67.4354 327.86 66.9068 328.06 66.3082C328.356 65.4291 325.082 63.5198 324.554 63.261C323.044 62.5329 318.292 62.2632 316.728 62.0205L316.566 62.4574L316.572 62.452Z" fill="#FFF7EF"/>
<path d="M316.451 61.4925C318.446 60.4462 321.477 57.1024 322.448 55.4952C323.241 54.1792 323.311 51.4826 322.777 51.1536C321.99 50.6736 319.396 53.4295 319.023 53.888C317.977 55.1931 316.656 59.772 316.062 61.2336L316.451 61.4871V61.4925Z" fill="#FFF7EF"/>
<path d="M316.126 61.4006C317.221 59.4266 317.916 54.9664 317.841 53.1003C317.782 51.5578 316.363 49.2657 315.732 49.2873C314.81 49.3196 314.152 53.0518 314.098 53.6396C313.942 55.3062 315.349 59.8581 315.662 61.406H316.131L316.126 61.4006Z" fill="#FFF7EF"/>
<path d="M315.497 61.347C315.508 59.0873 313.965 54.8481 312.994 53.2463C312.196 51.9304 309.85 50.6036 309.311 50.9218C308.518 51.3964 309.742 54.9776 309.974 55.5223C310.637 57.0648 314.068 60.3655 315.087 61.5682L315.497 61.347Z" fill="#FFF7EF"/>
<path d="M315.101 61.6485C313.332 60.2516 309.045 58.844 307.178 58.6175C305.652 58.4287 303.16 59.4588 303.085 60.0898C302.966 61.0067 306.542 62.2525 307.108 62.4036C308.732 62.8296 313.451 62.1716 315.02 62.1123L315.096 61.6539L315.101 61.6485Z" fill="#FFF7EF"/>
<path d="M315.9 62.6934C316.903 62.7419 316.962 61.5015 316.04 61.3612C314.95 61.1941 314.643 62.6233 315.9 62.6934Z" fill="#FFF7EF"/>
</svg>
