<svg width="28" height="28" viewBox="0 0 28 28" fill="none" xmlns="http://www.w3.org/2000/svg">
<path d="M14 0C8.11984 0 3.33594 4.7839 3.33594 10.6641C3.33594 14.46 4.49066 15.9823 10.0396 23.2974C11.0028 24.5672 12.0946 26.0064 13.3438 27.6719C13.4987 27.8784 13.7418 28 14.0001 28C14.2583 28 14.5014 27.8784 14.6563 27.6718C15.8981 26.0153 16.9852 24.5815 17.9443 23.3166C23.5065 15.9802 24.6641 14.4535 24.6641 10.6641C24.6641 4.7839 19.8802 0 14 0ZM16.637 22.3254C15.8493 23.3643 14.9754 24.5169 13.9998 25.8138C13.0176 24.5086 12.1388 23.35 11.3467 22.3058C5.94912 15.1903 4.97656 13.9082 4.97656 10.6641C4.97656 5.68854 9.02448 1.64062 14 1.64062C18.9755 1.64062 23.0234 5.68854 23.0234 10.6641C23.0234 13.9018 22.0484 15.1879 16.637 22.3254Z" fill="#534741"/>
<path d="M14 4.92188C10.8338 4.92188 8.25781 7.49782 8.25781 10.6641C8.25781 13.8303 10.8338 16.4063 14 16.4063C17.1662 16.4063 19.7422 13.8303 19.7422 10.6641C19.7422 7.49782 17.1662 4.92188 14 4.92188ZM14 14.7656C11.7384 14.7656 9.89844 12.9257 9.89844 10.6641C9.89844 8.40246 11.7384 6.5625 14 6.5625C16.2616 6.5625 18.1016 8.40246 18.1016 10.6641C18.1016 12.9257 16.2616 14.7656 14 14.7656Z" fill="#534741"/>
</svg>
