<svg width="11" height="10" viewBox="0 0 11 10" fill="none" xmlns="http://www.w3.org/2000/svg">
<path d="M6.5741 0.492225C6.5741 0.492225 6.56702 0.561621 6.55994 0.58938C6.61659 0.519984 6.6945 0.40201 6.68033 0.256278C6.60951 0.39507 6.60243 0.332614 6.53161 0.499165C6.48911 0.513044 6.46079 0.443648 6.47495 0.388131C6.4537 0.422829 6.41121 0.346493 6.38288 0.443648C6.42538 0.568561 6.4962 0.575501 6.5741 0.485285V0.492225Z" fill="#F48E3B"/>
<path d="M7.19025 0.332614C7.19025 0.332614 7.15484 0.346493 7.14067 0.360372C7.15484 0.360372 7.169 0.360372 7.18317 0.353433C7.18317 0.346493 7.18317 0.339553 7.19025 0.332614Z" fill="#F48E3B"/>
<path d="M5.22141 0.0480891C5.22141 0.0480891 5.22141 0.0619683 5.22141 0.068908C5.22141 0.0550287 5.22141 0.0480891 5.22141 0.0480891Z" fill="#F48E3B"/>
<path d="M7.21149 0.353433C7.21149 0.353433 7.23274 0.353433 7.2469 0.353433C7.23274 0.346493 7.21858 0.346493 7.21149 0.353433Z" fill="#F48E3B"/>
<path d="M3.01178 1.0474C3.04719 1.06821 3.0826 1.08903 3.11093 1.11679C3.04719 1.05433 3.11093 0.95024 3.01178 1.0474Z" fill="#F48E3B"/>
<path d="M7.17608 0.40201C7.17608 0.40201 7.19733 0.360372 7.21149 0.353433C7.20441 0.353433 7.19025 0.353433 7.18317 0.353433C7.18317 0.374251 7.169 0.388131 7.17608 0.40201Z" fill="#F48E3B"/>
<path d="M9.57693 8.61159L9.4707 8.68792C9.4707 8.68792 9.54152 8.64629 9.57693 8.61159Z" fill="#F48E3B"/>
<path d="M1.17042 6.06474L1.14917 6.03699C1.14917 6.03699 1.14917 6.0578 1.17042 6.06474Z" fill="#F48E3B"/>
<path d="M9.18033 8.94469C9.13076 8.92387 9.09535 8.91693 9.06702 8.91693C9.06702 8.93081 9.06702 8.93775 9.0741 8.95163H9.18033V8.94469Z" fill="#F48E3B"/>
<path d="M10.8659 6.0925C10.7951 6.00923 10.7172 5.92595 10.7738 5.8288C10.8021 5.84268 10.8376 5.8288 10.8305 5.86349C10.8588 5.67613 10.6393 5.52345 10.7526 5.33608C10.9438 5.41242 10.8234 5.27363 11.0004 5.27363C10.9863 5.23893 10.9721 5.19729 10.9509 5.16259L10.8659 5.20423C10.8659 5.10708 10.7455 5.0238 10.8021 4.94052L10.873 5.00992L10.8376 4.82949L10.7738 4.93359C10.6817 4.84337 10.5543 4.94746 10.6038 4.82255C10.618 4.84337 10.6038 4.73234 10.703 4.67682C10.6463 4.63518 10.5826 4.59354 10.618 4.52415C10.6747 4.50333 10.8092 4.52415 10.8446 4.50333C10.6959 4.47557 10.788 4.2882 10.618 4.2535C10.6605 4.26738 10.7455 4.2535 10.7667 4.24656L10.6393 4.22574C10.6676 4.17717 10.6817 4.17023 10.7597 4.16329C10.7597 4.03143 10.5472 4.23962 10.6109 4.07307C10.6251 4.08001 10.6393 4.07307 10.6605 4.09389C10.6676 4.01062 10.6393 3.94122 10.6038 3.87876C10.5755 3.80937 10.533 3.74691 10.5401 3.67057C10.6959 3.58036 10.618 3.78161 10.7455 3.69139C10.6959 3.59424 10.618 3.50402 10.5401 3.41381C10.4693 3.32359 10.3843 3.24726 10.3701 3.14316V3.1848C10.1293 3.2542 10.4197 2.99743 10.271 2.95579C10.2993 2.96967 10.4126 2.92803 10.3843 2.93497C10.356 2.79618 10.1931 2.70597 10.0231 2.57411L10.0939 2.56023C10.0939 2.46308 10.0019 2.36592 9.97353 2.27571C9.90979 2.28959 9.88855 2.24101 9.83189 2.31735C9.85314 2.26183 9.86022 2.22019 9.85314 2.17855C9.85314 2.14386 9.83189 2.10916 9.81773 2.0814C9.78232 2.02588 9.71858 1.99812 9.65484 1.96343C9.5911 1.93567 9.53444 1.90097 9.49195 1.86627C9.44946 1.82463 9.42113 1.76912 9.42821 1.6789C9.44945 1.69972 9.52028 1.69278 9.49903 1.6789L9.30781 1.57481C9.24407 1.66502 9.27948 1.63726 9.25115 1.72748C9.18742 1.75524 9.11659 1.7483 9.08118 1.72054C9.1945 1.73442 9.20158 1.59563 9.20866 1.52623C9.1945 1.55399 9.15909 1.57481 9.13784 1.59563C9.18742 1.38744 8.98203 1.74136 8.9537 1.56093L8.9962 1.52623C8.93954 1.51235 8.85455 1.54011 8.81914 1.49153C8.8758 1.3805 8.89705 1.48459 8.96787 1.40826C8.89705 1.35968 8.69875 1.49153 8.71291 1.35274C8.76249 1.3458 8.80498 1.37356 8.84747 1.36662C8.8758 1.20007 8.84039 1.22783 8.80498 1.17231L8.72708 1.0474V1.10291C8.5996 1.20701 8.55002 1.18619 8.50045 1.15843C8.4792 1.14455 8.45795 1.12373 8.42254 1.11679C8.38713 1.11679 8.35172 1.11679 8.29506 1.14455C8.51461 1.03352 8.37297 1.05433 8.45795 0.943301C8.44379 0.894723 8.42254 0.832267 8.45795 0.804508C8.34464 0.866965 8.4013 0.672655 8.23841 0.76981C8.25257 0.728172 8.17467 0.735112 8.23841 0.637957C8.14634 0.624078 8.22424 0.714293 8.18883 0.76287C8.09676 0.797569 8.04719 0.728172 7.98345 0.658776C7.91971 0.58938 7.84181 0.519984 7.71433 0.58244C7.54436 0.603259 7.46645 0.721233 7.33189 0.76287C7.31773 0.76287 7.30356 0.755931 7.28232 0.748991C7.28232 0.679595 7.37438 0.631018 7.37438 0.631018C7.31773 0.547742 7.25399 0.533863 7.16192 0.568561C7.19025 0.533863 7.18317 0.499165 7.16192 0.443648C7.09818 0.443648 7.08402 0.596319 7.02028 0.513044C7.04152 0.464467 7.07693 0.39507 7.11943 0.353433C7.03444 0.381191 6.94237 0.443648 6.86447 0.471406C6.86447 0.388131 6.92821 0.367312 6.9707 0.318734C6.87863 0.332614 6.73699 0.339553 6.68742 0.464467L6.72283 0.499165C6.72283 0.499165 6.73699 0.40201 6.75824 0.388131C6.85031 0.304855 6.85739 0.450587 6.85031 0.499165L6.79365 0.519984C6.79365 0.790629 7.00611 0.519984 7.11234 0.561621L7.04152 0.700414C6.78657 0.644897 6.52453 0.603259 6.2554 0.58938C6.2554 0.58938 6.2554 0.58938 6.24832 0.58938C6.2554 0.519984 6.26957 0.450587 6.27665 0.381191C6.27665 0.39507 6.29081 0.40201 6.30498 0.40201L6.34747 0.256278L6.27665 0.290976C6.27665 0.200761 6.24124 0.117485 6.16334 0.0480891L6.03586 0.179942L5.99336 0.0758476H6.0996C6.03586 -0.0282468 6.00045 0.0550287 5.95795 0.117485C5.94379 0.0619683 5.92962 0.0272702 5.9013 0.00645134C5.8588 0.0758476 5.82339 0.145244 5.7809 0.2077C5.75965 0.124425 5.83047 0.0411495 5.74549 -0.000488281C5.68883 0.0966665 5.80923 0.179942 5.71716 0.249338C5.65342 0.159123 5.6605 0.0758476 5.59676 0.166063C5.5826 0.110546 5.59676 0.0758476 5.61801 0.0480891C5.56135 0.117485 5.44804 0.0897269 5.43387 0.2077C5.39846 0.152183 5.34181 0.166063 5.29931 0.166063C5.25682 0.166063 5.21433 0.166063 5.20016 0.0619683C5.186 0.110546 5.11518 0.242399 5.05852 0.256278C5.11518 -0.000488281 4.83897 0.284036 4.81064 0.0272702C4.78232 0.249338 4.5486 0.200761 4.44945 0.353433C4.44945 0.332614 4.44945 0.297916 4.4707 0.304855C4.38572 0.304855 4.34322 0.256278 4.27948 0.235459C4.32906 0.40895 4.22991 0.492225 4.21574 0.617138C4.05994 0.492225 4.18741 0.40201 4.09535 0.256278C4.152 0.388131 3.9962 0.457527 4.0741 0.554682C3.96079 0.485285 3.9962 0.533863 3.89705 0.40895C3.98203 0.617138 3.84747 0.471406 3.85455 0.624078C3.71291 0.575501 3.73416 0.450587 3.65625 0.568561C3.57127 0.533863 3.62793 0.415889 3.62793 0.415889C3.51461 0.471406 3.65625 0.58938 3.6775 0.686535C3.57835 0.797569 3.5571 0.610199 3.47212 0.554682C3.44379 0.596319 3.42962 0.658776 3.42254 0.714293C3.41546 0.76981 3.40838 0.818388 3.37297 0.839206C3.35172 0.818388 3.33756 0.818388 3.33047 0.77675C3.33047 0.943301 3.09676 0.936361 3.11093 1.13761C3.09676 1.13067 3.0826 1.12373 3.07552 1.10985C3.13926 1.16537 3.19591 1.23477 3.23132 1.28334C3.19591 1.31804 3.23132 1.42907 3.13926 1.35274C3.16759 1.33886 3.13926 1.29722 3.13217 1.26252L3.11801 1.33192C2.98345 1.23476 3.13926 1.2417 3.06843 1.15149C3.01178 1.26252 3.0047 1.43601 2.91263 1.44989C2.79223 1.3458 3.02594 1.29028 2.84889 1.25558L2.99053 1.22089C2.75682 1.08903 3.06135 1.18619 2.82764 1.03352C2.66475 1.10985 2.72141 1.21395 2.5656 1.29722C2.60101 1.38744 2.66475 1.3805 2.69308 1.47071C2.63642 1.74136 2.27523 1.32498 2.29648 1.59563C2.33897 1.69972 2.48062 1.84545 2.32481 1.86627L2.21858 1.72054C2.09818 1.83851 2.35314 1.95649 2.15484 2.012C2.11943 1.94955 2.19025 1.88015 2.15484 1.88015C1.9707 1.88015 2.18317 2.00506 2.12651 2.06752L1.99195 1.98424C1.94945 2.06752 1.92821 2.15774 1.89988 2.25489C1.87863 2.35204 1.8503 2.4492 1.81489 2.53941C1.77948 2.50472 1.75115 2.45614 1.68742 2.47002C1.65909 2.59493 1.59535 2.70597 1.51036 2.81006C1.43246 2.91415 1.34039 3.01825 1.24832 3.10846L1.34039 3.24032C1.34039 3.24032 1.26957 3.2542 1.24832 3.22644C1.17042 3.29583 1.32623 3.26114 1.36872 3.32359C1.36872 3.37217 1.26957 3.36523 1.24124 3.32359C1.26957 3.42075 1.2979 3.54566 1.29081 3.66363C1.29081 3.71915 1.27665 3.78161 1.26249 3.83018C1.24832 3.87876 1.21291 3.92734 1.17042 3.96204L1.13501 3.9204C1.05002 4.03837 1.38288 4.11471 1.22708 4.21186L1.20583 4.18411C1.15625 4.31596 1.15625 4.46863 1.14209 4.60742C1.14209 4.64212 1.13501 4.67682 1.12793 4.71152C1.12793 4.74622 1.12084 4.78091 1.10668 4.80867C1.08543 4.87113 1.0571 4.93359 1.00753 4.9891C1.10668 5.00992 1.08543 5.07932 1.07127 5.14871C1.0571 5.21811 1.07127 5.28057 1.20583 5.28057C1.08543 5.44712 1.02877 5.40548 0.965035 5.65531C0.957953 5.71776 1.14917 5.7247 1.19166 5.7941L1.05002 5.82186L1.21999 5.89819L1.06419 5.98841L1.11376 6.05087C1.11376 6.05087 1.16334 5.97453 1.20583 5.97453C1.24832 6.02311 1.24124 6.0925 1.20583 6.15496C1.1775 6.21742 1.13501 6.27293 1.0996 6.27987L1.2979 6.50194C1.2554 6.50888 1.22708 6.495 1.19875 6.47418C1.30498 6.54358 1.04294 6.5297 1.19875 6.61297C1.22708 6.58522 1.28373 6.59216 1.31206 6.58522C1.24832 6.67543 1.31206 6.81422 1.38288 6.90444L1.28373 6.92526C1.33331 7.12651 1.51036 7.29306 1.61659 7.48737C1.61659 7.39021 1.77948 7.32776 1.82198 7.37633L1.70158 7.47349C1.80073 7.45961 1.71574 7.38327 1.85739 7.40409C1.88572 7.48043 1.73699 7.53594 1.67325 7.52207L1.7724 7.57758C1.7724 7.57758 1.70158 7.5984 1.652 7.62616C1.75824 7.61228 1.62368 7.85517 1.79365 7.82047L1.75824 7.84823C1.79365 7.89681 1.82198 7.9315 1.8503 7.9662C1.87863 8.0009 1.91404 8.02866 1.94237 8.04948C2.00611 8.09805 2.06277 8.14663 2.12651 8.21603C2.22566 8.13275 2.25399 8.20909 2.3673 8.18133C2.43104 8.2993 2.45937 8.47973 2.58685 8.58383C2.71433 8.61159 2.686 8.52831 2.77807 8.50055C2.70016 8.59077 2.83472 8.68792 2.71433 8.69486C2.79931 8.75038 2.84889 8.78508 2.91263 8.81284C2.94096 8.82671 2.97637 8.84059 3.01886 8.86141C3.06135 8.87529 3.11093 8.88917 3.18175 8.90305C3.18175 8.84753 3.18175 8.81978 3.21008 8.79202C3.25965 8.79896 3.25965 8.88917 3.22424 8.93081H3.21008C3.37297 8.93081 3.45087 9.09736 3.55002 9.22921C3.5996 9.29861 3.64917 9.36801 3.70583 9.40964C3.73416 9.43046 3.76249 9.44434 3.7979 9.45128C3.83331 9.45128 3.86872 9.45128 3.90413 9.43046H3.88996L4.152 9.40964C4.23699 9.46516 4.05994 9.46516 4.10243 9.56231C4.18033 9.5415 4.23699 9.5415 4.28657 9.55538C4.33614 9.56232 4.37863 9.58313 4.42113 9.60395C4.50611 9.64559 4.58402 9.69417 4.69733 9.65947C4.72566 9.85378 4.87438 9.86766 5.02311 9.88154C5.10101 9.88154 5.17892 9.88154 5.24266 9.90236C5.31348 9.9093 5.37722 9.93705 5.42679 9.99951V9.91624C5.49053 9.8399 5.48345 9.97175 5.52594 9.99257C5.52594 9.93011 5.47637 9.91624 5.51178 9.8746C5.74549 9.86072 5.9792 9.8746 6.22708 9.93012C6.34747 9.95093 6.47495 9.96481 6.60243 9.98563C6.66617 9.99257 6.72991 9.99951 6.79365 10.0065C6.85739 10.0065 6.92113 10.0065 6.98487 10.0065C7.169 9.99257 6.99903 9.57619 7.25399 9.72193L7.22566 9.88154C7.38147 9.74969 7.55144 9.69417 7.72849 9.65253C7.89846 9.59007 8.06844 9.53456 8.19591 9.38882C8.19591 9.43046 8.21008 9.4721 8.18175 9.48598C8.29506 9.55538 8.42963 9.36801 8.38713 9.28473C8.43671 9.27085 8.43671 9.34719 8.48628 9.37495C8.58543 9.39576 8.57835 9.16676 8.67042 9.24309C8.6775 9.25003 8.6775 9.26391 8.67042 9.27779C8.70583 9.21533 8.84747 9.18064 8.74832 9.1043C8.88996 9.08348 8.92538 8.92387 9.05285 8.92387C9.01744 8.7712 9.2724 8.84059 9.15909 8.67404C9.28657 8.84059 9.44946 8.66016 9.43529 8.52831C9.45654 8.59077 9.53444 8.52831 9.56985 8.61159C9.63359 8.54219 9.669 8.45891 9.58402 8.39646C9.73274 8.42422 9.76107 8.32706 9.78232 8.24379C9.80356 8.16051 9.81773 8.09111 9.97353 8.15357C9.99478 8.08418 10.0231 8.01478 10.0444 7.95232C10.0656 7.88293 10.0798 7.82047 10.101 7.75801C10.1223 7.69556 10.1435 7.6331 10.1648 7.57758L10.2002 7.48737L10.2285 7.39715C10.3135 7.45267 10.2922 7.51513 10.2568 7.57064C10.2285 7.62616 10.1931 7.68168 10.2922 7.73719C10.3064 7.67474 10.3135 7.61922 10.3206 7.5637C10.3206 7.50819 10.3206 7.45267 10.3206 7.40409C10.3206 7.3 10.3347 7.20978 10.4126 7.11957C10.4693 7.07793 10.4764 7.18896 10.4976 7.22366C10.5189 7.10569 10.5614 7.00159 10.6109 6.90444C10.6534 6.80728 10.703 6.71013 10.6747 6.59216C10.6959 6.59216 10.703 6.62685 10.7172 6.65461C10.7172 6.61297 10.7738 6.57134 10.6817 6.55052L10.6959 6.5991C10.5472 6.61297 10.4693 6.35621 10.3985 6.33539C10.6393 6.48112 10.5259 6.16884 10.8234 6.37009C10.8163 6.34233 10.7809 6.29375 10.7172 6.28681C10.7455 6.25211 10.788 6.25211 10.8446 6.30763C10.8446 6.2313 10.8092 6.1966 10.7809 6.16884C10.7526 6.14108 10.7313 6.11332 10.7455 6.05087C10.788 6.06474 10.8021 6.0925 10.8517 6.11332L10.8659 6.0925ZM9.5132 2.03282C9.5132 2.03282 9.46362 2.0814 9.43529 2.10222C9.42113 2.0814 9.40696 2.06752 9.38572 2.0467C9.42113 2.01894 9.46362 2.012 9.5132 2.02588V2.03282ZM7.74266 0.797569C7.74266 0.832267 7.73557 0.866965 7.72849 0.908603C7.70016 0.901663 7.67892 0.887784 7.65059 0.880844C7.67183 0.853086 7.69308 0.825327 7.74266 0.804508V0.797569ZM7.20441 0.603259C7.20441 0.603259 7.20441 0.686535 7.19025 0.728172C7.15484 0.721233 7.12651 0.714293 7.0911 0.707353C7.12651 0.672655 7.16192 0.637957 7.20441 0.610199V0.603259ZM1.90696 2.52554C1.90696 2.52554 1.89988 2.55329 1.88572 2.58105C1.8928 2.56023 1.89988 2.53941 1.90696 2.52554ZM1.83614 2.69209C1.87863 2.70597 1.91404 2.73372 1.90696 2.75454C1.88572 2.72678 1.83614 2.76148 1.78657 2.77536C1.80781 2.75454 1.82198 2.72678 1.83614 2.69209Z" fill="#D33882"/>
<path d="M1.22708 6.46724C1.22708 6.46724 1.20583 6.45336 1.19166 6.44642C1.20583 6.44642 1.21291 6.4603 1.22708 6.46724Z" fill="#F48E3B"/>
<path d="M6.76532 0.526923L6.75115 0.513044C6.75115 0.513044 6.75115 0.526923 6.76532 0.526923Z" fill="#F48E3B"/>
<path d="M8.69166 9.27085C8.69166 9.27085 8.69166 9.28473 8.68458 9.29167C8.68458 9.29167 8.68458 9.27779 8.69166 9.27085Z" fill="#F48E3B"/>
<path d="M1.05002 5.82186L1.08543 5.81492L1.05002 5.80104V5.82186Z" fill="#F48E3B"/>
<path d="M9.22283 1.54011C9.22283 1.54011 9.22991 1.51929 9.22991 1.50541C9.22991 1.50541 9.22283 1.52623 9.22283 1.54011Z" fill="#F48E3B"/>
<path d="M8.82623 1.18619L8.79081 1.10985C8.80498 1.15149 8.81206 1.17231 8.82623 1.18619Z" fill="#F48E3B"/>
<path d="M8.51461 0.908603C8.51461 0.908603 8.48628 0.936361 8.4792 0.95024L8.51461 0.908603Z" fill="#F48E3B"/>
<path d="M10.7242 6.63379C10.7242 6.63379 10.7242 6.64767 10.7242 6.65461C10.7384 6.69625 10.7384 6.66849 10.7242 6.63379Z" fill="#F48E3B"/>
<path d="M10.703 4.68376C10.703 4.68376 10.7526 4.71846 10.7738 4.73928C10.7738 4.70458 10.7738 4.67682 10.703 4.68376Z" fill="#F48E3B"/>
<path d="M9.58402 8.60465C9.58402 8.60465 9.58401 8.60465 9.57693 8.61159H9.5911L9.58402 8.60465Z" fill="#F48E3B"/>
<path d="M10.7667 4.82949C10.7667 4.82949 10.788 4.76703 10.7667 4.73928C10.7597 4.76703 10.7455 4.80173 10.7667 4.82949Z" fill="#F48E3B"/>
<path d="M6.80781 0.235459C6.80781 0.235459 6.80781 0.249338 6.80781 0.256278L6.83614 0.242399H6.81489L6.80781 0.235459Z" fill="#F48E3B"/>
<path d="M6.80073 0.256278L6.7724 0.270157C6.7724 0.270157 6.79365 0.270157 6.80073 0.256278Z" fill="#F48E3B"/>
<path d="M6.72283 0.297916L6.7724 0.270157C6.7724 0.270157 6.73699 0.263218 6.72283 0.297916Z" fill="#F48E3B"/>
<path d="M7.36022 0.422829L7.38147 0.381191C7.38147 0.381191 7.3673 0.40201 7.36022 0.422829Z" fill="#F48E3B"/>
<path d="M7.52311 0.457527C7.52311 0.457527 7.45229 0.332614 7.39563 0.346493L7.38147 0.381191C7.42396 0.325674 7.46645 0.526923 7.53019 0.464467L7.52311 0.457527Z" fill="#F48E3B"/>
<path d="M10.6959 3.851C10.6959 3.851 10.7384 3.80243 10.7526 3.78161H10.6393C10.6393 3.78161 10.6817 3.83018 10.6959 3.851Z" fill="#F48E3B"/>
</svg>
