<svg width="57" height="53" viewBox="0 0 57 53" fill="none" xmlns="http://www.w3.org/2000/svg">
<path d="M28.5 0C12.761 0 0 11.8655 0 26.5C0 41.1345 12.761 53 28.5 53C44.239 53 57 41.1345 57 26.5C57 11.8655 44.239 0 28.5 0ZM40.8065 23.6643C40.5434 23.6865 40.2803 23.6976 40.0172 23.6976C37.1349 23.6976 34.432 22.341 32.8533 20.0946V32.3493C32.8533 37.3535 28.488 41.4125 23.1062 41.4125C17.7243 41.4125 13.359 37.3535 13.359 32.3493C13.359 27.3452 17.7243 23.2862 23.1062 23.2862C23.3095 23.2862 23.5128 23.3084 23.7042 23.3196V27.7788C23.5008 27.7566 23.3095 27.7232 23.1062 27.7232C20.3554 27.7232 18.1309 29.7916 18.1309 32.3493C18.1309 34.9071 20.3554 36.9754 23.1062 36.9754C25.8569 36.9754 28.2728 34.9627 28.2728 32.4049L28.3206 11.5875H32.9131C33.3437 15.4129 36.6685 18.4043 40.7946 18.6935V23.6532L40.8065 23.6643Z" fill="#FF3696"/>
</svg>
