<svg width="21" height="27" viewBox="0 0 21 27" fill="none" xmlns="http://www.w3.org/2000/svg">
<path d="M10.1328 0C4.54558 0 0 4.54558 0 10.1328C0 13.7397 1.0972 15.1861 6.36969 22.1368C7.28492 23.3434 8.32231 24.7109 9.50925 26.2934C9.65647 26.4896 9.88749 26.6051 10.1329 26.6051C10.3782 26.6051 10.6092 26.4896 10.7564 26.2932C11.9364 24.7193 12.9693 23.357 13.8806 22.155C19.1658 15.1841 20.2656 13.7334 20.2656 10.1328C20.2656 4.54558 15.72 0 10.1328 0ZM12.6384 21.2132C11.8899 22.2004 11.0596 23.2955 10.1327 24.5278C9.19935 23.2876 8.3643 22.1868 7.61166 21.1946C2.48301 14.4336 1.55889 13.2153 1.55889 10.1328C1.55889 5.40515 5.40515 1.55889 10.1328 1.55889C14.8605 1.55889 18.7067 5.40515 18.7067 10.1328C18.7067 13.2093 17.7802 14.4313 12.6384 21.2132Z" fill="#FF3696"/>
<path d="M10.1358 4.67676C7.12731 4.67676 4.67969 7.12438 4.67969 10.1329C4.67969 13.1414 7.12731 15.589 10.1358 15.589C13.1443 15.589 15.5919 13.1414 15.5919 10.1329C15.5919 7.12438 13.1443 4.67676 10.1358 4.67676ZM10.1358 14.0301C7.98688 14.0301 6.23858 12.2818 6.23858 10.1329C6.23858 7.98395 7.98688 6.23565 10.1358 6.23565C12.2848 6.23565 14.0331 7.98395 14.0331 10.1329C14.0331 12.2818 12.2848 14.0301 10.1358 14.0301Z" fill="#FF3696"/>
</svg>
