<svg width="57" height="57" viewBox="0 0 57 57" fill="none" xmlns="http://www.w3.org/2000/svg">
<path d="M28.2932 0C12.6694 0 0 12.6839 0 28.3256C0 43.9672 12.6694 56.6511 28.2932 56.6511C43.917 56.6511 56.5863 43.9672 56.5863 28.3256C56.5863 12.6839 43.917 0 28.2932 0ZM44.7953 32.6157C44.7953 36.6127 41.5481 39.8636 37.5557 39.8636H19.0307C15.0382 39.8636 11.791 36.6127 11.791 32.6157V23.9821C11.791 19.9851 15.0382 16.7342 19.0307 16.7342H37.5557C41.5481 16.7342 44.7953 19.9851 44.7953 23.9821V32.6157Z" fill="#FF3696"/>
<path d="M33.5382 28.085L25.3936 23.635C25.0476 23.4485 23.9297 23.6883 23.9297 24.0613V32.7216C23.9297 33.0946 25.0742 33.3344 25.3936 33.1746L33.9108 28.9644C34.2568 28.7778 33.9108 28.2715 33.5648 28.085H33.5382Z" fill="#FF3696"/>
</svg>
