<svg width="82" height="83" viewBox="0 0 82 83" fill="none" xmlns="http://www.w3.org/2000/svg">
<path d="M45.8348 4.52093C45.8348 4.52093 45.7769 5.08958 45.719 5.31704C46.182 4.74839 46.8185 3.78168 46.7028 2.5875C46.1241 3.72481 46.0663 3.21302 45.4876 4.57779C45.1404 4.69152 44.9089 4.12287 45.0246 3.66795C44.851 3.95227 44.5038 3.32675 44.2724 4.12287C44.6196 5.14645 45.1982 5.20331 45.8348 4.46406V4.52093Z" fill="#F48E3B"/>
<path d="M50.8691 3.21301C50.8691 3.21301 50.5798 3.32674 50.464 3.44047C50.5798 3.44047 50.6955 3.44047 50.8112 3.38361C50.8112 3.32674 50.8112 3.26988 50.8691 3.21301Z" fill="#F48E3B"/>
<path d="M34.782 0.880354C34.782 0.880354 34.782 0.994085 34.782 1.05095C34.782 0.93722 34.782 0.880354 34.782 0.880354Z" fill="#F48E3B"/>
<path d="M51.0427 3.3837C51.0427 3.3837 51.2163 3.3837 51.332 3.3837C51.2163 3.32683 51.1006 3.32683 51.0427 3.3837Z" fill="#F48E3B"/>
<path d="M16.7273 9.06904C17.0166 9.23963 17.306 9.41023 17.5374 9.63769C17.0166 9.1259 17.5374 8.27292 16.7273 9.06904Z" fill="#F48E3B"/>
<path d="M50.7534 3.78045C50.7534 3.78045 50.927 3.44056 51.0427 3.3837C50.9848 3.3837 50.8691 3.38361 50.8112 3.38361C50.8112 3.5542 50.6955 3.66672 50.7534 3.78045Z" fill="#F48E3B"/>
<path d="M70.3706 71.0535L69.5026 71.679C69.5026 71.679 70.0812 71.3378 70.3706 71.0535Z" fill="#F48E3B"/>
<path d="M1.68167 50.183L1.50807 49.9555C1.50807 49.9555 1.50807 50.1261 1.68167 50.183Z" fill="#F48E3B"/>
<path d="M67.13 73.783C66.7249 73.6124 66.4356 73.5555 66.2041 73.5555C66.2041 73.6693 66.2041 73.7261 66.2619 73.8399H67.13V73.783Z" fill="#F48E3B"/>
<path d="M80.9025 50.4108C80.3238 49.7284 79.6872 49.046 80.1502 48.2499C80.3817 48.3636 80.671 48.2499 80.6131 48.5342C80.8446 46.9989 79.0507 45.7478 79.9766 44.2125C81.539 44.838 80.5553 43.7007 82.002 43.7007C81.8862 43.4163 81.7705 43.0751 81.5969 42.7908L80.9025 43.132C80.9025 42.3359 79.9187 41.6535 80.3817 40.9711L80.9603 41.5398L80.671 40.0613L80.1502 40.9143C79.3979 40.175 78.3563 41.028 78.7614 40.0044C78.8771 40.175 78.7614 39.2652 79.5715 38.8102C79.1086 38.469 78.5878 38.1278 78.8771 37.5592C79.34 37.3886 80.4395 37.5592 80.7289 37.3886C79.5136 37.1611 80.2659 35.6258 78.8771 35.3414C79.2243 35.4552 79.9187 35.3414 80.0923 35.2846L79.0507 35.114C79.2822 34.7159 79.3979 34.6591 80.0345 34.6022C80.0345 33.5217 78.2984 35.2277 78.8192 33.8629C78.935 33.9198 79.0507 33.8629 79.2243 34.0335C79.2822 33.3511 79.0507 32.7825 78.7614 32.2707C78.5299 31.7021 78.1827 31.1903 78.2406 30.5647C79.5136 29.8255 78.8771 31.4746 79.9187 30.7353C79.5136 29.9392 78.8771 29.2 78.2406 28.4607C77.6619 27.7215 76.9675 27.0959 76.8517 26.243V26.5842C74.8842 27.1528 77.2568 25.0488 76.0416 24.7076C76.2731 24.8213 77.1989 24.4801 76.9675 24.537C76.736 23.3997 75.405 22.6604 74.0162 21.58L74.5949 21.4663C74.5949 20.6702 73.8426 19.874 73.6111 19.1348C73.0903 19.2485 72.9167 18.8505 72.4538 19.476C72.6274 19.0211 72.6853 18.6799 72.6274 18.3387C72.6274 18.0543 72.4538 17.77 72.3381 17.5426C72.0487 17.0876 71.5279 16.8602 71.0071 16.5758C70.4863 16.3484 70.0234 16.064 69.6761 15.7797C69.3289 15.4385 69.0975 14.9836 69.1553 14.2444C69.3289 14.4149 69.9076 14.3581 69.734 14.2444L68.1716 13.3914C67.6508 14.1306 67.9401 13.9032 67.7086 14.6424C67.1878 14.8699 66.6092 14.813 66.3198 14.5855C67.2457 14.6993 67.3036 13.562 67.3614 12.9933C67.2457 13.2208 66.9564 13.3914 66.7828 13.562C67.1878 11.856 65.5097 14.7561 65.2782 13.2776L65.6254 12.9933C65.1625 12.8796 64.4681 13.107 64.1787 12.709C64.6417 11.7991 64.8153 12.6521 65.3939 12.0266C64.8153 11.6285 63.195 12.709 63.3107 11.5717C63.7158 11.5148 64.063 11.7423 64.4102 11.6854C64.6417 10.3206 64.3523 10.5481 64.063 10.0932L63.4264 9.0696V9.52452C62.3848 10.3775 61.9798 10.2069 61.5747 9.97944C61.4011 9.86571 61.2275 9.69512 60.9381 9.63825C60.6488 9.63825 60.3595 9.63825 59.8965 9.86571C61.6904 8.95586 60.5331 9.12646 61.2275 8.21661C61.1117 7.81856 60.9381 7.30677 61.2275 7.0793C60.3016 7.59109 60.7645 5.99886 59.4336 6.79498C59.5493 6.45378 58.9128 6.51065 59.4336 5.71453C58.6813 5.6008 59.3178 6.34005 59.0285 6.73811C58.2762 7.02244 57.8712 6.45378 57.3503 5.88513C56.8295 5.31647 56.193 4.74782 55.1514 5.25961C53.7625 5.43021 53.126 6.39692 52.0265 6.73811C51.9108 6.73811 51.795 6.68125 51.6214 6.62438C51.6214 6.05573 52.3737 5.65767 52.3737 5.65767C51.9108 4.97528 51.39 4.86155 50.6377 5.14588C50.8692 4.86155 50.8113 4.57722 50.6377 4.1223C50.1169 4.1223 50.0012 5.37334 49.4803 4.69095C49.6539 4.2929 49.9433 3.72424 50.2905 3.38305C49.5961 3.61051 48.8438 4.1223 48.2073 4.34976C48.2073 3.66738 48.7281 3.49678 49.0753 3.09872C48.323 3.21245 47.1656 3.26932 46.7606 4.2929L47.0499 4.57722C47.0499 4.57722 47.1656 3.78111 47.3392 3.66738C48.0915 2.98499 48.1494 4.17917 48.0915 4.57722L47.6286 4.74782C47.6286 6.96557 49.3646 4.74782 50.2326 5.08901L49.6539 6.22632C47.5707 5.7714 45.4296 5.43021 43.2306 5.31647C43.2306 5.31647 43.2306 5.31647 43.1728 5.31647C43.2306 4.74782 43.3464 4.17917 43.4042 3.61051C43.4042 3.72424 43.52 3.78111 43.6357 3.78111L43.9829 2.58693L43.4042 2.87126C43.4042 2.13201 43.1149 1.44962 42.4784 0.880968L41.4367 1.96141L41.0895 1.10843H41.9575C41.4367 0.255448 41.1474 0.937834 40.8002 1.44962C40.6845 0.994699 40.5687 0.710372 40.3373 0.539776C39.9901 1.10843 39.7007 1.67708 39.3535 2.18887C39.1799 1.50649 39.7586 0.824103 39.0642 0.48291C38.6012 1.27903 39.585 1.96141 38.8327 2.53007C38.3119 1.79082 38.3698 1.10843 37.8489 1.84768C37.7332 1.39276 37.8489 1.10843 38.0226 0.880968C37.5596 1.44962 36.6337 1.22216 36.518 2.18887C36.2287 1.73395 35.7657 1.84768 35.4185 1.84768C35.0713 1.84768 34.7241 1.84768 34.6084 0.994699C34.4926 1.39276 33.9139 2.4732 33.451 2.58693C33.9139 0.48291 31.6571 2.81439 31.4256 0.710372C31.1942 2.53007 29.2845 2.13201 28.4744 3.38305C28.4744 3.21245 28.4744 2.92813 28.648 2.98499C27.9536 2.98499 27.6064 2.58693 27.0856 2.41634C27.4906 3.83797 26.6805 4.52036 26.5648 5.54394C25.2917 4.52036 26.3333 3.78111 25.581 2.58693C26.044 3.66738 24.7709 4.23603 25.4074 5.03215C24.4815 4.46349 24.7709 4.86155 23.9607 3.83797C24.6551 5.54394 23.5556 4.34976 23.6135 5.6008C22.4562 5.20274 22.6298 4.17917 21.9932 5.14588C21.2988 4.86155 21.7617 3.89484 21.7617 3.89484C20.8359 4.34976 21.9932 5.31647 22.1668 6.11259C21.3567 7.02244 21.1831 5.48707 20.4887 5.03215C20.2572 5.37334 20.1415 5.88513 20.0836 6.34005C20.0257 6.79498 19.9679 7.19304 19.6785 7.36363C19.5049 7.19304 19.3892 7.19303 19.3313 6.85184C19.3313 8.21661 17.4217 8.15975 17.5374 9.80885C17.4217 9.75198 17.3059 9.69512 17.2481 9.58138C17.7689 10.0363 18.2318 10.605 18.5212 11.003C18.2318 11.2873 18.5212 12.1972 17.7689 11.5717C18.0004 11.4579 17.7689 11.1168 17.711 10.8324L17.5953 11.4011C16.4958 10.605 17.7689 10.6618 17.1902 9.92258C16.7273 10.8324 16.6694 12.2541 15.9171 12.3678C14.9334 11.5148 16.843 11.0599 15.3963 10.7756L16.5537 10.4912C14.644 9.41079 17.1323 10.2069 15.2227 8.95586C13.8918 9.58138 14.3547 10.4344 13.0816 11.1168C13.3709 11.856 13.8918 11.7991 14.1232 12.5384C13.6603 14.7561 10.709 11.3442 10.8826 13.562C11.2298 14.4149 12.3872 15.6091 11.1141 15.7797L10.2461 14.5855C9.26234 15.5523 11.3456 16.519 9.72528 16.9739C9.43594 16.4621 10.0146 15.8935 9.72528 15.8935C8.22072 15.8935 9.95675 16.917 9.49381 17.4288L8.39433 16.7464C8.04712 17.4288 7.87352 18.1681 7.64205 18.9642C7.46844 19.7603 7.23697 20.5564 6.94763 21.2957C6.6583 21.0113 6.42683 20.6133 5.90602 20.727C5.67455 21.7506 5.15374 22.6604 4.45933 23.5134C3.82278 24.3664 3.0705 25.2194 2.31822 25.9586L3.0705 27.0391C3.0705 27.0391 2.49183 27.1528 2.31822 26.9254C1.68168 27.494 2.95477 27.2097 3.30197 27.7215C3.30197 28.1195 2.49183 28.0627 2.26036 27.7215C2.49183 28.5176 2.7233 29.5412 2.66543 30.5079C2.66543 30.9628 2.5497 31.4746 2.43396 31.8726C2.31822 32.2707 2.02889 32.6688 1.68168 32.9531L1.39234 32.6119C0.697931 33.5786 3.41771 34.2041 2.14462 35.0002L1.97102 34.7728C1.56595 35.8532 1.56595 37.1043 1.45021 38.2416C1.45021 38.5259 1.39234 38.8102 1.33448 39.0946C1.33448 39.3789 1.27661 39.6632 1.16087 39.8907C0.987269 40.4025 0.755799 40.9143 0.350725 41.3692C1.16087 41.5398 0.987269 42.1084 0.871534 42.6771C0.755799 43.2457 0.871534 43.7575 1.97102 43.7575C0.987269 45.1223 0.524328 44.7811 0.00351969 46.8283C-0.0543479 47.3401 1.50808 47.3969 1.85528 47.9656L0.697931 48.193L2.08675 48.8186L0.813667 49.5578L1.21874 50.0696C1.21874 50.0696 1.62381 49.4441 1.97102 49.4441C2.31822 49.8421 2.26036 50.4108 1.97102 50.9226C1.73955 51.4344 1.39234 51.8893 1.103 51.9462L2.7233 53.7659C2.37609 53.8227 2.14462 53.709 1.91315 53.5384C2.78117 54.107 0.640064 53.9933 1.91315 54.6757C2.14462 54.4482 2.60756 54.5051 2.83903 54.4482C2.31822 55.1875 2.83903 56.3248 3.41771 57.064L2.60756 57.2346C3.01264 58.8837 4.45933 60.2485 5.32734 61.8407C5.32734 61.0446 6.6583 60.5328 7.0055 60.9309L6.02175 61.727C6.8319 61.6133 6.13749 60.9878 7.29484 61.1584C7.52631 61.7839 6.31109 62.2388 5.79028 62.1251L6.60043 62.58C6.60043 62.58 6.02175 62.7506 5.61668 62.9781C6.48469 62.8643 5.38521 64.8546 6.77403 64.5703L6.48469 64.7978C6.77403 65.1958 7.0055 65.4801 7.23697 65.7645C7.46844 66.0488 7.75778 66.2763 7.98925 66.4468C8.51006 66.8449 8.973 67.243 9.49381 67.8116C10.304 67.1292 10.5354 67.7548 11.4613 67.5273C11.9821 68.494 12.2136 69.9725 13.2552 70.8255C14.2968 71.053 14.0654 70.3706 14.8176 70.1431C14.1811 70.8824 15.2806 71.6785 14.2968 71.7353C14.9912 72.1903 15.3963 72.4746 15.9171 72.702C16.1486 72.8158 16.4379 72.9295 16.7851 73.1001C17.1323 73.2138 17.5374 73.3276 18.1161 73.4413C18.1161 72.9864 18.1161 72.7589 18.3476 72.5315C18.7526 72.5883 18.7526 73.3276 18.4633 73.6688H18.3476C19.6785 73.6688 20.3151 75.0335 21.1252 76.114C21.5303 76.6826 21.9354 77.2513 22.3983 77.5925C22.6298 77.7631 22.8612 77.8768 23.1506 77.9337C23.4399 77.9337 23.7292 77.9337 24.0186 77.7631H23.9028L26.044 77.5925C26.7384 78.0474 25.2917 78.0474 25.6389 78.8435C26.2754 78.6729 26.7384 78.6729 27.1434 78.7867C27.5485 78.8435 27.8957 79.0141 28.2429 79.1847C28.9373 79.5259 29.5739 79.924 30.4998 79.6396C30.7312 81.2319 31.9464 81.3456 33.1617 81.4593C33.7982 81.4593 34.4348 81.4593 34.9556 81.6299C35.5342 81.6868 36.0551 81.9143 36.4601 82.426V81.7437C36.9809 81.1181 36.9231 82.1986 37.2703 82.3692C37.2703 81.8574 36.8652 81.7437 37.1545 81.4025C39.0642 81.2887 40.9738 81.4025 42.9992 81.8574C43.9829 82.028 45.0245 82.1417 46.0661 82.3123C46.587 82.3692 47.1078 82.426 47.6286 82.4829C48.1494 82.4829 48.6702 82.4829 49.191 82.4829C50.6956 82.3692 49.3067 78.9573 51.39 80.1514L51.1585 81.4593C52.4316 80.3789 53.8204 79.924 55.2671 79.5828C56.6559 79.071 58.0448 78.6161 59.0864 77.4219C59.0864 77.7631 59.2021 78.1043 58.9706 78.218C59.8965 78.7867 60.996 77.2513 60.6488 76.5689C61.0539 76.4552 61.0539 77.0807 61.4589 77.3082C62.2691 77.4788 62.2112 75.6022 62.9635 76.2277C63.0214 76.2846 63.0214 76.3983 62.9635 76.512C63.2528 76.0002 64.4102 75.7159 63.6 75.0904C64.7574 74.9198 65.0467 73.6119 66.0884 73.6119C65.799 72.3609 67.8823 72.9295 66.9564 71.5647C67.998 72.9295 69.3289 71.451 69.2132 70.3706C69.3868 70.8824 70.0234 70.3706 70.3127 71.053C70.8335 70.4843 71.1228 69.8019 70.4284 69.2901C71.6436 69.5176 71.8751 68.7215 72.0487 68.0391C72.2223 67.3567 72.3381 66.788 73.6111 67.2998C73.7847 66.7312 74.0162 66.1625 74.1898 65.6507C74.3634 65.0821 74.4792 64.5703 74.6528 64.0585C74.8264 63.5467 75 63.0349 75.1736 62.58L75.4629 61.8407L75.6944 61.1015C76.3888 61.5564 76.2152 62.0682 75.9258 62.5231C75.6944 62.9781 75.405 63.433 76.2152 63.8879C76.3309 63.3761 76.3888 62.9212 76.4467 62.4663C76.4467 62.0113 76.4467 61.5564 76.4467 61.1584C76.4467 60.3054 76.5624 59.5661 77.1989 58.8269C77.6619 58.4857 77.7197 59.3955 77.8933 59.6799C78.067 58.7131 78.4142 57.8602 78.8192 57.064C79.1664 56.2679 79.5715 55.4718 79.34 54.5051C79.5136 54.5051 79.5715 54.7894 79.6872 55.0169C79.6872 54.6757 80.1502 54.3345 79.3979 54.1639L79.5136 54.562C78.2984 54.6757 77.6619 52.5717 77.0832 52.4011C79.0507 53.5953 78.1248 51.0363 80.5553 52.6854C80.4974 52.4579 80.2081 52.0599 79.6872 52.003C79.9187 51.7187 80.2659 51.7187 80.7289 52.1736C80.7289 51.5481 80.4395 51.2638 80.2081 51.0363C79.9766 50.8088 79.803 50.5814 79.9187 50.0696C80.2659 50.1833 80.3817 50.4108 80.7867 50.5814L80.9025 50.4108ZM69.8498 17.1445C69.8498 17.1445 69.4447 17.5425 69.2132 17.7131C69.0975 17.5425 68.9817 17.4288 68.8081 17.2582C69.0975 17.0308 69.4447 16.9739 69.8498 17.0876V17.1445ZM55.3828 7.02244C55.3828 7.30677 55.325 7.59109 55.2671 7.93229C55.0356 7.87542 54.862 7.76169 54.6306 7.70482C54.8042 7.47736 54.9778 7.2499 55.3828 7.0793V7.02244ZM50.9849 5.43021C50.9849 5.43021 50.9849 6.11259 50.8692 6.45378C50.5798 6.39692 50.3484 6.34005 50.059 6.28319C50.3484 5.99886 50.6377 5.71453 50.9849 5.48707V5.43021ZM7.69991 21.1819C7.69991 21.1819 7.64205 21.4094 7.52631 21.6369C7.58418 21.4663 7.64205 21.2957 7.69991 21.1819ZM7.12124 22.5467C7.46844 22.6604 7.75778 22.8879 7.69991 23.0585C7.52631 22.831 7.12124 23.1154 6.71616 23.2291C6.88977 23.0585 7.0055 22.831 7.12124 22.5467Z" fill="#F82A8B"/>
<path d="M2.14468 53.4818C2.14468 53.4818 1.97107 53.368 1.85534 53.3112C1.97107 53.3112 2.02894 53.4249 2.14468 53.4818Z" fill="#F48E3B"/>
<path d="M47.3972 4.80449L47.2814 4.69076C47.2814 4.69076 47.2814 4.80449 47.3972 4.80449Z" fill="#F48E3B"/>
<path d="M63.1372 76.455C63.1372 76.455 63.1372 76.5688 63.0793 76.6256C63.0793 76.6256 63.0793 76.5119 63.1372 76.455Z" fill="#F48E3B"/>
<path d="M0.697931 48.193L0.98733 48.1367L0.697992 48.023L0.697931 48.193Z" fill="#F48E3B"/>
<path d="M67.4771 13.1067C67.4771 13.1067 67.535 12.9361 67.535 12.8224C67.535 12.8224 67.4771 12.993 67.4771 13.1067Z" fill="#F48E3B"/>
<path d="M64.2366 10.207L63.9472 9.58148C64.063 9.92267 64.1208 10.0933 64.2366 10.207Z" fill="#F48E3B"/>
<path d="M61.6905 7.93168C61.6905 7.93168 61.459 8.15914 61.4011 8.27287L61.6905 7.93168Z" fill="#F48E3B"/>
<path d="M79.7451 54.8463C79.7451 54.8463 79.7451 54.96 79.7451 55.0169C79.8609 55.358 79.8609 55.1306 79.7451 54.8463Z" fill="#F48E3B"/>
<path d="M79.5716 38.8665C79.5716 38.8665 79.9766 39.1508 80.1503 39.3214C80.1503 39.0371 80.1503 38.8096 79.5716 38.8665Z" fill="#F48E3B"/>
<path d="M70.4284 70.9961C70.4284 70.9961 70.4284 70.9966 70.3706 71.0535L70.4862 71.053L70.4284 70.9961Z" fill="#F48E3B"/>
<path d="M80.0923 40.0611C80.0923 40.0611 80.2659 39.5493 80.0923 39.3219C80.0345 39.5493 79.9187 39.8337 80.0923 40.0611Z" fill="#F48E3B"/>
<path d="M47.7444 2.41679C47.7444 2.41679 47.7444 2.53052 47.7444 2.58738L47.9759 2.47365H47.8023L47.7444 2.41679Z" fill="#F48E3B"/>
<path d="M47.6864 2.5875L47.455 2.70123C47.455 2.70123 47.6286 2.70123 47.6864 2.5875Z" fill="#F48E3B"/>
<path d="M47.0499 2.92764L47.455 2.70123C47.455 2.70123 47.1656 2.64331 47.0499 2.92764Z" fill="#F48E3B"/>
<path d="M52.2581 3.95165L52.4317 3.61046C52.4317 3.61046 52.3159 3.78105 52.2581 3.95165Z" fill="#F48E3B"/>
<path d="M53.589 4.23571C53.589 4.23571 53.0103 3.21213 52.5474 3.32586L52.4317 3.61046C52.7789 3.15553 53.126 4.80436 53.6468 4.29258L53.589 4.23571Z" fill="#F48E3B"/>
<path d="M79.5137 32.043C79.5137 32.043 79.8609 31.6449 79.9766 31.4743H79.0508C79.0508 31.4743 79.398 31.8724 79.5137 32.043Z" fill="#F48E3B"/>
<path d="M31.002 54.6171L51.813 42.8101L31.002 29.3488V23.4829L57.002 41.1557V44.9158L31.002 60.4829V54.6171Z" fill="#F5F5F5"/>
</svg>
