<svg width="1920" height="521" viewBox="0 0 1920 521" fill="none" xmlns="http://www.w3.org/2000/svg">
<path d="M2045.19 0.0146484H-438V621.688H2045.19V0.0146484Z" fill="#D33882"/>
<g style="mix-blend-mode:soft-light" opacity="0.07">
<path d="M803.596 0.0146484C855.381 37.4863 841.09 113.535 796.173 150.609C806.312 120.95 814.564 93.9002 800.842 63.6222C791.323 42.6162 761.537 24.9859 783.731 0.0146484H803.596Z" fill="black"/>
<path d="M878.093 0.0146484C895.773 50.5469 862.754 106.828 830.938 145.833C840.509 110.351 855.201 79.1003 843.199 41.9824C838.659 27.9342 827.42 15.9939 828.429 0.0293895H878.093V0.0146484Z" fill="black"/>
<path d="M1282.85 0.0146484C1288.75 27.0055 1285.08 62.9883 1262.84 82.358C1249.56 93.9297 1221.32 105.546 1212.68 83.0214C1204.99 63.0031 1238.85 44.5326 1249.16 30.9266C1255.39 22.7011 1261.56 10.2007 1262.99 0.0146484H1282.85Z" fill="black"/>
<path d="M6.49355 0.0146484C18.4051 18.1903 39.9391 37.0589 30.6271 60.3055C26.8894 69.6365 20.6426 73.2481 10.3089 71.8035C-19.2178 67.6612 -35.2939 25.2365 -35.7207 0.0293895H6.49355V0.0146484Z" fill="black"/>
<path d="M185.281 0.0146484L190.222 9.58157C166.58 -3.09571 138.851 3.67042 116.929 16.7015C106.893 22.6569 99.0033 31.7668 88.5143 37.162C50.8785 56.517 19.5281 40.9357 41.2561 0.0293895H185.281V0.0146484Z" fill="black"/>
<path d="M1297.75 0.0146484H1312.65C1323.51 21.2122 1335.22 38.3561 1332.53 63.3863C1327.67 108.568 1276.61 109.673 1286.45 64.4035C1291.04 43.2796 1308.25 25.9146 1297.76 0.0146484H1297.75Z" fill="black"/>
<path d="M955.072 0.0146484C977.563 23.5413 982.516 51.4019 984.973 82.3875C985.206 85.321 987.289 96.9369 981.171 95.6544C974.834 72.7321 962.198 53.3772 941.97 40.125C924.303 28.5533 895.837 25.7377 900.454 0.0293895H955.085L955.072 0.0146484Z" fill="black"/>
<path d="M515.548 0.014741C529.8 29.3789 541.466 63.3275 531.663 95.6398L522.325 68.7816C510.439 37.0737 464.733 32.2386 455.951 0H515.548V0.014741Z" fill="black"/>
<path d="M411.253 0.0146484C421.535 45.2549 356.52 29.2314 332.903 54.8808C327.523 60.7182 328.248 67.9413 321.871 71.7298C320.1 41.8792 337.934 17.5712 361.577 0.0146484H411.24H411.253Z" fill="black"/>
<path d="M1153.73 0.014741C1171.61 18.5295 1182.04 42.7195 1183.62 68.0446C1183.81 71.096 1185.98 82.535 1179.81 81.2968C1174.58 36.5577 1106.6 42.2625 1104.05 0H1153.71L1153.73 0.014741Z" fill="black"/>
<path d="M1603.19 0.0146484C1633.02 12.9425 1647.09 43.9282 1647.86 74.1178C1641.2 68.5899 1640.1 59.7158 1634.02 52.8023C1618.68 35.3341 1604.91 43.6333 1585.26 37.5895C1562.21 30.4991 1557.12 9.72898 1580.84 0.0146484L1603.19 0.0146484Z" fill="black"/>
<path d="M1503.86 0.0146484C1512.03 30.6023 1504.05 57.2246 1487.03 83.0214C1485.51 85.3357 1469.25 108.391 1466.64 105.192C1474.9 78.9676 1483.76 56.4433 1475.3 28.7007C1472.18 18.4704 1463.92 10.5397 1461.66 0.0146484H1503.87L1503.86 0.0146484Z" fill="black"/>
<path d="M1325.07 0.0146484H1342.45C1358.01 13.0752 1377.86 30.6318 1379.1 52.0063C1379.94 66.5999 1366.35 91.9102 1348.93 81.0313C1337.86 74.1325 1344.07 47.7903 1341.88 35.2457C1339.71 22.7601 1329.75 11.4389 1325.08 0.0146484L1325.07 0.0146484Z" fill="black"/>
<path d="M1903.65 0.0146484H1958.28C1957.05 12.4856 1945.88 27.1234 1935.98 34.7298C1898.19 63.7991 1871.51 30.1158 1903.65 0.0146484Z" fill="black"/>
<path d="M1816.74 0.0146484C1831.02 22.1852 1843.16 30.1011 1841.56 58.6102C1840.33 80.5744 1833.95 55.7505 1830.28 50.3258C1815.96 29.1577 1773.8 21.4628 1768.82 11.2915C1766.84 7.25249 1768.2 3.89154 1769.56 0.0146484L1816.74 0.0146484Z" fill="black"/>
<path d="M582.593 0.0146484C582.916 21.964 573.061 54.2616 558.86 71.5971C556.532 74.4274 554.734 77.3461 550.324 76.5058C549.264 73.7493 552.794 71.1696 552.794 70.5505V34.7003C552.794 27.4477 539.227 7.51783 535.412 0.0441305H582.593V0.0146484Z" fill="black"/>
<path d="M1551.04 0.0146484C1547.8 27.1824 1530.47 50.1489 1516.08 72.7911C1512.81 77.9505 1512.56 85.9696 1505.1 90.8783C1505.56 71.8919 1515.52 54.1584 1518.42 34.3612C1520.11 22.819 1521.99 11.3063 1518.76 0.0293895H1551.04V0.0146484Z" fill="black"/>
<path d="M277.159 0.0146484C281.389 9.33098 289.64 23.733 291.089 33.4473C291.684 37.4274 291.826 39.3879 287.118 40.6557C282.384 -7.81284 220.059 27.6246 197.697 0.0146484H277.159Z" fill="black"/>
<path d="M652.123 0.0146484H706.753C707.232 40.7146 661.694 30.617 652.123 0.0146484Z" fill="black"/>
<path d="M1205.87 0.0146484C1207.52 16.4067 1213.67 39.2995 1200.93 52.6106C1204 30.6318 1189.41 16.7015 1178.56 0.0146484H1205.87Z" fill="black"/>
<path d="M1352.38 0.0146484H1404.53C1400.52 26.2684 1363 17.0405 1352.38 0.0146484Z" fill="black"/>
<path d="M1657.82 0.0146484C1654.21 14.2545 1667.61 34.7298 1655.36 45.4318C1653.69 27.6098 1643.06 14.1071 1632.98 0.0146484H1657.82Z" fill="black"/>
<path d="M331.792 0.014741C318.794 14.0924 311.176 31.1036 311.9 50.2079C307.387 49.3087 307.283 45.5056 306.869 41.9235C305.408 29.3936 306.585 12.294 309.443 0H331.792V0.014741Z" fill="black"/>
<path d="M1953.3 227.1C1935.18 220.54 1917.54 220.525 1899.22 226.422C1880.06 232.598 1871.25 245.777 1855.72 253.884C1840.16 262.007 1820.79 271.22 1804.39 259.324C1785.14 245.364 1806.87 212.433 1822.46 202.733C1857.04 181.226 1910.61 191.235 1942.49 213.641C1943.81 214.57 1955.26 225.39 1953.3 227.1Z" fill="black"/>
<path d="M1129.62 310.092C1113.32 291.725 1137.44 262.095 1154.55 253C1196.55 230.682 1250.39 248.445 1282.84 278.502C1273.89 278.753 1266.58 275.171 1256.88 274.802C1208.15 272.945 1189.54 314.691 1154.26 317.433C1147.75 317.935 1133.74 314.721 1129.62 310.078V310.092Z" fill="black"/>
<path d="M607.426 322.696C577.795 314.278 556.339 318.126 530.654 333.678C522.609 338.557 517.255 344.999 509.831 349.495C440.314 391.462 429.075 312.893 490.03 292.182C532.581 277.721 576.256 293.936 607.426 322.71V322.696Z" fill="black"/>
<path d="M969.998 392.052C974.796 367.464 971.899 346.34 959.574 324.376C951.542 310.062 923.14 282.482 920.787 270.733C918.898 261.299 926.801 248.106 936.514 246.293C963.104 241.31 995.153 280.094 999.175 302.987C1004.5 333.338 992.101 370.5 969.998 392.052Z" fill="black"/>
<path d="M292.085 439.858C296.69 419.382 294.284 399.393 285.813 380.127C277.303 360.787 245.875 333.457 242.861 318.539C239.537 302.088 256.273 291.017 272.259 295.16C283.536 298.093 302.432 314.942 309.028 324.317C333.653 359.239 321.535 411.732 292.085 439.858Z" fill="black"/>
<path d="M1640.46 346.62C1647.7 317.757 1640.26 292.093 1624.07 267.947C1614.05 253.014 1583.72 230.151 1593.59 211.872C1604.83 191.013 1629.13 202.57 1642.96 213.921C1685.08 248.518 1676.03 311.109 1640.47 346.62H1640.46Z" fill="black"/>
<path d="M1477.15 621.998H1534.95C1525.9 591.116 1474.63 566.734 1503.38 521.862C1508.81 513.386 1518.75 509.141 1521.22 499.618C1479.58 515.936 1459.28 564.095 1470.28 604.854C1471.51 609.395 1474.04 615.674 1477.15 622.013V621.998Z" fill="black"/>
<path d="M1781.95 136.266C1777.89 147.071 1767.08 152.392 1761.67 163.33C1736.58 214.01 1804.14 235.812 1796.32 273.151C1790.12 302.766 1758.67 289.366 1745.18 270.895C1712.79 226.54 1729.59 158.186 1781.95 136.266Z" fill="black"/>
<path d="M1109.03 186.488C1102.68 194.994 1093.41 201.318 1088.72 211.15C1069.82 250.833 1100.74 265.117 1116.92 294.805C1140.19 337.481 1093.85 358.87 1067.28 311.522C1042.55 267.431 1058.37 204.178 1109.02 186.503L1109.03 186.488Z" fill="black"/>
<path d="M442.834 381.807C426.797 397.211 405.03 378.667 395.86 365.017C372.645 330.464 377.392 282.261 406.233 252.145C411.083 247.074 423.822 236.652 429.914 234.294C442.291 229.503 420.084 251.216 419.102 252.587C381.453 304.933 452.133 326.174 448.615 366.933C448.292 370.707 445.447 379.286 442.821 381.807H442.834Z" fill="black"/>
<path d="M570.15 286.86C554.734 279.033 539.705 271.618 521.689 272.414C494.995 273.593 453.298 309.901 433.6 280.905C423.719 266.356 433.872 247.856 447.672 239.453C481.311 218.948 527.173 244.185 552.832 266.518C555.535 268.876 572.853 284.148 570.15 286.875V286.86Z" fill="black"/>
<path d="M1918.55 188.832C1903.54 185.309 1885.95 173.885 1870.19 174.401C1843.87 175.271 1801.29 215.322 1780.85 183.968C1766.9 162.549 1791.25 139.17 1813.29 136.546C1855.61 131.519 1893.01 159.616 1918.54 188.832H1918.55Z" fill="black"/>
<path d="M1245.61 241.428C1230.1 237.919 1216.56 227.055 1199.93 227.365C1173.45 227.866 1132.79 264.321 1111.5 240.278C1093.16 219.567 1117.58 192.104 1140.3 189.068C1182.03 183.51 1220.84 212.005 1245.62 241.428H1245.61Z" fill="black"/>
<path d="M1657.82 552.184C1642.79 549.56 1627.6 537.988 1611.89 537.885C1583.66 537.693 1540.56 578.688 1520.11 547.319C1508.8 529.939 1523.62 510.304 1540.99 503.096C1581.41 486.335 1633.44 522.643 1657.8 552.184H1657.82Z" fill="black"/>
<path d="M1923.46 403.978L1918.58 402.828C1932.26 371.341 1942.59 335.108 1932.13 301.262C1929.57 292.963 1920.77 280.89 1919.09 273.181C1907.88 221.793 1968.05 230.667 1972.84 278.782C1977.34 323.978 1945.85 366.963 1923.45 403.978H1923.46Z" fill="black"/>
<path d="M1426.71 621.997H1452.53C1461.37 612.003 1452.62 587.739 1451.75 577.273C1448.27 535.187 1481.94 516.157 1511.3 492.468C1460.83 496.138 1403.64 535.541 1409.48 589.272C1410.71 600.564 1416.46 614.877 1426.71 621.997Z" fill="black"/>
<path d="M385.555 257.349C373.953 269.849 363.025 278.561 361.744 297.96C360.632 314.883 379.89 347.799 358.485 356.777C341.323 363.97 327.458 346.237 323.061 332.321C305.472 276.63 366.724 230.682 418.677 224.712L385.555 257.349Z" fill="black"/>
<path d="M1096.61 179.324C1074.59 198.207 1041.88 218.521 1039.41 249.713C1038.18 265.205 1044.08 274.846 1044.61 288.025C1046.19 327.472 1000.83 313.409 997.325 273.696C992.759 221.867 1046.5 180.916 1096.61 179.324Z" fill="black"/>
<path d="M160.425 186.475C159.325 187.639 154.825 187.993 155.872 183.305C162.442 153.956 175.828 135.397 172.957 101.537C170.836 76.5212 151.216 59.9671 155.639 34.8189C160.244 8.63879 191.995 20.3579 202.303 37.428C227.264 78.8061 186.744 143.387 162.779 178.043C160.748 180.976 160.735 186.15 160.425 186.475Z" fill="black"/>
<path d="M572.686 502.005C581.817 467.496 596.289 436.26 585.166 400.321C580.433 385.05 568.508 371.93 570.06 354.993C572.052 333.338 592.163 329.594 608.304 342.198C652.549 376.706 601.165 468.794 572.686 502.005Z" fill="black"/>
<path d="M1769.53 133.833C1758.64 139.612 1742.94 150.299 1734.6 158.819C1729.98 163.536 1718.41 180.474 1716.21 186.518C1707.4 210.811 1716.81 219.154 1717.54 240.219C1718.9 279.106 1676.43 263.864 1670.83 230.107C1661.79 175.654 1717.9 135.661 1768.36 129.131L1769.53 133.819V133.833Z" fill="black"/>
<path d="M1248.12 456.588C1256.73 423.568 1272.11 391.138 1261.26 356.673C1255.93 339.736 1243.21 329.933 1245.81 309.812C1248.85 286.388 1271.56 286.55 1286.68 301.114C1324.47 337.495 1277.53 424.541 1248.12 456.588Z" fill="black"/>
<path d="M120.746 198.414C130.032 168.475 137.159 140.835 123.643 110.734C117.642 97.3787 98.7596 79.0851 98.7208 65.7445C98.6949 58.7425 106.933 46.3453 114.577 45.505C115.366 45.4166 127.122 45.7409 127.691 46.0504C128.946 46.7433 144.88 64.5652 146.626 67.0859C175.777 109.437 156.985 166.308 120.746 198.399V198.414Z" fill="black"/>
<path d="M1886.22 418.336C1877.39 415.52 1885.75 409.698 1887.45 403.934C1894.78 379.154 1897.99 355.067 1886.71 330.641C1878.39 312.643 1850.77 293.671 1866.3 271.839C1878.59 254.592 1903.08 276.925 1910.69 288.423C1930.99 319.129 1924.92 363.028 1905.68 392.79C1899.9 401.752 1890.11 408.548 1886.22 418.321V418.336Z" fill="black"/>
<path d="M1252.36 374.835C1254.84 409.211 1237.32 438.811 1214.57 463.708C1208.24 459.551 1213.17 459.168 1213.87 455.955C1221.56 420.768 1232.13 406.675 1212.12 370.486C1203.48 354.861 1177.55 333.855 1198.26 316.608C1225.75 293.685 1250.83 353.858 1252.34 374.835H1252.36Z" fill="black"/>
<path d="M535.438 513.961C546.548 484.479 553.829 459.066 540.818 428.67C532.657 409.609 504.139 387.749 520.849 367.288C533.084 352.311 554.359 370.384 562.313 381.675C590.896 422.257 573.682 484.405 535.425 513.946L535.438 513.961Z" fill="black"/>
<path d="M334.275 372.918C354.774 394.514 359.74 438.191 349.691 465.447C341.75 486.984 297.156 525.311 284.029 494.222C274.006 470.474 306.869 455.453 318.962 438.25C322.725 432.899 334.275 412.512 334.275 407.589V372.933V372.918Z" fill="black"/>
<path d="M1009.7 322.726C1041.35 356.497 1037.74 437.337 987.909 453.567C961.409 462.205 949.484 439.224 963.879 418.454C968.975 411.098 980.485 405.555 987.405 398.067C993.729 391.227 1009.7 365.592 1009.7 357.382V322.726Z" fill="black"/>
<path d="M591.646 128.247C575.467 143.136 541.569 151.199 542.642 120.7C543.353 100.49 564.474 93.1931 576.411 78.9238C594.401 57.4314 595.281 36.2191 596.238 9.58203C620.19 43.0884 623.786 98.6473 591.646 128.247Z" fill="black"/>
<path d="M1680.18 277.323C1686.79 276.011 1684.45 278.945 1686.33 282.026C1702.67 308.663 1706.44 354.183 1690.16 381.351C1680.99 396.637 1646.02 423.363 1631.95 401.428C1617.04 378.152 1646.81 365.047 1659.08 351.441C1677.22 331.349 1685.56 303.415 1680.18 277.323Z" fill="black"/>
<path d="M950.079 411.172L936.344 375.41C922.686 353.151 885.529 342.538 874.626 320.087C862.469 295.072 881.39 278.06 907.153 288.762C919.285 293.804 928.894 306.54 935.62 318.746C951.334 347.225 956.985 379.464 950.079 411.172Z" fill="black"/>
<path d="M1620.54 368.143L1614.33 344.248C1603.8 312.702 1577.36 307.454 1555.96 288.114C1525.65 260.696 1547.96 223.047 1584.16 246.633C1617.91 268.612 1629.35 332.013 1620.54 368.158V368.143Z" fill="black"/>
<path d="M272.154 458.976C265.933 464.769 266.813 443.011 266.011 439.827C256.402 401.943 197.982 390.179 193.274 359.164C189.627 335.166 212.17 328.768 231.712 338.969C255.975 351.632 271.728 392.317 274.366 417.435C275.09 424.275 275.789 455.585 272.141 458.976H272.154Z" fill="black"/>
<path d="M1415.38 204.105C1403.83 211.534 1401.58 221.411 1393.88 230.078L1382.2 277.279C1367.01 236.196 1383.16 136.325 1445.36 145.981C1463.8 148.84 1465.17 166.81 1456.23 180.077C1445.9 195.437 1429.53 195.009 1415.37 204.105H1415.38Z" fill="black"/>
<path d="M714.177 322.71C710.659 323.27 710.582 318.479 709.961 316.076C700.92 281.184 708.758 212.432 747.299 195.613C787.871 177.909 808.228 214.127 776.128 235.31C766.919 241.384 755.033 243.049 745.67 249.02C721.265 264.557 715.561 296.441 714.19 322.71H714.177Z" fill="black"/>
<path d="M1132.18 621.997C1134.51 603.659 1136.01 586.751 1150.16 571.465C1166.55 553.761 1215.91 549.972 1205.36 515.626C1200.18 498.806 1171.59 504.187 1159.43 511.056C1125.43 530.249 1118.5 583.98 1123.81 621.982H1132.19L1132.18 621.997Z" fill="black"/>
<path d="M107.437 276.482C95.7199 288.629 71.3148 292.447 58.6272 305.478C42.9003 321.619 41.8915 343.952 38.7099 364.545C38.0633 368.717 40.0291 368.569 33.8082 368.142C29.385 331.407 27.251 289.056 52.6391 258.395C84.8171 219.523 138.025 244.774 107.425 276.482H107.437Z" fill="black"/>
<path d="M1801.83 588.049C1794.74 589.184 1797.7 586.604 1796.54 582.521C1786.98 548.897 1796.12 485.157 1829.37 465.168C1865.42 443.498 1900.02 476.946 1861.27 503.037C1851.57 509.568 1837.98 512.192 1828.35 519.164C1808 533.89 1801.06 564.655 1801.81 588.049H1801.83Z" fill="black"/>
<path d="M1362.29 100.416C1365.04 103.143 1349.19 119.004 1346.92 122.66C1322.09 162.741 1362.9 191.781 1357.35 221.042C1353.99 238.746 1331.9 236.284 1320.35 225.685C1285.19 193.417 1314.53 110.897 1362.29 100.416Z" fill="black"/>
<path d="M426.656 621.998C424.846 605.135 411.24 583.303 409.364 571.952C404.928 545.035 413.645 534.127 429.747 514.978C430.446 514.153 439.007 509.716 429.89 509.229C424.16 508.92 400.04 527.567 395.332 533.287C377.937 554.411 367.486 596.496 380.316 621.998H426.656Z" fill="black"/>
<path d="M691.826 145.833C687.429 157.567 675.815 165.424 671.43 177.57C658.264 214.069 689.434 234.81 686.743 263.85C684.079 292.668 649.909 278.959 639.977 256.73C622.568 217.754 648.28 158.245 691.826 145.848V145.833Z" fill="black"/>
<path d="M1109.03 461.394C1091.2 480.085 1080.34 494.915 1084.79 521.743C1087.32 536.912 1125.58 601.728 1078.56 592.279C1026.72 581.872 1053.44 461.482 1109.03 461.379V461.394Z" fill="black"/>
<path d="M16.397 193.639C18.5698 195.747 0.670101 214.217 -1.46389 218.256C-22.5064 258.027 14.5863 282.011 10.9909 311.331C7.58942 339.103 -26.5804 326.617 -36.1898 305.243C-53.4428 266.887 -27.9254 204.591 16.397 193.639Z" fill="black"/>
<path d="M1751.14 429.303C1760.57 421.033 1767.57 418.115 1779.47 413.56C1775.91 423.185 1766.83 428.654 1761.66 438.221C1741.34 475.84 1771.44 494.503 1772.19 527.036C1773 562.341 1732.56 546.627 1724.73 520.034C1715.49 488.636 1726.5 450.899 1751.13 429.288L1751.14 429.303Z" fill="black"/>
<path d="M1312.65 112.371C1310.52 117.56 1301.09 116.661 1296.03 119.093C1268.55 132.33 1266 155.813 1248.19 173.428C1207.81 213.362 1172.2 146.747 1227.29 122.233C1234.16 119.181 1257.72 112.371 1264.23 112.371H1312.65Z" fill="black"/>
<path d="M1056.88 470.932L1028.75 485.172C1016.58 497.613 1006.96 516.821 994.855 529.542C953.598 572.895 920.334 510.585 967.411 483.992C976.956 478.597 1002.94 470.917 1013.43 470.917H1056.88V470.932Z" fill="black"/>
<path d="M1729.83 425.515L1697.62 441.229C1684.51 454.54 1672.93 480.292 1657.88 491.319C1622.75 517.027 1600.57 469.87 1626.39 445.474C1634.72 437.602 1667.66 425.515 1678.92 425.515H1729.83Z" fill="black"/>
<path d="M639.706 157.788L612.365 173.296C598.203 183.231 592.603 201.112 582.476 213.288C538.529 266.105 496.483 186.975 563.865 164.864C569.375 163.051 589.344 157.788 593.754 157.788H639.693H639.706Z" fill="black"/>
<path d="M1988.08 62.1621L1964.4 74.1318C1948.63 86.1605 1941.36 103.054 1929.52 116.94C1887.03 166.691 1851.37 101.889 1898.61 75.2374C1906.95 70.5203 1933.24 62.1621 1942.14 62.1621H1988.08Z" fill="black"/>
<path d="M48.7308 413.559C38.7075 370.603 57.1503 311.964 106.271 300.451C133.133 294.156 159.996 307.232 133.172 328.739C108.211 348.757 71.5839 348.256 57.4219 384.902C53.2574 395.663 56.245 407.028 48.7178 413.544L48.7308 413.559Z" fill="black"/>
<path d="M729.089 363.366C723.204 363.719 724.717 364.132 724.148 359.798C718.833 318.789 730.628 271.957 774.536 255.314C814.487 240.175 839.474 265.22 798.36 287.803C764.216 306.554 728.041 315.192 729.089 363.366Z" fill="black"/>
<path d="M1399.55 317.935C1393.56 318.318 1395.22 318.657 1394.64 314.382C1388.91 273.063 1400.34 230.565 1441.83 211.623C1455.4 205.432 1487.81 198.002 1489.19 218.728C1490.61 240.014 1451.28 248.063 1435.5 258.131C1414.68 271.412 1397.2 292.61 1399.55 317.935Z" fill="black"/>
<path d="M1815.14 621.997C1819.07 597.056 1834.76 579.72 1858.15 566.954C1871.24 559.82 1904.92 551.904 1906.12 534.111C1906.69 525.724 1900.53 520.166 1892.35 518.899C1852.4 512.707 1814.01 553.614 1809.3 589.258C1808.07 598.618 1809.07 611.487 1809.26 621.997H1815.14Z" fill="black"/>
<path d="M859.856 281.258C850.492 290.265 839.033 287.154 832.243 277.219C815.702 253.014 834.726 211.857 807.321 191.249C801.061 186.532 795.163 185.766 788.723 182.744C785.14 181.063 782.502 183.245 783.756 176.906C799.962 179.014 815.249 180.252 829.269 189.244C853.247 204.619 884.261 257.79 859.869 281.243L859.856 281.258Z" fill="black"/>
<path d="M1451.71 131.52C1494.57 129.294 1536.22 166.176 1538.66 206.876C1541.05 246.721 1504.71 256.096 1496.68 213.701C1492.19 190.027 1499.75 161.282 1476.37 144.801C1468.65 139.362 1457.65 138.522 1451.71 131.52Z" fill="black"/>
<path d="M182.047 331.541C175.374 336.288 163.152 333.944 157.849 328.151C144.916 314.029 151.719 272.135 142.82 252.441C135.526 236.299 118.377 234.707 105.818 224.742C145.2 224.492 174.481 245.925 187.221 281.422C192.109 295.042 195.86 321.738 182.06 331.541H182.047Z" fill="black"/>
<path d="M1868.89 444.663C1903.42 447.523 1925.21 455.468 1941.94 485.466C1951.31 502.3 1964.01 540.701 1941.77 551.904C1905.99 569.932 1913.31 489.387 1905.54 472.686C1897.68 455.793 1881.58 455.336 1868.88 444.663H1868.89Z" fill="black"/>
<path d="M1274.71 596.923C1265.59 604.161 1252.42 599.576 1247.04 590.26C1232.71 565.407 1250.25 521.965 1220.61 503.362L1198.44 492.468C1246.03 484.876 1290.28 538.947 1282.28 581.533C1281.64 584.968 1277.2 594.948 1274.71 596.923Z" fill="black"/>
<path d="M729.088 456.573C721.691 457.812 725.157 454.687 723.863 450.987C706.3 400.602 691.284 408.238 653.778 382.087C631.52 366.565 650.609 343.908 678.985 350.674C721.005 360.698 731.934 421.357 729.088 456.588V456.573Z" fill="black"/>
<path d="M1399.54 411.171C1391.79 405.776 1391.8 393.791 1387.59 385.639C1382.81 376.426 1370.63 363.867 1362.09 357.587C1350.17 348.816 1314.23 336.67 1315.17 321.707C1316.74 296.854 1350.45 302.47 1366.03 313.172C1395.73 333.589 1401.08 378.652 1399.54 411.171Z" fill="black"/>
<path d="M311.926 141.057C304.981 134.04 304.088 123.028 298.876 114.066C294.298 106.194 280.938 92.4406 273.009 86.4853C257.153 74.5892 217.914 66.1132 231.429 43.2351C241.957 25.3837 273.979 37.4566 286.214 48.6893C297.738 59.2586 311.926 91.4677 311.926 106.4V141.057Z" fill="black"/>
<path d="M51.1901 496.035C51.2289 497.966 56.8161 501.932 48.7327 504.394C46.7281 485.009 35.4244 466.804 20.2019 454.141C7.66954 443.72 -30.0957 430.733 -31.001 417.156C-32.7082 391.315 3.99648 394.735 19.3871 404.081C30.1864 410.641 51.1772 448.348 51.1772 460.171C51.1772 471.993 50.9702 484.08 51.1772 496.021L51.1901 496.035Z" fill="black"/>
<path d="M361.536 384.874C383.16 414.562 405.897 434.64 401.319 474.529C396.352 517.853 347.853 515.642 355.25 475.605C359.687 451.577 372.878 445.99 367.925 415.83C366.218 405.497 359.376 396.903 357.656 389.783C356.945 386.82 358.859 385.419 361.549 384.874H361.536Z" fill="black"/>
<path d="M1702.52 291.666C1707.21 286.845 1732.09 320.735 1734.3 324.391C1748.02 347.121 1755.99 374.628 1740.23 398.479C1730.87 412.631 1713.34 418.217 1704.48 400.926C1693.98 380.436 1713.22 361.066 1715.01 340.753C1715.65 333.442 1715.11 325.069 1713.82 317.816C1711.89 307.114 1706.16 301.115 1702.52 291.666Z" fill="black"/>
<path d="M1037.69 453.537C1035.32 451.223 1029.54 437.646 1029.5 433.946C1029.32 419.5 1041.62 405.29 1043.88 392.671C1047.58 372.004 1041.05 355.17 1032.08 337.083C1034 335.093 1045.15 346.65 1046.92 348.537C1067.89 370.766 1081.56 397.669 1076.17 428.536C1073.44 444.177 1053.27 468.794 1037.69 453.552V453.537Z" fill="black"/>
<path d="M617.385 23.9249C648.735 46.4197 679.374 97.63 652.111 132.669C638.803 149.769 618.174 146.408 615.018 125.343C612.056 105.575 629.491 87.3555 629.982 68.1332C630.396 52.4193 622.675 38.1352 617.385 23.9102V23.9249Z" fill="black"/>
<path d="M403.182 188.287C397.026 194.14 359.429 189.776 346.651 192.415C326.863 196.513 304.152 215.868 296.974 234.279C296.004 234.899 292.369 231.597 292.292 230.742C291.93 226.909 306.363 193.594 309.868 188.081C326.035 162.756 357.359 147.057 387.377 160.427C396.547 164.51 413.05 178.897 403.169 188.273L403.182 188.287Z" fill="black"/>
<path d="M709.26 549.81C713.127 506.265 754.203 453.625 804.164 476.355C813.14 480.439 822.568 487.382 821.029 498.275C818.947 513.09 792.899 504.85 782.915 505.307C746.947 506.943 729.436 523.394 709.26 549.81Z" fill="black"/>
<path d="M1025.84 148.221C1004.99 151.567 981.934 175.521 969.996 191.25C972.518 145.788 1022.38 90.421 1071.11 121.377C1082.19 128.409 1085.58 148.221 1075.51 148.221C1061.43 148.221 1038.44 146.201 1025.84 148.221Z" fill="black"/>
<path d="M1903.65 432.664C1902.65 426.281 1904.85 427.932 1909.92 427.814C1943.63 427.033 1990.1 460.126 1996.94 492.321C2002.71 519.43 1974.87 538.313 1959.53 506.782C1946.03 479.01 1946.77 437.956 1903.65 432.664Z" fill="black"/>
<path d="M176.81 235.281C169.748 225.964 153.388 211.223 140.571 212.756C138.256 204.841 151.344 207.907 156.091 208.614C188.954 213.508 236.394 245.806 235.165 280.919C234.454 301.158 214.588 312.73 200.594 292.461C189.342 276.172 189.911 252.557 176.81 235.281Z" fill="black"/>
<path d="M1259.63 490.906C1252.4 484.582 1246.3 483.004 1238.16 479.186C1234.56 477.506 1231.95 479.673 1233.19 473.334C1269.74 472.184 1328.33 508.433 1327.6 546.302C1327.28 563.092 1308.54 578.349 1294.12 561.677C1278.04 543.074 1283.62 511.926 1259.61 490.906H1259.63Z" fill="black"/>
<path d="M1575.2 207.304C1572.99 209.264 1563.68 210.561 1560.31 210.001C1537.29 206.124 1536.68 145.966 1516 132.935L1488.97 114.759C1529.73 113.669 1587.56 151.465 1580.67 194.67C1580.45 196.071 1575.73 206.832 1575.2 207.289V207.304Z" fill="black"/>
<path d="M1649.38 130.546C1648.33 131.829 1639.36 142.855 1640.41 135.057C1646.06 93.2071 1687.4 42.6896 1735.62 64.9486C1753.79 73.3362 1762.21 95.3003 1736.03 95.8458C1717.46 96.229 1707.84 91.8362 1686.93 98.5581C1666.6 105.103 1660.87 116.631 1649.37 130.546H1649.38Z" fill="black"/>
<path d="M557.761 528.274C547.957 519.562 582.256 526.387 585.011 527.168C614.176 535.438 648.294 561.692 651.01 592.722C652.614 610.971 634.934 627.791 619.724 613.256C602.6 596.893 608.601 557.196 579.941 536.824C573.901 532.534 558.627 529.055 557.748 528.274H557.761Z" fill="black"/>
<path d="M143.067 552.199H94.6444C88.2295 552.199 64.5874 563.461 58.8062 567.898C48.8476 575.549 43.4415 587.327 33.832 595.228C38.9924 554.027 68.4545 511.381 116.838 518.884C131.698 521.184 152.198 535.778 143.067 552.199Z" fill="black"/>
<path d="M816.014 160.19C849.433 156.505 905.577 191.412 910.142 223.71C914.32 253.31 889.876 269.421 874.395 241.414C862.457 219.818 865.302 194.449 843.187 175.831C834.87 168.829 823.308 167.487 816.014 160.176V160.19Z" fill="black"/>
<path d="M1493.56 461.026C1491.05 462.544 1453.66 460.996 1444.13 462.441C1427.01 465.035 1404.97 478.214 1395.79 492.395C1382.97 512.162 1405.21 494.65 1413.06 492.306C1425.48 488.591 1452.03 488.149 1463.43 494.282C1466.25 495.8 1467.68 494.164 1466.58 499.618C1451.22 494.016 1427.65 507.814 1419.79 520.299C1416.05 526.24 1415.31 533.655 1410.56 540.097C1396.29 559.422 1373.51 551.462 1377.37 527.272C1378.56 519.769 1385.81 513.858 1386.43 510.04C1386.94 506.959 1384.13 503.17 1385.09 499.072C1393.86 461.38 1421.29 420.974 1467.25 428.478C1477.46 430.143 1496.07 439.489 1496.56 450.53C1496.65 452.52 1494.66 460.362 1493.55 461.041L1493.56 461.026Z" fill="black"/>
<path d="M930.239 439.828C926.436 443.661 916.323 421.608 913.878 418.557C896.677 397.02 847.142 389.797 849.095 360.109C851.268 327.015 894.31 353.623 906.441 368.349C923.914 389.561 926.682 413.972 930.252 439.828H930.239Z" fill="black"/>
<path d="M510.554 126.714C501.009 115.069 498.255 104.617 485.774 94.4166C469.181 80.8549 432.101 73.5286 430.95 48.97C429.747 23.4091 459.235 29.5266 474.509 40.7151C501.242 60.2912 510.994 95.6844 510.554 126.714Z" fill="black"/>
<path d="M1600.69 394.426C1593.91 395.724 1596.43 392.805 1594.66 389.606C1590.92 382.825 1587.91 374.718 1582.45 368.969C1565.56 351.132 1523.62 344.838 1521.14 319.174C1518.5 291.947 1545.24 296.104 1562.13 308.457C1591.69 330.082 1597.13 360.802 1600.68 394.441L1600.69 394.426Z" fill="black"/>
<path d="M249.819 490.036L236.02 466.303C224.716 451.356 204.928 446.55 189.938 436.556C151.19 410.73 178.66 373.582 220.125 407.501C242.266 425.618 252.303 462.647 249.832 490.036H249.819Z" fill="black"/>
<path d="M31.3118 399.202C23.6035 399.364 26.2549 390.917 20.1503 384.859C1.28066 366.167 -32.3459 382.78 -53.9704 370.162C-82.6435 353.446 -53.4272 325.467 -25.6594 330.921C3.80267 336.715 27.7939 371.931 31.3118 399.187V399.202Z" fill="black"/>
<path d="M1377.19 305.994C1370.85 302.633 1370.42 295.218 1364.93 290.339C1345.72 273.239 1311.5 290.132 1290.41 276.025C1273.11 264.453 1280.6 246.661 1297.78 240.293C1338.57 225.154 1372.43 271.544 1377.19 306.008V305.994Z" fill="black"/>
<path d="M706.725 353.785C701.538 350.837 701.344 343.098 696.844 338.233C678.31 318.215 643.752 334.578 621.417 322.401C596.779 308.972 617.2 284.237 639.187 282.586C675.542 279.844 704.177 322.446 706.737 353.785H706.725Z" fill="black"/>
<path d="M63.5809 437.441C59.1965 438.016 61.1235 432.016 61.421 429.392C65.6761 391.832 98.1645 348.42 141.776 356.247C161.15 359.726 155.11 385.656 136.318 393.896C109.145 405.807 70.8882 399.94 63.5809 437.441Z" fill="black"/>
<path d="M1411.96 341.83C1407.69 342.287 1409.23 333.56 1409.42 331.01C1412.07 295.071 1446.33 259.472 1485.29 262.965C1503.48 264.602 1503.78 283.249 1492.8 294.143C1472.83 313.984 1416.82 301.793 1411.96 341.815V341.83Z" fill="black"/>
<path d="M752.473 366.815C750.403 368.407 747.804 371.621 745.786 373.581L739.061 389.634C734.159 350.099 771.316 304.048 814.824 308.382C834.276 310.328 832.155 331.968 819.765 341.859C802.964 355.288 773.062 351.042 752.473 366.801V366.815Z" fill="black"/>
<path d="M1856.5 435.067C1861.44 413.84 1859.92 393.025 1849.47 373.685C1841.12 358.222 1818.95 344.969 1834.08 326.263C1855.59 299.685 1879.96 344.689 1881.3 364.59C1882.63 384.151 1871.86 410.449 1862.64 427.844C1861.18 430.6 1860.32 434.447 1856.5 435.052V435.067Z" fill="black"/>
<path d="M513.037 530.677C508.613 531.237 510.605 525.282 510.877 522.629C515.675 475.516 503.039 481.25 486.847 447.169C470.835 413.471 512.894 397.168 529.902 441.582C542.059 473.349 525.789 501.829 513.037 530.677Z" fill="black"/>
<path d="M98.333 212.758C91.1809 218.639 95.9533 204.812 96.0438 202.159C96.7422 181.566 95.0221 168.726 84.8048 150.536C76.3464 135.485 56.6749 123.781 72.4147 105.31C87.288 87.8421 105.317 107.801 112.029 121.938C121.703 142.31 119.104 161.061 112.094 181.742C110.801 185.56 99.6781 211.652 98.333 212.758Z" fill="black"/>
<path d="M1190.94 478.096C1188.87 479.806 1185.6 479.186 1186.18 474.72C1188.49 456.839 1190.07 449.188 1183.62 431.396C1177.54 414.635 1142.68 381.955 1167.22 367.98C1184.66 358.045 1198.63 375.557 1204.62 389.664C1213.3 410.095 1211.14 424.04 1204.66 444.648C1203.35 448.805 1192.36 476.916 1190.95 478.096H1190.94Z" fill="black"/>
<path d="M1441.8 119.535C1441.5 106.018 1444.51 91.6455 1441.18 78.2753C1436.12 57.8738 1404.04 33.3152 1417.19 13.4001C1427.59 -2.34334 1444.32 7.90168 1452.8 19.2965C1474.99 49.1913 1462.51 92.6184 1441.8 119.535Z" fill="black"/>
<path d="M771.339 164.952C773.68 145.037 773.422 126.876 764.317 108.347C756.647 92.7212 734.816 78.7025 746.753 58.8463C756.207 43.1177 773.706 53.6428 782.268 64.7722C803.505 92.3674 792.369 129.81 777.483 157.759C776.021 160.515 775.168 164.377 771.339 164.967V164.952Z" fill="black"/>
<path d="M1625.51 511.573C1621.04 511.779 1618.79 506.001 1617.48 505.146C1616.89 504.762 1609.35 500.03 1607.52 499.057C1599.32 494.694 1587.7 490.139 1578.48 488.753C1560.63 486.041 1526.98 491.171 1513.06 482.96C1505.23 478.332 1508.4 458.151 1519.39 453.626C1548.63 441.597 1617.55 480.499 1625.52 511.587L1625.51 511.573Z" fill="black"/>
<path d="M955.045 556.989C954.204 558.036 937.883 545.58 934.921 544.105C905.252 529.394 888.814 536.278 859.468 533.079C829.333 529.792 832.463 498.467 859.559 497.126C890.986 495.563 935.606 525.119 952.251 549.486C953.079 550.695 958.136 553.083 955.032 556.989H955.045Z" fill="black"/>
<path d="M1886.27 145.803C1876.07 142.516 1868.43 135.13 1858.15 131.062C1832.49 120.905 1817.62 127.008 1793.15 124.311C1761.01 120.773 1762.78 88.2982 1793.15 88.254C1827.69 88.2097 1870.98 116.483 1886.27 145.803Z" fill="black"/>
<path d="M535.463 243.817C535.243 243.684 536.394 241.561 533.265 239.35C519.09 229.37 502.419 221.676 484.48 219.966C468.314 218.418 409.04 227.454 424.961 193.682C435.476 171.365 485.14 192.872 500.44 202.217C507.657 206.625 540.339 234.751 540.326 240.264C540.326 240.751 536.498 244.465 535.463 243.817Z" fill="black"/>
<path d="M414.487 486.969C408.111 479.392 412.469 456.543 411.266 445.827C409.352 428.83 392.332 406.556 378.83 395.766C378.041 395.132 357.14 384.076 370.281 384.917C371.406 384.99 374.329 390.607 377.691 389.707L381.429 384.887C379.36 394.336 388.271 392.98 394.634 397.284C415.612 411.465 450.506 436.672 448.411 464.68C447.234 480.321 428.843 504.024 414.487 486.969Z" fill="black"/>
<path d="M1065.77 357.205L1044.49 337.068C1078.34 347.136 1142.44 391.669 1118.59 431.131C1107.94 448.746 1087.17 446.196 1086.43 424.335C1086.25 419.102 1088.91 413.913 1088.65 409.992C1087.28 388.736 1080.38 373.036 1065.75 357.219L1065.77 357.205Z" fill="black"/>
<path d="M1208.33 196.026C1194.18 188.037 1180.5 178.308 1163.79 175.58C1144.84 172.485 1120.66 178.381 1104.05 170.937C1084.95 162.372 1093.47 140.158 1112.75 138.551C1143.63 135.971 1197.2 167.001 1208.32 196.041L1208.33 196.026Z" fill="black"/>
<path d="M627.29 23.9395C652.834 28.3176 697.816 59.9814 705.084 84.0829C709.65 99.222 706.455 132.699 683.757 128.719C666.245 125.653 673.281 97.9543 671.703 85.1296C668.599 59.8192 647.919 37.9435 627.277 23.9248L627.29 23.9395Z" fill="black"/>
<path d="M1714.93 291.666C1746.81 299.552 1797.97 336.729 1794.24 371.459C1792.39 388.662 1771.41 409.462 1759.96 388.146C1753.77 376.619 1760.17 370.87 1759.72 359.887C1758.54 331.614 1735.89 308.81 1714.93 291.666Z" fill="black"/>
<path d="M-26.9019 89.4626C-30.4327 85.7036 -35.1404 81.8857 -39.473 78.8932C-42.7839 76.6084 -47.7891 76.7705 -48.1383 76.4757C-49.4963 75.3259 -49.4963 71.0805 -44.4653 71.7291C-20.7844 74.8247 27.9094 116.114 31.104 140.054C34.3373 164.362 9.85456 192.812 -2.833 167.973C-8.32965 157.212 -2.62606 149.164 -3.42792 137.504C-4.59192 120.714 -15.3395 101.742 -26.8889 89.4478L-26.9019 89.4626Z" fill="black"/>
<path d="M1732.31 437.484C1716.7 453.36 1706.64 462.972 1707.35 486.543C1707.84 502.61 1719.92 528.554 1704.87 541.35C1689.49 554.41 1677.02 523.675 1675.77 512.089C1672.2 479.187 1699.85 445.857 1732.31 437.484Z" fill="black"/>
<path d="M1059.37 485.304C1041.33 502.212 1035.57 514.344 1037.06 539.035C1037.76 550.489 1043.15 562.267 1040.95 573.809C1034.82 605.871 1008.88 584.968 1005.35 562.399C1000.17 529.335 1025.17 492.851 1059.37 485.304Z" fill="black"/>
<path d="M644.673 169.758C634.572 181.226 621.937 193.963 620.359 209.883C618.677 226.791 636.125 267.697 614.164 275.539C602.11 279.844 592.319 260.99 590.638 251.629C583.9 214.055 608.318 181.418 644.673 169.758Z" fill="black"/>
<path d="M1315.12 129.057C1314.76 129.455 1309.41 130.266 1306.34 133.73C1277.71 166.205 1300.52 182.965 1295.13 216.206C1292.61 231.743 1277.71 235.841 1267.89 222.958C1251.63 201.642 1263.04 160.898 1281.65 143.474C1285.56 139.818 1306.91 126.08 1311.46 124.355C1315.72 122.748 1316.45 127.627 1315.12 129.057Z" fill="black"/>
<path d="M716.671 485.259L705.329 466.317C691.451 447.257 675.401 454.421 656.001 449.262C621.418 440.093 631.117 408.046 665.779 411.053C696.638 413.721 719.18 458.372 716.671 485.259Z" fill="black"/>
<path d="M977.396 129.101C969.92 122.762 969.054 111.883 962.134 104.365C944.532 85.2758 921.433 100.385 902.861 84.9368C892.049 75.9448 892.036 61.8966 905.396 56.177C948.011 37.9571 979.142 94.5479 977.396 129.101Z" fill="black"/>
<path d="M299.482 169.729C294.335 166.663 294.373 158.57 290.7 153.116C272.27 125.683 247.426 144.595 227.405 127.982C207.539 111.516 224.055 94.8885 246.119 95.434C278.944 96.2447 303.737 140.807 299.482 169.714V169.729Z" fill="black"/>
<path d="M1392.09 442.245C1385.66 438.088 1385.28 429.641 1380.77 423.273C1363.4 398.803 1337.94 414.016 1318.88 399.186C1290.47 377.075 1332.94 355.479 1361.06 375.321C1380.81 389.251 1393.15 418.969 1392.09 442.245Z" fill="black"/>
<path d="M666.232 544.283C646.069 565.466 622.065 528.171 608.653 518.751C601.54 513.754 598.074 514.167 591.232 511.587C588.956 510.732 583.485 511.351 587.585 506.826C591.116 502.934 612.365 497.141 618.625 497.038C642.047 496.655 689.784 519.518 666.232 544.283Z" fill="black"/>
<path d="M41.2304 533.08C32.4099 523.985 29.6938 508.536 17.3555 502.301C1.42165 494.267 -16.8401 501.814 -31.9721 490.021C-60.3865 467.895 -17.9007 446.329 10.2034 466.156C31.1036 480.897 39.95 508.993 41.2304 533.08Z" fill="black"/>
<path d="M1293.65 479.658C1284.82 472.287 1279.27 460.45 1263 461.335C1281.65 429.376 1373.23 461.748 1341.39 495.003C1326.06 511.027 1305.44 489.49 1293.65 479.658Z" fill="black"/>
<path d="M920.024 188.612C919.093 189.231 901.051 184.248 898.141 182.701C882.258 174.239 869.726 146.438 845.812 147.042C867.152 121.098 941.415 138.61 929.724 175.242C929.478 176.023 920.709 188.14 920.011 188.612H920.024Z" fill="black"/>
<path d="M213.477 223.873C200.027 212.949 191.413 195.216 170.396 194.848C188.723 175.33 226.863 180.401 245.733 196.395C268.728 215.898 246.962 251.07 213.477 223.873Z" fill="black"/>
<path d="M1516.27 102.775C1534.64 71.6717 1623.26 99.547 1598.26 132.729C1573.4 165.719 1543.89 96.0828 1516.27 102.775Z" fill="black"/>
<path d="M1636.06 188.272C1634.29 186.562 1634.34 182.626 1632.78 180.784C1629.59 177.01 1625 177.88 1625.56 174.563C1632.82 173.428 1634.02 160.382 1639.35 153.159C1656.7 129.603 1696.25 123.073 1722.35 136.295L1700.03 142.251C1695.27 145.847 1686.98 148.471 1682.83 151.994C1672.11 161.119 1670.37 179.192 1661.19 186.149C1655.28 190.631 1641.89 193.933 1636.05 188.272H1636.06Z" fill="black"/>
<path d="M965.638 233.646C954.567 223.636 963.595 203.883 972.338 194.714C992.371 173.723 1025.52 169.345 1051.9 181.713L1029.61 187.698C998.554 198.945 1002.69 227.44 986.306 234.442C980.188 237.065 970.838 238.348 965.638 233.646Z" fill="black"/>
<path d="M292.835 244.569C309.028 225.7 352.354 213.303 373.991 230.697C356.829 232.422 338.218 239.321 328.79 254.091C322.801 263.481 322.75 275.569 310.36 281.76C284.105 294.894 277.6 262.302 292.822 244.569H292.835Z" fill="black"/>
<path d="M1580.82 430.275C1574.05 431.558 1576.57 428.654 1574.81 425.44C1568.81 414.532 1564.48 405.687 1553.37 398.169C1541.03 389.811 1486.71 379.552 1513.88 357.469C1531.59 343.082 1565.33 372.594 1573.9 387.969C1581.9 402.312 1581.56 414.296 1580.84 430.275H1580.82Z" fill="black"/>
<path d="M227.523 525.9C223.604 505.44 208.11 493.22 189.447 484.847C184.248 482.518 162.779 476.813 161.059 475.147C153.532 467.88 161.266 448.864 174.018 448.171C199.574 446.771 228.312 478.39 231.804 501.43C232.864 508.476 235.296 522.421 227.523 525.9Z" fill="black"/>
<path d="M1163.63 119.535C1157.64 116.366 1158.37 108.863 1154.84 102.937C1138.7 75.8431 1103.57 77.4204 1093.95 63.5196C1087 53.481 1098.23 40.1551 1110.14 40.5089C1140.92 41.4375 1177.02 90.0977 1163.63 119.535Z" fill="black"/>
<path d="M490.688 162.564C482.489 152.761 480.251 142.811 469.555 133.937C457.644 124.046 425.479 116.012 421.03 108.951C414.77 99.0008 421.03 87.7682 432.566 86.1761C465.65 81.6212 502.794 132.64 490.688 162.579V162.564Z" fill="black"/>
<path d="M910.362 475.693C903.715 477.035 906.094 473.998 904.206 470.976C881.236 434.138 878.275 446.697 846.536 428.389C824.343 415.579 841.673 393.512 866.389 402.121C893.808 411.673 916.376 447.479 910.362 475.693Z" fill="black"/>
<path d="M73.5127 463.768C70.1242 467.32 67.7703 462.839 69.0119 458.24C75.6726 433.445 103.014 413.825 129.54 413.501C166.62 413.029 156.777 449.292 129.449 449.425C116.05 449.483 107.657 442.349 90.7787 445.725C70.8614 449.705 77.2892 459.817 73.5127 463.768Z" fill="black"/>
<path d="M822.764 396.136C805.394 410.125 776.307 387.94 755.718 401.516C750.415 405.01 751.851 414.754 744 413.545C751.113 386.112 779.528 363.927 809.507 365.843C828.61 367.067 838.297 383.621 822.764 396.136Z" fill="black"/>
<path d="M331.763 100.401C327.431 101.049 329.189 94.8288 329.849 92.5881C333.225 81.0459 346.585 65.3762 357.345 59.2881C372.917 50.4878 421.844 44.0901 412.648 71.8475C401.706 104.867 340.403 60.2463 331.763 100.401Z" fill="black"/>
<path d="M1495.63 348.287C1477.52 367.126 1443.5 340.474 1425.16 356.925C1421.72 360.02 1421.6 367.258 1416.97 368.128C1416.22 337.304 1469.61 308.353 1494.85 325.394C1503.44 331.202 1501.97 341.683 1495.63 348.287Z" fill="black"/>
<path d="M1002.28 52.6104C1005.78 24.116 1037.27 5.29167 1065.68 7.03111C1098.37 9.03589 1089.71 41.7167 1055.55 40.7881C1034.07 40.1984 1016.81 30.3072 1002.29 52.6104H1002.28Z" fill="black"/>
<path d="M28.8271 588.079C22.257 588.653 24.7919 588.211 23.9125 584.496C21.7138 575.239 22.6709 569.269 16.437 560.572C4.46079 543.855 -21.3152 544.991 -18.5475 519.857C-16.0514 497.171 16.243 516.437 24.3393 529.055C37.3502 549.354 32.5131 566.085 28.8142 588.093L28.8271 588.079Z" fill="black"/>
<path d="M1377.24 492.439C1378.61 481.737 1375.23 470.018 1368.39 461.497C1360.17 451.267 1341.23 447.125 1336.9 436.85C1322.64 403.079 1369.1 409.019 1381.92 438.929C1389.05 455.557 1389.72 478.656 1377.25 492.439H1377.24Z" fill="black"/>
<path d="M706.74 540.259C699.187 541.969 701.955 530.81 699.433 524.589C689.617 500.458 667.151 498.925 661.409 487.103C648.618 460.805 677.86 457.001 696.549 474.764C716.078 493.323 711.526 516.835 706.74 540.244V540.259Z" fill="black"/>
<path d="M289.55 224.711C281.777 217.341 284.558 204.487 277.225 195.421C272.724 189.849 259.7 184.454 253.634 179.25C229.1 158.215 248.176 135.617 275.905 155.429C298.5 171.57 297.75 201.376 289.55 224.726V224.711Z" fill="black"/>
<path d="M962.547 176.907C963.103 167.281 959.508 156.21 953.662 148.383C943.212 134.364 911.008 129.854 920.94 107.005C929.981 86.2054 962.353 112.12 968.056 127.333C972.687 139.686 973.437 167.148 962.534 176.907H962.547Z" fill="black"/>
<path d="M1637.94 131.49C1631.51 132.154 1633.98 131.49 1632.92 127.997C1630.02 118.459 1630.38 110.116 1623.09 101.581C1613.69 90.5693 1587.3 85.1741 1589.53 66.6299C1592.23 44.1056 1619.27 58.1096 1629.28 69.3127C1646.43 88.5203 1640.08 108.421 1637.95 131.49H1637.94Z" fill="black"/>
<path d="M480.781 542.617C484.48 534.259 484.338 522.672 482.191 513.783C478.505 498.541 456.014 488.001 465.235 469.089C468.3 462.809 480.251 461.541 485.217 464.298C488.037 465.86 499.728 486.925 500.478 491.392C501.979 500.31 500.866 511.292 498.267 520.048C497.245 523.498 485.747 546.715 480.768 542.617H480.781Z" fill="black"/>
<path d="M741.542 181.684C745.099 166.854 745.668 156.565 738.58 142.679C733.42 132.566 723.953 129.058 723.914 115.953C723.888 105.708 729.23 98.5442 740.404 98.3525C741.71 98.3378 755.846 115.806 756.933 117.855C767.939 138.61 758.356 166.972 741.555 181.684H741.542Z" fill="black"/>
<path d="M1158.72 492.439C1158.82 482.017 1161.33 475.9 1158.01 465.655C1153.02 450.265 1131.86 436.305 1141.63 419.825C1151.61 403.005 1170.94 425.839 1174.89 437.411C1181.62 457.164 1174.34 479.01 1158.72 492.439Z" fill="black"/>
<path d="M1829.18 447.022C1836.71 422.065 1826.15 415.432 1814.67 397.624C1801.5 377.179 1817.81 355.524 1837.64 377.901C1856.68 399.393 1848.7 429.155 1829.18 447.022Z" fill="black"/>
<path d="M1411.99 133.863C1414.33 125.122 1415.89 115.997 1413.89 106.931C1411.97 98.131 1374.31 56.2075 1406.01 54.984C1425.3 54.247 1433.53 86.7362 1431.63 101.418C1431.06 105.841 1417.96 139.686 1411.99 133.863Z" fill="black"/>
<path d="M71.0167 227.1C63.0368 234.382 68.7533 213.759 68.7792 211.578C69.0637 194.11 57.0229 187.093 50.7631 173.737C39.8474 150.476 59.131 138.241 76.0089 158.982C86.9376 172.411 88.1404 187.815 82.7731 203.721C81.8677 206.404 71.9996 226.201 71.0167 227.1Z" fill="black"/>
<path d="M139.821 491.746C126.203 507.71 93.0546 478.051 76.0085 496.094C71.5336 500.841 76.9397 506.914 63.6055 504.379C74.9092 482.636 93.3909 462.382 121.366 466.73C133.225 468.573 150.647 479.039 139.808 491.746H139.821Z" fill="black"/>
<path d="M994.814 98.0129C1006.53 73.1153 1026.58 54.6006 1057.01 60.8508C1077.15 64.9783 1081.13 84.407 1061.32 89.3452C1046.38 93.0747 1031.16 76.0046 1009.91 87.4584C1004.51 90.3623 1001.98 98.293 994.814 98.0129Z" fill="black"/>
<path d="M739.059 458.977C747.737 432.856 783.42 405.246 810.929 424.439C826.229 435.126 817.37 450.177 800.233 449.293C789.809 448.762 779.152 440.993 767.822 442.291C757.734 443.455 746.741 453.199 739.059 458.977Z" fill="black"/>
<path d="M262.261 205.623C268.857 204.665 269.827 206.419 272.724 211.062C282.955 227.469 282.864 287.2 253.622 282.158C223.953 277.058 278.906 220.305 262.261 205.623Z" fill="black"/>
<path d="M1675.14 47.8053C1673.59 49.1173 1668.63 48.3655 1670.26 44.2822C1674.33 34.0667 1694 14.8149 1705.06 10.8496C1740.08 -1.70977 1764.32 30.9858 1740.48 37.752C1717.45 44.2822 1709.46 19.7384 1679.17 40.995C1675.65 43.4567 1675.52 47.4958 1675.14 47.8053Z" fill="black"/>
<path d="M398.254 130.915C388.386 140.423 362.933 125.284 350.66 126.758L324.354 141.027C332.915 118.031 356.816 97.7032 383.497 104.425C386.278 105.118 400.026 111.589 400.789 112.827C402.768 116.1 401.087 128.173 398.254 130.9V130.915Z" fill="black"/>
<path d="M1409.5 411.142C1423.05 388.588 1442.9 365.975 1472.96 375.174C1497.93 382.81 1492.11 406.705 1468.51 403.521C1457.06 401.973 1450.46 394.706 1435.71 396.932C1425.17 398.524 1419.26 408.975 1409.5 411.142Z" fill="black"/>
<path d="M942.683 157.788C963.208 171.306 958.629 239.837 929.025 234.382C922.3 233.144 920.528 225.287 920.903 219.361C922.106 199.977 947.183 180.106 942.696 157.788H942.683Z" fill="black"/>
<path d="M683.707 594.52C679.155 598.117 664.876 598.648 662.419 594.874C653.909 581.843 676.413 552.936 680.228 539.816C681.198 536.47 680.913 515.7 686.85 521.139C688.221 522.392 693.627 540.701 694.067 544.106C695.683 556.769 694.584 585.926 683.707 594.52Z" fill="black"/>
<path d="M1340.58 546.832C1327.38 533.61 1349.22 508.963 1353.57 497.155C1356.77 488.517 1357.03 479.775 1358.59 470.931C1373.88 483.284 1373.76 530.588 1361.19 542.734C1356.91 546.876 1345.61 551.874 1340.58 546.832Z" fill="black"/>
<path d="M1613.14 112.371C1633.38 124.503 1628.59 192.562 1602.09 188.951C1570.26 184.617 1622.02 128.778 1613.14 112.371Z" fill="black"/>
<path d="M918.548 494.089C907.477 485.318 916.116 467.084 927.084 461.909C941.828 454.966 965.121 462.101 979.891 467.349C961.331 467.29 936.06 507.975 918.548 494.089Z" fill="black"/>
<path d="M1650.37 423.097C1649.81 423.583 1640.72 424.704 1636.19 427.416C1624.4 434.492 1604.46 457.989 1590.87 448.171C1580.2 440.477 1583 430.63 1590.74 421.903C1603.96 407.014 1628.69 415.343 1646.6 418.409C1649.85 418.969 1654.65 419.353 1650.37 423.097Z" fill="black"/>
<path d="M1235.69 109.968C1216.88 107.712 1204.76 132.315 1189.22 135.765C1158.27 142.649 1165.87 104.912 1187.82 100.991C1201.44 98.5583 1218.03 102.892 1231.91 105.265C1236.02 105.973 1236.18 103.732 1235.69 109.953V109.968Z" fill="black"/>
<path d="M1911.11 59.76C1891.29 57.5784 1872.39 95.2122 1853.39 85.6011C1839.04 78.3485 1847.75 55.2935 1861.31 51.2839C1873.84 47.5692 1893.99 52.7728 1907.34 55.0724C1911.45 55.78 1911.61 53.5393 1911.11 59.76Z" fill="black"/>
<path d="M304.474 513.976L259.854 543.9C242.213 548.868 231.905 537.178 241.372 521.331C254.68 499.058 284.259 513.622 304.474 513.99V513.976Z" fill="black"/>
<path d="M562.728 155.37C562.314 155.724 555.679 155.93 551.967 158.156C539.525 165.615 517.397 191.603 502.42 179.427C490.922 170.067 503.403 148.869 517.358 146.407C531.546 143.916 545.087 148.383 558.964 150.682C562.133 151.213 567.047 151.655 562.728 155.37Z" fill="black"/>
<path d="M478.284 181.668C469.412 179.987 465.442 170.789 456.026 168.46C445.24 165.792 399.34 167.782 416.489 142.486C431.841 119.844 478.116 161.045 478.284 181.668Z" fill="black"/>
<path d="M217.538 545.035C203.57 528.835 192.163 533.109 174.69 530.132C139.472 524.117 153.595 482.769 191.076 507.18C202.781 514.801 216.115 531.252 217.538 545.035Z" fill="black"/>
<path d="M895.448 497.229C887.96 492.276 881.907 484.655 872.699 482.105C859.183 478.375 834.533 485.687 832.166 466.479C829.178 442.289 866.93 453.124 877.937 462.72C880.911 465.315 897.686 494.414 895.448 497.229Z" fill="black"/>
<path d="M1568.41 451.797L1543.67 436.186C1531.43 433.135 1505.53 439.429 1504 421.711C1502.89 408.857 1507.09 405.894 1520 406.188C1546.02 406.808 1560.14 431.366 1568.41 451.782V451.797Z" fill="black"/>
<path d="M1151.22 138.654C1141.3 134.822 1141.93 127.82 1130.26 124.179C1119.48 120.818 1076.73 124.429 1087.9 100.475C1100.66 73.0714 1152.96 116.896 1151.22 138.639V138.654Z" fill="black"/>
<path d="M1826.65 86.0727C1814.72 67.1305 1770.46 77.7293 1765.08 60.4676C1758.1 38.0612 1786.44 40.4345 1800.22 48.1883C1806.97 51.9915 1830.85 80.6775 1826.65 86.0727Z" fill="black"/>
<path d="M1086.71 341.844C1097.88 356.496 1157.15 338.719 1150.25 363.41C1142.71 390.386 1086.6 366.741 1086.71 341.844Z" fill="black"/>
<path d="M1757.16 296.441C1764.28 297.901 1767.97 302.279 1775.99 303.384C1789.32 305.212 1811.22 297.576 1818.96 309.929C1825.77 320.764 1812.42 328.356 1802.42 329.447C1781.6 331.702 1763.25 314.263 1757.16 296.441Z" fill="black"/>
<path d="M672.014 28.7012C684.094 44.7394 742.164 22.4657 733.615 50.8717C726.153 75.6808 671.238 52.9502 672.014 28.7012Z" fill="black"/>
<path d="M52.432 83.6845C60.7481 86.161 60.373 101.89 48.7848 106.445C24.0951 116.144 2.81982 97.5853 -5.91016 76.5351C-2.96136 74.1323 8.08368 83.6845 10.2306 83.6845C19.271 83.6845 46.418 81.8861 52.4449 83.6845H52.432Z" fill="black"/>
<path d="M411.266 392.053C417.978 392.524 420.151 397.934 427.536 399.084C436.822 400.514 478.958 392.657 474.716 411.378C468.418 439.15 411.861 417.967 411.266 392.053Z" fill="black"/>
<path d="M590.057 497.215C590.69 479.113 625.183 450.737 639.837 467.851C662.431 494.238 613.996 488.415 604.231 490.552C598.36 491.835 596.019 497.481 590.07 497.215H590.057Z" fill="black"/>
<path d="M1521.25 88.4463C1519.94 67.0423 1563.76 39.1818 1574.06 65.2292C1582.58 86.7953 1545.28 79.6312 1535.41 81.7834C1529.55 83.0658 1527.2 88.6969 1521.25 88.4463Z" fill="black"/>
<path d="M1265.48 447.022C1266.09 427.638 1306.91 399.114 1318.34 421.343C1329.76 443.543 1294.08 438.561 1284.26 440.005C1277.02 441.067 1272.58 446.727 1265.5 447.007L1265.48 447.022Z" fill="black"/>
<path d="M1801.87 468.544C1801.67 461.984 1802.5 455.336 1801.25 448.791C1799.45 439.372 1778.13 411.172 1800.68 408.74C1826.93 405.909 1821.77 458.638 1801.87 468.544Z" fill="black"/>
<path d="M850.804 133.877C848.438 114.773 890.807 85.8365 901.684 107.565C916.661 137.489 862.018 119.417 850.804 133.877Z" fill="black"/>
<path d="M1384.69 155.385C1395.15 137.313 1368.37 115.334 1377.07 101.462C1382.71 92.4704 1392.59 95.625 1398.27 102.848C1411.24 119.358 1401.1 144.609 1384.69 155.385Z" fill="black"/>
<path d="M714.227 200.817C724.69 182.744 697.905 160.765 706.61 146.894C712.248 137.902 722.129 141.057 727.807 148.28C740.779 164.79 730.64 190.041 714.227 200.817Z" fill="black"/>
<path d="M224.418 171.556C216.399 179.295 185.334 168.416 175.375 181.683C177.043 164.127 196.43 144.713 215.753 148.678C226.875 150.963 232.075 164.156 224.418 171.556Z" fill="black"/>
<path d="M462.624 558.641C461.822 559.569 453.842 564.552 453.493 564.154C465.663 545.963 436.447 522.569 447.324 509.244C458.291 495.829 471.858 513.636 473.164 524.987C474.225 534.215 468.728 551.639 462.624 558.641Z" fill="black"/>
<path d="M1128.91 513.946C1139.95 497.981 1117.76 476.533 1119.44 465.492C1120.85 456.161 1131.53 454.554 1139.66 456.5C1145.99 458.018 1149.46 481.53 1148.18 488.311C1147.33 492.837 1133.41 518.309 1128.91 513.946Z" fill="black"/>
<path d="M38.7982 248.621C47.1143 235.929 13.6558 187.712 40.0139 189.112C66.747 190.527 57.241 239.556 38.7982 248.621Z" fill="black"/>
<path d="M1658.29 544.505C1642.59 532.491 1652.33 499.265 1670.2 492.439C1669.87 499.427 1665.17 505.692 1665.24 512.797C1665.35 523.749 1677.86 533.773 1666.54 542.795C1665.33 543.768 1658.81 544.918 1658.28 544.505H1658.29Z" fill="black"/>
<path d="M1252.43 228.943C1247.38 234.191 1238.88 228.56 1236.77 222.457C1231.38 206.802 1239.24 189.423 1251.81 179.34L1250.51 204.473C1251.54 212.478 1259.81 221.308 1252.43 228.943Z" fill="black"/>
<path d="M1914.23 176.273C1904.03 164.392 1916.22 135.116 1930.94 129.102C1930.22 136.354 1925.41 141.514 1925.82 149.4C1926.29 158.245 1934.05 163.522 1930.45 175.197C1928.01 183.157 1918.07 180.754 1914.22 176.273H1914.23Z" fill="black"/>
<path d="M581.973 274.36C577.666 278.812 568.548 274.39 566.44 270.129C563.905 265.014 564.552 249.551 566.35 243.728C567.682 239.38 583.008 217.769 581.533 232.009C580.809 238.967 579.076 244.465 580.266 252.072C581.378 259.192 589.513 266.547 581.986 274.345L581.973 274.36Z" fill="black"/>
<path d="M1106.57 528.304C1115.33 514.049 1096.87 502.846 1096.8 493.663C1096.69 482.268 1108.66 478.7 1116.52 488.828C1126.54 501.755 1120.96 520.978 1106.57 528.304Z" fill="black"/>
<path d="M428.634 576.079C444.257 563.593 410.644 546.17 424.689 535.246C445.732 518.899 456.518 576.831 428.634 576.079Z" fill="black"/>
<path d="M16.438 260.563C22.6589 250.288 -6.24696 220.496 12.765 217.416C33.5359 214.055 35.2948 256.804 16.438 260.563Z" fill="black"/>
<path d="M1777.01 480.469C1788.31 466.067 1760.49 453.596 1769.71 441.331C1786.1 419.544 1806.37 475.531 1777.01 480.469Z" fill="black"/>
<path d="M691.866 212.757C697.906 199.741 682.761 189.274 681.83 182.774C678.907 162.21 702.963 166.323 705.381 186.105C706.377 194.198 703.377 212.344 691.853 212.757H691.866Z" fill="black"/>
<path d="M1362.33 167.325C1370.02 153.307 1345.79 138.344 1354.63 127.701C1371.85 107.005 1387.43 164.2 1362.33 167.325Z" fill="black"/>
</g>
</svg>
