<svg width="17" height="18" viewBox="0 0 17 18" fill="none" xmlns="http://www.w3.org/2000/svg">
<g clip-path="url(#clip0_2023_2605)">
<path d="M8.49805 0.487305C4.92795 0.487305 2.02344 3.39181 2.02344 6.96191C2.02344 9.26661 2.72452 10.1909 6.09351 14.6322C6.67832 15.4031 7.34118 16.2769 8.09961 17.2881C8.19367 17.4135 8.3413 17.4873 8.49808 17.4873C8.65487 17.4873 8.80245 17.4135 8.89652 17.288C9.65049 16.2823 10.3105 15.4118 10.8928 14.6438C14.2699 10.1896 14.9727 9.26262 14.9727 6.96191C14.9727 3.39181 12.0681 0.487305 8.49805 0.487305ZM10.0991 14.042C9.62081 14.6728 9.09026 15.3726 8.49795 16.16C7.90159 15.3675 7.36801 14.6641 6.8871 14.0301C3.61002 9.71 3.01953 8.93156 3.01953 6.96191C3.01953 3.94106 5.47719 1.4834 8.49805 1.4834C11.5189 1.4834 13.9766 3.94106 13.9766 6.96191C13.9766 8.9277 13.3846 9.70854 10.0991 14.042Z" fill="#534741"/>
<path d="M8.49805 3.47559C6.57569 3.47559 5.01172 5.03955 5.01172 6.96191C5.01172 8.88428 6.57569 10.4482 8.49805 10.4482C10.4204 10.4482 11.9844 8.88428 11.9844 6.96191C11.9844 5.03955 10.4204 3.47559 8.49805 3.47559ZM8.49805 9.45215C7.12493 9.45215 6.00781 8.33503 6.00781 6.96191C6.00781 5.5888 7.12493 4.47168 8.49805 4.47168C9.87116 4.47168 10.9883 5.5888 10.9883 6.96191C10.9883 8.33503 9.87116 9.45215 8.49805 9.45215Z" fill="#534741"/>
</g>
<defs>
<clipPath id="clip0_2023_2605">
<rect width="17" height="17" fill="white" transform="translate(-0.00195312 0.487305)"/>
</clipPath>
</defs>
</svg>
