<svg width="40" height="40" viewBox="0 0 40 40" fill="none" xmlns="http://www.w3.org/2000/svg">
<path d="M22.3574 1.97046C22.3574 1.97046 22.3292 2.24786 22.301 2.35881C22.5268 2.08142 22.8373 1.60985 22.7809 1.02733C22.4986 1.58211 22.4703 1.33246 22.1881 1.9982C22.0187 2.05368 21.9058 1.77629 21.9622 1.55437C21.8776 1.69307 21.7082 1.38794 21.5953 1.77629C21.7646 2.27559 22.0469 2.30333 22.3574 1.94272V1.97046Z" fill="#F48E3B"/>
<path d="M24.8133 1.33246C24.8133 1.33246 24.6721 1.38794 24.6157 1.44342C24.6721 1.44342 24.7286 1.44342 24.785 1.41568C24.785 1.38794 24.785 1.3602 24.8133 1.33246Z" fill="#F48E3B"/>
<path d="M16.9659 0.195151C16.9659 0.195151 16.9659 0.25063 16.9659 0.278369C16.9659 0.222891 16.9659 0.195151 16.9659 0.195151Z" fill="#F48E3B"/>
<path d="M24.898 1.41568C24.898 1.41568 24.9826 1.41568 25.0391 1.41568C24.9826 1.38794 24.9262 1.38794 24.898 1.41568Z" fill="#F48E3B"/>
<path d="M8.15869 4.1896C8.29983 4.27282 8.44097 4.35604 8.55388 4.467C8.29983 4.21734 8.55388 3.80125 8.15869 4.1896Z" fill="#F48E3B"/>
<path d="M24.7568 1.60985C24.7568 1.60985 24.8415 1.44342 24.898 1.41568C24.8697 1.41568 24.8133 1.41568 24.785 1.41568C24.785 1.4989 24.7286 1.55437 24.7568 1.60985Z" fill="#F48E3B"/>
<path d="M34.3261 34.4254L33.9027 34.7305C33.9027 34.7305 34.185 34.5641 34.3261 34.4254Z" fill="#F48E3B"/>
<path d="M0.819379 24.2451L0.734695 24.1341C0.734695 24.1341 0.734695 24.2173 0.819379 24.2451Z" fill="#F48E3B"/>
<path d="M32.7454 35.7569C32.5478 35.6737 32.4066 35.6459 32.2937 35.6459C32.2937 35.7014 32.2937 35.7291 32.322 35.7846H32.7454V35.7569Z" fill="#F48E3B"/>
<path d="M39.4637 24.356C39.1814 24.0232 38.8709 23.6903 39.0967 23.3019C39.2096 23.3574 39.3508 23.3019 39.3225 23.4406C39.4354 22.6917 38.5604 22.0814 39.012 21.3325C39.7742 21.6376 39.2943 21.0828 40 21.0828C39.9435 20.9441 39.8871 20.7777 39.8024 20.639L39.4637 20.8054C39.4637 20.4171 38.9838 20.0842 39.2096 19.7513L39.4919 20.0287L39.3508 19.3075L39.0967 19.7236C38.7297 19.363 38.2216 19.7791 38.4192 19.2798C38.4757 19.363 38.4192 18.9191 38.8144 18.6972C38.5886 18.5308 38.3345 18.3644 38.4757 18.087C38.7015 18.0037 39.2378 18.087 39.379 18.0037C38.7862 17.8928 39.1532 17.1438 38.4757 17.0051C38.6451 17.0606 38.9838 17.0051 39.0685 16.9774L38.5604 16.8942C38.6733 16.7 38.7297 16.6723 39.0402 16.6445C39.0402 16.1175 38.1934 16.9497 38.4475 16.2839C38.5039 16.3117 38.5604 16.2839 38.6451 16.3671C38.6733 16.0343 38.5604 15.7569 38.4192 15.5072C38.3063 15.2298 38.1369 14.9802 38.1652 14.675C38.7862 14.3144 38.4757 15.1189 38.9838 14.7583C38.7862 14.3699 38.4757 14.0093 38.1652 13.6487C37.8829 13.2881 37.5442 12.9829 37.4877 12.5669V12.7333C36.5279 13.0107 37.6853 11.9843 37.0925 11.8179C37.2054 11.8734 37.6571 11.7069 37.5442 11.7347C37.4312 11.1799 36.782 10.8193 36.1045 10.2922L36.3868 10.2368C36.3868 9.84841 36.0198 9.46006 35.9069 9.09945C35.6529 9.15493 35.5682 8.96075 35.3424 9.26589C35.427 9.04397 35.4553 8.87754 35.427 8.7111C35.427 8.57241 35.3424 8.43371 35.2859 8.32275C35.1448 8.10084 34.8907 7.98988 34.6367 7.85118C34.3826 7.74023 34.1568 7.60153 33.9874 7.46283C33.818 7.2964 33.7051 7.07449 33.7334 6.71388C33.818 6.79709 34.1003 6.76935 34.0156 6.71388L33.2535 6.29779C32.9994 6.6584 33.1406 6.54744 33.0277 6.90805C32.7736 7.01901 32.4913 6.99127 32.3502 6.88031C32.8018 6.93579 32.8301 6.381 32.8583 6.10361C32.8018 6.21457 32.6607 6.29779 32.576 6.381C32.7736 5.54883 31.955 6.96353 31.8421 6.24231L32.0114 6.10361C31.7856 6.04813 31.4469 6.15909 31.3057 5.96492C31.5316 5.52109 31.6163 5.93718 31.8985 5.63204C31.6163 5.43787 30.8259 5.96492 30.8823 5.41013C31.0799 5.38239 31.2493 5.49335 31.4187 5.46561C31.5316 4.79987 31.3904 4.91082 31.2493 4.68891L30.9388 4.1896V4.41152C30.4307 4.82761 30.2331 4.74439 30.0355 4.63343C29.9508 4.57795 29.8661 4.49474 29.725 4.467C29.5838 4.467 29.4427 4.467 29.2169 4.57795C30.0919 4.13412 29.5274 4.21734 29.8661 3.77351C29.8097 3.57934 29.725 3.32969 29.8661 3.21873C29.4145 3.46838 29.6403 2.69168 28.991 3.08003C29.0475 2.9136 28.737 2.94134 28.991 2.55299C28.6241 2.49751 28.9346 2.85812 28.7934 3.05229C28.4265 3.19099 28.2289 2.9136 27.9748 2.63621C27.7208 2.35881 27.4103 2.08142 26.9022 2.33107C26.2247 2.41429 25.9142 2.88586 25.3778 3.05229C25.3214 3.05229 25.2649 3.02455 25.1802 2.99682C25.1802 2.71942 25.5472 2.52525 25.5472 2.52525C25.3214 2.19238 25.0673 2.1369 24.7004 2.27559C24.8133 2.1369 24.785 1.9982 24.7004 1.77629C24.4463 1.77629 24.3899 2.38655 24.1358 2.05368C24.2205 1.85951 24.3616 1.58211 24.531 1.41568C24.1923 1.52664 23.8253 1.77629 23.5148 1.88725C23.5148 1.55437 23.7688 1.47116 23.9382 1.27698C23.5712 1.33246 23.0067 1.3602 22.8091 1.85951L22.9502 1.9982C22.9502 1.9982 23.0067 1.60985 23.0914 1.55437C23.4583 1.2215 23.4866 1.80403 23.4583 1.9982L23.2325 2.08142C23.2325 3.16325 24.0793 2.08142 24.5028 2.24786L24.2205 2.80264C23.2043 2.58073 22.1598 2.41429 21.0872 2.35881C21.0872 2.35881 21.0872 2.35881 21.0589 2.35881C21.0872 2.08142 21.1436 1.80403 21.1718 1.52664C21.1718 1.58211 21.2283 1.60985 21.2848 1.60985L21.4541 1.02733L21.1718 1.16603C21.1718 0.805415 21.0307 0.472544 20.7202 0.195151L20.2121 0.722197L20.0427 0.306108H20.4661C20.2121 -0.10998 20.071 0.222891 19.9016 0.472544C19.8451 0.25063 19.7887 0.111934 19.6758 0.0287158C19.5064 0.306108 19.3652 0.583501 19.1959 0.833154C19.1112 0.500283 19.3935 0.167412 19.0547 0.000976562C18.8289 0.389326 19.3088 0.722197 18.9418 0.99959C18.6878 0.638979 18.716 0.306108 18.4619 0.666719C18.4055 0.444805 18.462 0.306108 18.5466 0.195151C18.3208 0.472544 17.8692 0.361587 17.8127 0.833154C17.6716 0.61124 17.4457 0.666719 17.2764 0.666719C17.107 0.666719 16.9376 0.666719 16.8812 0.25063C16.8247 0.444805 16.5424 0.97185 16.3166 1.02733C16.5424 0.000976562 15.4415 1.13829 15.3286 0.111934C15.2157 0.99959 14.2842 0.805415 13.889 1.41568C13.889 1.33246 13.889 1.19376 13.9737 1.2215C13.6349 1.2215 13.4656 1.02733 13.2115 0.944111C13.4091 1.63759 13.0139 1.97046 12.9575 2.46977C12.3364 1.97046 12.8446 1.60985 12.4776 1.02733C12.7034 1.55437 12.0824 1.83177 12.3929 2.22012C11.9413 1.94272 12.0824 2.1369 11.6872 1.63759C12.0259 2.46977 11.4896 1.88725 11.5178 2.49751C10.9533 2.30333 11.038 1.80403 10.7274 2.27559C10.3887 2.1369 10.6145 1.66533 10.6145 1.66533C10.1629 1.88725 10.7274 2.35881 10.8121 2.74716C10.4169 3.19099 10.3323 2.44203 9.99352 2.22012C9.8806 2.38655 9.82415 2.63621 9.79592 2.85812C9.76769 3.08003 9.73946 3.27421 9.59832 3.35743C9.51364 3.27421 9.45718 3.27421 9.42895 3.10777C9.42895 3.77351 8.49743 3.74578 8.55388 4.55021C8.49743 4.52247 8.44097 4.49474 8.41274 4.43926C8.66679 4.66117 8.89262 4.93856 9.03376 5.13274C8.89262 5.27143 9.03376 5.71526 8.66679 5.41013C8.77971 5.35465 8.66679 5.18822 8.63857 5.04952L8.58211 5.32691C8.04578 4.93856 8.66679 4.9663 8.38451 4.60569C8.15869 5.04952 8.13046 5.743 7.7635 5.79848C7.28362 5.38239 8.21515 5.16048 7.50944 5.02178L8.074 4.88308C7.14248 4.35604 8.35629 4.74439 7.42476 4.13413C6.77551 4.43926 7.00134 4.85535 6.38032 5.18822C6.52146 5.54883 6.77551 5.52109 6.88842 5.8817C6.6626 6.96353 5.22296 5.29917 5.30765 6.381C5.47702 6.79709 6.04158 7.37962 5.42056 7.46283L4.99714 6.88031C4.51726 7.35188 5.53347 7.82345 4.74309 8.04536C4.60195 7.79571 4.88423 7.51831 4.74309 7.51831C4.00916 7.51831 4.856 8.01762 4.63017 8.26727L4.09384 7.9344C3.92447 8.26727 3.83979 8.62788 3.72688 9.01623C3.64219 9.40458 3.52928 9.79293 3.38814 10.1535C3.247 10.0148 3.13408 9.82067 2.88003 9.87615C2.76712 10.3755 2.51307 10.8193 2.17433 11.2354C1.86382 11.6515 1.49685 12.0675 1.12989 12.4282L1.49685 12.9552C1.49685 12.9552 1.21457 13.0107 1.12989 12.8997C0.819379 13.1771 1.4404 13.0384 1.60977 13.2881C1.60977 13.4823 1.21457 13.4545 1.10166 13.2881C1.21457 13.6764 1.32749 14.1757 1.29926 14.6473C1.29926 14.8692 1.2428 15.1189 1.18634 15.313C1.12989 15.5072 0.988748 15.7014 0.819379 15.8401L0.678239 15.6737C0.339502 16.1452 1.66622 16.4504 1.0452 16.8387L0.96052 16.7277C0.762923 17.2548 0.762923 17.8651 0.706467 18.4198C0.706467 18.5585 0.678239 18.6972 0.650011 18.8359C0.650011 18.9746 0.621783 19.1133 0.565327 19.2243C0.480642 19.4739 0.36773 19.7236 0.170133 19.9455C0.565326 20.0287 0.480642 20.3061 0.424186 20.5835C0.36773 20.8609 0.424186 21.1105 0.96052 21.1105C0.480642 21.7763 0.254817 21.6099 0.000764177 22.6085C-0.0274639 22.8581 0.734695 22.8859 0.904064 23.1632L0.339502 23.2742L1.01698 23.5793L0.395958 23.9399L0.593555 24.1896C0.593555 24.1896 0.791151 23.8845 0.96052 23.8845C1.12989 24.0786 1.10166 24.356 0.96052 24.6057C0.847608 24.8553 0.678239 25.0773 0.537098 25.105L1.32749 25.9927C1.15812 26.0204 1.0452 25.9649 0.932292 25.8817C1.35571 26.1591 0.311273 26.1036 0.932292 26.4365C1.0452 26.3255 1.27103 26.3533 1.38394 26.3255C1.12989 26.6861 1.38394 27.2409 1.66622 27.6015L1.27103 27.6847C1.46863 28.4892 2.17433 29.1549 2.59775 29.9316C2.59775 29.5433 3.247 29.2936 3.41637 29.4878L2.93649 29.8762C3.33168 29.8207 2.99294 29.5155 3.55751 29.5988C3.67042 29.9039 3.07763 30.1258 2.82358 30.0703L3.21877 30.2922C3.21877 30.2922 2.93649 30.3755 2.73889 30.4864C3.16231 30.4309 2.62598 31.4018 3.30345 31.2631L3.16231 31.3741C3.30345 31.5682 3.41637 31.7069 3.52928 31.8456C3.64219 31.9843 3.78333 32.0953 3.89624 32.1785C4.1503 32.3727 4.37612 32.5669 4.63017 32.8442C5.02537 32.5114 5.13828 32.8165 5.58993 32.7056C5.84398 33.1771 5.9569 33.8983 6.465 34.3144C6.97311 34.4254 6.8602 34.0925 7.22716 33.9816C6.91665 34.3422 7.45299 34.7305 6.97311 34.7583C7.31185 34.9802 7.50944 35.1189 7.7635 35.2298C7.87641 35.2853 8.01755 35.3408 8.18692 35.424C8.35629 35.4795 8.55388 35.535 8.83616 35.5904C8.83616 35.3685 8.83616 35.2576 8.94908 35.1466C9.14667 35.1743 9.14667 35.535 9.00553 35.7014H8.94908C9.59832 35.7014 9.90883 36.3671 10.304 36.8942C10.5016 37.1716 10.6992 37.449 10.925 37.6154C11.038 37.6986 11.1509 37.7541 11.292 37.7818C11.4332 37.7818 11.5743 37.7818 11.7154 37.6986H11.659L12.7034 37.6154C13.0422 37.8373 12.3364 37.8373 12.5058 38.2257C12.8163 38.1424 13.0422 38.1424 13.2397 38.1979C13.4373 38.2257 13.6067 38.3089 13.7761 38.3921C14.1148 38.5585 14.4253 38.7527 14.877 38.614C14.9899 39.3907 15.5827 39.4462 16.1755 39.5017C16.486 39.5017 16.7965 39.5017 17.0505 39.5849C17.3328 39.6126 17.5869 39.7236 17.7845 39.9732V39.6404C18.0385 39.3352 18.0103 39.8623 18.1797 39.9455C18.1797 39.6958 17.9821 39.6404 18.1232 39.4739C19.0547 39.4184 19.9863 39.4739 20.9743 39.6958C21.4541 39.7791 21.9622 39.8345 22.4703 39.9178C22.7244 39.9455 22.9785 39.9732 23.2325 40.001C23.4866 40.001 23.7406 40.001 23.9947 40.001C24.7286 39.9455 24.0511 38.2811 25.0673 38.8637L24.9544 39.5017C25.5754 38.9746 26.2529 38.7527 26.9586 38.5863C27.6361 38.3366 28.3136 38.1147 28.8217 37.5322C28.8217 37.6986 28.8781 37.8651 28.7652 37.9205C29.2169 38.1979 29.7532 37.449 29.5838 37.1161C29.7814 37.0606 29.7814 37.3657 29.979 37.4767C30.3742 37.5599 30.346 36.6445 30.713 36.9497C30.7412 36.9774 30.7412 37.0329 30.713 37.0884C30.8541 36.8387 31.4187 36.7 31.0235 36.3949C31.588 36.3117 31.7292 35.6736 32.2373 35.6736C32.0961 35.0634 33.1123 35.3408 32.6607 34.675C33.1688 35.3408 33.818 34.6196 33.7616 34.0925C33.8463 34.3422 34.1568 34.0925 34.2979 34.4254C34.552 34.148 34.6931 33.8151 34.3544 33.5655C34.9472 33.6764 35.0601 33.2881 35.1448 32.9552C35.2295 32.6223 35.2859 32.3449 35.9069 32.5946C35.9916 32.3172 36.1045 32.0398 36.1892 31.7902C36.2739 31.5128 36.3303 31.2631 36.415 31.0135C36.4997 30.7638 36.5844 30.5142 36.6691 30.2922L36.8102 29.9316L36.9231 29.571C37.2619 29.7929 37.1772 30.0426 37.036 30.2645C36.9231 30.4864 36.782 30.7083 37.1772 30.9302C37.2336 30.6806 37.2619 30.4587 37.2901 30.2368C37.2901 30.0148 37.2901 29.7929 37.2901 29.5988C37.2901 29.1827 37.3466 28.8221 37.6571 28.4614C37.8829 28.295 37.9111 28.7388 37.9958 28.8775C38.0805 28.406 38.2499 27.9899 38.4475 27.6015C38.6168 27.2132 38.8144 26.8248 38.7015 26.3533C38.7862 26.3533 38.8144 26.492 38.8709 26.6029C38.8709 26.4365 39.0967 26.27 38.7297 26.1868L38.7862 26.381C38.1934 26.4365 37.8829 25.4101 37.6006 25.3269C38.5604 25.9094 38.1087 24.6612 39.2943 25.4656C39.2661 25.3547 39.1249 25.1605 38.8709 25.1327C38.9838 24.994 39.1532 24.994 39.379 25.216C39.379 24.9108 39.2378 24.7721 39.1249 24.6612C39.012 24.5502 38.9273 24.4393 38.9838 24.1896C39.1532 24.2451 39.2096 24.356 39.4072 24.4393L39.4637 24.356ZM34.0721 8.12858C34.0721 8.12858 33.8745 8.32275 33.7616 8.40597C33.7051 8.32275 33.6487 8.26727 33.564 8.18406C33.7051 8.0731 33.8745 8.04536 34.0721 8.10084V8.12858ZM27.0151 3.19099C27.0151 3.32969 26.9868 3.46838 26.9586 3.63482C26.8457 3.60708 26.761 3.5516 26.6481 3.52386C26.7328 3.4129 26.8175 3.30195 27.0151 3.21873V3.19099ZM24.8697 2.41429C24.8697 2.41429 24.8697 2.74716 24.8133 2.9136C24.6721 2.88586 24.5592 2.85812 24.4181 2.83038C24.5592 2.69168 24.7004 2.55299 24.8697 2.44203V2.41429ZM3.7551 10.0981C3.7551 10.0981 3.72688 10.209 3.67042 10.32C3.69865 10.2368 3.72688 10.1535 3.7551 10.0981ZM3.47282 10.7638C3.64219 10.8193 3.78333 10.9302 3.7551 11.0135C3.67042 10.9025 3.47282 11.0412 3.27523 11.0967C3.35991 11.0135 3.41637 10.9025 3.47282 10.7638Z" fill="#F48E3B"/>
<path d="M1.0452 25.854C1.0452 25.854 0.96052 25.7985 0.904064 25.7707C0.96052 25.7707 0.988748 25.8262 1.0452 25.854Z" fill="#F48E3B"/>
<path d="M23.1196 2.10916L23.0631 2.05368C23.0631 2.05368 23.0631 2.10916 23.1196 2.10916Z" fill="#F48E3B"/>
<path d="M30.7976 37.0606C30.7976 37.0606 30.7976 37.1161 30.7694 37.1438C30.7694 37.1438 30.7694 37.0884 30.7976 37.0606Z" fill="#F48E3B"/>
<path d="M0.339502 23.2742L0.480642 23.2465L0.339502 23.191V23.2742Z" fill="#F48E3B"/>
<path d="M32.9147 6.15909C32.9147 6.15909 32.943 6.07587 32.943 6.02039C32.943 6.02039 32.9147 6.10361 32.9147 6.15909Z" fill="#F48E3B"/>
<path d="M31.334 4.74439L31.1928 4.43926C31.2493 4.60569 31.2775 4.68891 31.334 4.74439Z" fill="#F48E3B"/>
<path d="M30.0919 3.63482C30.0919 3.63482 29.979 3.74578 29.9508 3.80125L30.0919 3.63482Z" fill="#F48E3B"/>
<path d="M38.8991 26.5197C38.8991 26.5197 38.8991 26.5752 38.8991 26.6029C38.9556 26.7694 38.9556 26.6584 38.8991 26.5197Z" fill="#F48E3B"/>
<path d="M38.8144 18.725C38.8144 18.725 39.012 18.8637 39.0967 18.9469C39.0967 18.8082 39.0967 18.6972 38.8144 18.725Z" fill="#F48E3B"/>
<path d="M34.3544 34.3976C34.3544 34.3976 34.3544 34.3976 34.3261 34.4254H34.3826L34.3544 34.3976Z" fill="#F48E3B"/>
<path d="M39.0685 19.3075C39.0685 19.3075 39.1532 19.0578 39.0685 18.9469C39.0402 19.0578 38.9838 19.1965 39.0685 19.3075Z" fill="#F48E3B"/>
<path d="M23.289 0.944111C23.289 0.944111 23.289 0.99959 23.289 1.02733L23.4019 0.97185H23.3172L23.289 0.944111Z" fill="#F48E3B"/>
<path d="M23.2607 1.02733L23.1478 1.08281C23.1478 1.08281 23.2325 1.08281 23.2607 1.02733Z" fill="#F48E3B"/>
<path d="M22.9502 1.19376L23.1478 1.08281C23.1478 1.08281 23.0067 1.05507 22.9502 1.19376Z" fill="#F48E3B"/>
<path d="M25.4907 1.69307L25.5754 1.52664C25.5754 1.52664 25.519 1.60985 25.4907 1.69307Z" fill="#F48E3B"/>
<path d="M26.14 1.83177C26.14 1.83177 25.8577 1.33246 25.6319 1.38794L25.5754 1.52664C25.7448 1.30472 25.9142 2.10916 26.1682 1.85951L26.14 1.83177Z" fill="#F48E3B"/>
<path d="M38.7862 15.3963C38.7862 15.3963 38.9556 15.2021 39.012 15.1189H38.5604C38.5604 15.1189 38.7297 15.313 38.7862 15.3963Z" fill="#F48E3B"/>
</svg>
