<svg width="40" height="40" viewBox="0 0 40 40" fill="none" xmlns="http://www.w3.org/2000/svg">
<path d="M20 0.319336C8.9551 0.319336 0 9.05056 0 19.8193C0 30.5881 8.9551 39.3193 20 39.3193C31.0449 39.3193 40 30.5881 40 19.8193C40 9.05056 31.0449 0.319336 20 0.319336ZM28.6362 17.7327C28.4515 17.749 28.2669 17.7572 28.0822 17.7572C26.0596 17.7572 24.1628 16.7589 23.055 15.1059V24.1236C23.055 27.8059 19.9916 30.7927 16.2149 30.7927C12.4381 30.7927 9.37474 27.8059 9.37474 24.1236C9.37474 20.4412 12.4381 17.4545 16.2149 17.4545C16.3575 17.4545 16.5002 17.4708 16.6345 17.479V20.7604C16.4918 20.744 16.3575 20.7195 16.2149 20.7195C14.2845 20.7195 12.7235 22.2415 12.7235 24.1236C12.7235 26.0057 14.2845 27.5277 16.2149 27.5277C18.1452 27.5277 19.8405 26.0466 19.8405 24.1645L19.8741 8.84598H23.0969C23.3991 11.6609 25.7323 13.8621 28.6278 14.0749V17.7245L28.6362 17.7327Z" fill="white"/>
</svg>
