<svg width="41" height="41" viewBox="0 0 41 41" fill="none" xmlns="http://www.w3.org/2000/svg">
<path d="M20.9149 0.84375C9.89177 0.84375 0.953125 9.79263 0.953125 20.8283C0.953125 31.864 9.89177 40.8129 20.9149 40.8129C31.9379 40.8129 40.8766 31.864 40.8766 20.8283C40.8766 9.79263 31.9379 0.84375 20.9149 0.84375ZM32.5576 23.8552C32.5576 26.6752 30.2666 28.9688 27.4498 28.9688H14.3799C11.5631 28.9688 9.27208 26.6752 9.27208 23.8552V17.7639C9.27208 14.9439 11.5631 12.6503 14.3799 12.6503H27.4498C30.2666 12.6503 32.5576 14.9439 32.5576 17.7639V23.8552Z" fill="white"/>
<path d="M24.615 20.6589L18.8688 17.5193C18.6246 17.3877 17.8359 17.5569 17.8359 17.8201V23.9301C17.8359 24.1933 18.6434 24.3625 18.8688 24.2497L24.8779 21.2793C25.1221 21.1477 24.8779 20.7905 24.6338 20.6589H24.615Z" fill="white"/>
</svg>
